<svg width="991" height="988" viewBox="0 0 991 988" fill="none" xmlns="http://www.w3.org/2000/svg">
<path d="M591.542 0C603.326 3.93083e-06 617.915 0.451134 635.31 1.35224C652.705 1.80282 669.258 3.15363 684.97 5.40638C752.306 13.967 808.42 32.4409 853.311 60.8262C898.762 89.2115 932.711 125.031 955.156 168.285C977.601 211.538 988.824 259.298 988.824 311.563C988.824 389.059 964.134 455.967 914.755 512.287C881.754 549.625 837.725 577.605 782.669 596.228L990.908 988H795.234L599.487 623.801H202.536V489.985H584.808C596.03 489.985 608.376 489.534 621.843 488.632C635.871 487.731 649.058 486.154 661.403 483.902C697.315 477.143 726.214 464.752 748.098 446.73C769.982 428.257 785.694 407.081 795.234 383.202C804.773 359.322 809.542 335.442 809.542 311.563C809.542 287.683 804.773 264.028 795.234 240.599C785.694 216.72 769.982 195.769 748.098 177.747C726.214 159.274 697.315 146.658 661.403 139.899C649.058 137.196 635.871 135.393 621.843 134.492C608.376 133.591 596.03 133.141 584.808 133.141H176.825V489.985H177.015V623.801H176.825L177.01 988H1.09399L0.908203 0H591.542Z" fill="#1E3758"/>
</svg>
