<svg width="2203" height="2200" viewBox="0 0 2203 2200" fill="none" xmlns="http://www.w3.org/2000/svg">
<g clip-path="url(#clip0_43_231793)">
<rect width="2203" height="2200" fill="#8F4D4D"/>
<rect x="5.27734" y="5.37793" width="816.28" height="789.043" stroke="black" stroke-width="10"/>
<path d="M160.545 306.182H146.364C145.818 303.152 144.803 300.485 143.318 298.182C141.833 295.879 140.015 293.924 137.864 292.318C135.712 290.712 133.303 289.5 130.636 288.682C128 287.864 125.197 287.455 122.227 287.455C116.864 287.455 112.061 288.803 107.818 291.5C103.606 294.197 100.273 298.152 97.8182 303.364C95.3939 308.576 94.1818 314.939 94.1818 322.455C94.1818 330.03 95.3939 336.424 97.8182 341.636C100.273 346.848 103.621 350.788 107.864 353.455C112.106 356.121 116.879 357.455 122.182 357.455C125.121 357.455 127.909 357.061 130.545 356.273C133.212 355.455 135.621 354.258 137.773 352.682C139.924 351.106 141.742 349.182 143.227 346.909C144.742 344.606 145.788 341.97 146.364 339L160.545 339.045C159.788 343.621 158.318 347.833 156.136 351.682C153.985 355.5 151.212 358.803 147.818 361.591C144.455 364.348 140.606 366.485 136.273 368C131.939 369.515 127.212 370.273 122.091 370.273C114.03 370.273 106.848 368.364 100.545 364.545C94.2424 360.697 89.2727 355.197 85.6364 348.045C82.0303 340.894 80.2273 332.364 80.2273 322.455C80.2273 312.515 82.0455 303.985 85.6818 296.864C89.3182 289.712 94.2879 284.227 100.591 280.409C106.894 276.561 114.061 274.636 122.091 274.636C127.03 274.636 131.636 275.348 135.909 276.773C140.212 278.167 144.076 280.227 147.5 282.955C150.924 285.652 153.758 288.955 156 292.864C158.242 296.742 159.758 301.182 160.545 306.182ZM205.67 370.409C199.125 370.409 193.413 368.909 188.534 365.909C183.655 362.909 179.867 358.712 177.17 353.318C174.473 347.924 173.125 341.621 173.125 334.409C173.125 327.167 174.473 320.833 177.17 315.409C179.867 309.985 183.655 305.773 188.534 302.773C193.413 299.773 199.125 298.273 205.67 298.273C212.216 298.273 217.928 299.773 222.807 302.773C227.686 305.773 231.473 309.985 234.17 315.409C236.867 320.833 238.216 327.167 238.216 334.409C238.216 341.621 236.867 347.924 234.17 353.318C231.473 358.712 227.686 362.909 222.807 365.909C217.928 368.909 212.216 370.409 205.67 370.409ZM205.716 359C209.958 359 213.473 357.879 216.261 355.636C219.049 353.394 221.11 350.409 222.443 346.682C223.807 342.955 224.489 338.848 224.489 334.364C224.489 329.909 223.807 325.818 222.443 322.091C221.11 318.333 219.049 315.318 216.261 313.045C213.473 310.773 209.958 309.636 205.716 309.636C201.443 309.636 197.898 310.773 195.08 313.045C192.292 315.318 190.216 318.333 188.852 322.091C187.519 325.818 186.852 329.909 186.852 334.364C186.852 338.848 187.519 342.955 188.852 346.682C190.216 350.409 192.292 353.394 195.08 355.636C197.898 357.879 201.443 359 205.716 359ZM266.977 327.545V369H253.386V299.182H266.432V310.545H267.295C268.902 306.848 271.417 303.879 274.841 301.636C278.295 299.394 282.644 298.273 287.886 298.273C292.644 298.273 296.811 299.273 300.386 301.273C303.962 303.242 306.735 306.182 308.705 310.091C310.674 314 311.659 318.833 311.659 324.591V369H298.068V326.227C298.068 321.167 296.75 317.212 294.114 314.364C291.477 311.485 287.856 310.045 283.25 310.045C280.098 310.045 277.295 310.727 274.841 312.091C272.417 313.455 270.492 315.455 269.068 318.091C267.674 320.697 266.977 323.848 266.977 327.545ZM362.477 299.182V310.091H324.341V299.182H362.477ZM334.568 282.455H348.159V348.5C348.159 351.136 348.553 353.121 349.341 354.455C350.129 355.758 351.144 356.652 352.386 357.136C353.659 357.591 355.038 357.818 356.523 357.818C357.614 357.818 358.568 357.742 359.386 357.591C360.205 357.439 360.841 357.318 361.295 357.227L363.75 368.455C362.962 368.758 361.841 369.061 360.386 369.364C358.932 369.697 357.114 369.879 354.932 369.909C351.356 369.97 348.023 369.333 344.932 368C341.841 366.667 339.341 364.606 337.432 361.818C335.523 359.03 334.568 355.53 334.568 351.318V282.455ZM377.511 369V299.182H390.648V310.273H391.375C392.648 306.515 394.89 303.561 398.102 301.409C401.345 299.227 405.011 298.136 409.102 298.136C409.951 298.136 410.951 298.167 412.102 298.227C413.284 298.288 414.208 298.364 414.875 298.455V311.455C414.33 311.303 413.36 311.136 411.966 310.955C410.572 310.742 409.178 310.636 407.784 310.636C404.572 310.636 401.708 311.318 399.193 312.682C396.708 314.015 394.739 315.879 393.284 318.273C391.83 320.636 391.102 323.333 391.102 326.364V369H377.511ZM446.33 370.545C441.905 370.545 437.905 369.727 434.33 368.091C430.754 366.424 427.92 364.015 425.83 360.864C423.769 357.712 422.739 353.848 422.739 349.273C422.739 345.333 423.496 342.091 425.011 339.545C426.527 337 428.572 334.985 431.148 333.5C433.723 332.015 436.602 330.894 439.784 330.136C442.966 329.379 446.208 328.803 449.511 328.409C453.693 327.924 457.087 327.53 459.693 327.227C462.299 326.894 464.193 326.364 465.375 325.636C466.557 324.909 467.148 323.727 467.148 322.091V321.773C467.148 317.803 466.027 314.727 463.784 312.545C461.572 310.364 458.269 309.273 453.875 309.273C449.299 309.273 445.693 310.288 443.057 312.318C440.451 314.318 438.648 316.545 437.648 319L424.875 316.091C426.39 311.848 428.602 308.424 431.511 305.818C434.451 303.182 437.83 301.273 441.648 300.091C445.466 298.879 449.481 298.273 453.693 298.273C456.481 298.273 459.436 298.606 462.557 299.273C465.708 299.909 468.648 301.091 471.375 302.818C474.133 304.545 476.39 307.015 478.148 310.227C479.905 313.409 480.784 317.545 480.784 322.636V369H467.511V359.455H466.966C466.087 361.212 464.769 362.939 463.011 364.636C461.254 366.333 458.996 367.742 456.239 368.864C453.481 369.985 450.178 370.545 446.33 370.545ZM449.284 359.636C453.042 359.636 456.254 358.894 458.92 357.409C461.617 355.924 463.663 353.985 465.057 351.591C466.481 349.167 467.193 346.576 467.193 343.818V334.818C466.708 335.303 465.769 335.758 464.375 336.182C463.011 336.576 461.451 336.924 459.693 337.227C457.936 337.5 456.223 337.758 454.557 338C452.89 338.212 451.496 338.394 450.375 338.545C447.739 338.879 445.33 339.439 443.148 340.227C440.996 341.015 439.269 342.152 437.966 343.636C436.693 345.091 436.057 347.03 436.057 349.455C436.057 352.818 437.299 355.364 439.784 357.091C442.269 358.788 445.436 359.636 449.284 359.636ZM498.886 369V299.182H512.477V369H498.886ZM505.75 288.409C503.386 288.409 501.356 287.621 499.659 286.045C497.992 284.439 497.159 282.53 497.159 280.318C497.159 278.076 497.992 276.167 499.659 274.591C501.356 272.985 503.386 272.182 505.75 272.182C508.114 272.182 510.129 272.985 511.795 274.591C513.492 276.167 514.341 278.076 514.341 280.318C514.341 282.53 513.492 284.439 511.795 286.045C510.129 287.621 508.114 288.409 505.75 288.409ZM544.352 327.545V369H530.761V299.182H543.807V310.545H544.67C546.277 306.848 548.792 303.879 552.216 301.636C555.67 299.394 560.019 298.273 565.261 298.273C570.019 298.273 574.186 299.273 577.761 301.273C581.337 303.242 584.11 306.182 586.08 310.091C588.049 314 589.034 318.833 589.034 324.591V369H575.443V326.227C575.443 321.167 574.125 317.212 571.489 314.364C568.852 311.485 565.231 310.045 560.625 310.045C557.473 310.045 554.67 310.727 552.216 312.091C549.792 313.455 547.867 315.455 546.443 318.091C545.049 320.697 544.352 323.848 544.352 327.545ZM639.852 299.182V310.091H601.716V299.182H639.852ZM611.943 282.455H625.534V348.5C625.534 351.136 625.928 353.121 626.716 354.455C627.504 355.758 628.519 356.652 629.761 357.136C631.034 357.591 632.413 357.818 633.898 357.818C634.989 357.818 635.943 357.742 636.761 357.591C637.58 357.439 638.216 357.318 638.67 357.227L641.125 368.455C640.337 368.758 639.216 369.061 637.761 369.364C636.307 369.697 634.489 369.879 632.307 369.909C628.731 369.97 625.398 369.333 622.307 368C619.216 366.667 616.716 364.606 614.807 361.818C612.898 359.03 611.943 355.53 611.943 351.318V282.455ZM684.227 370.409C677.348 370.409 671.424 368.939 666.455 366C661.515 363.03 657.697 358.864 655 353.5C652.333 348.106 651 341.788 651 334.545C651 327.394 652.333 321.091 655 315.636C657.697 310.182 661.455 305.924 666.273 302.864C671.121 299.803 676.788 298.273 683.273 298.273C687.212 298.273 691.03 298.924 694.727 300.227C698.424 301.53 701.742 303.576 704.682 306.364C707.621 309.152 709.939 312.773 711.636 317.227C713.333 321.652 714.182 327.03 714.182 333.364V338.182H658.682V328H700.864C700.864 324.424 700.136 321.258 698.682 318.5C697.227 315.712 695.182 313.515 692.545 311.909C689.939 310.303 686.879 309.5 683.364 309.5C679.545 309.5 676.212 310.439 673.364 312.318C670.545 314.167 668.364 316.591 666.818 319.591C665.303 322.561 664.545 325.788 664.545 329.273V337.227C664.545 341.894 665.364 345.864 667 349.136C668.667 352.409 670.985 354.909 673.955 356.636C676.924 358.333 680.394 359.182 684.364 359.182C686.939 359.182 689.288 358.818 691.409 358.091C693.53 357.333 695.364 356.212 696.909 354.727C698.455 353.242 699.636 351.409 700.455 349.227L713.318 351.545C712.288 355.333 710.439 358.652 707.773 361.5C705.136 364.318 701.818 366.515 697.818 368.091C693.848 369.636 689.318 370.409 684.227 370.409ZM319.415 454.182V465.091H281.278V454.182H319.415ZM291.506 437.455H305.097V503.5C305.097 506.136 305.491 508.121 306.278 509.455C307.066 510.758 308.081 511.652 309.324 512.136C310.597 512.591 311.975 512.818 313.46 512.818C314.551 512.818 315.506 512.742 316.324 512.591C317.142 512.439 317.778 512.318 318.233 512.227L320.688 523.455C319.9 523.758 318.778 524.061 317.324 524.364C315.869 524.697 314.051 524.879 311.869 524.909C308.294 524.97 304.96 524.333 301.869 523C298.778 521.667 296.278 519.606 294.369 516.818C292.46 514.03 291.506 510.53 291.506 506.318V437.455ZM363.79 525.409C356.911 525.409 350.987 523.939 346.017 521C341.078 518.03 337.259 513.864 334.562 508.5C331.896 503.106 330.562 496.788 330.562 489.545C330.562 482.394 331.896 476.091 334.562 470.636C337.259 465.182 341.017 460.924 345.835 457.864C350.684 454.803 356.35 453.273 362.835 453.273C366.775 453.273 370.593 453.924 374.29 455.227C377.987 456.53 381.305 458.576 384.244 461.364C387.184 464.152 389.502 467.773 391.199 472.227C392.896 476.652 393.744 482.03 393.744 488.364V493.182H338.244V483H380.426C380.426 479.424 379.699 476.258 378.244 473.5C376.79 470.712 374.744 468.515 372.108 466.909C369.502 465.303 366.441 464.5 362.926 464.5C359.108 464.5 355.775 465.439 352.926 467.318C350.108 469.167 347.926 471.591 346.381 474.591C344.866 477.561 344.108 480.788 344.108 484.273V492.227C344.108 496.894 344.926 500.864 346.562 504.136C348.229 507.409 350.547 509.909 353.517 511.636C356.487 513.333 359.956 514.182 363.926 514.182C366.502 514.182 368.85 513.818 370.972 513.091C373.093 512.333 374.926 511.212 376.472 509.727C378.017 508.242 379.199 506.409 380.017 504.227L392.881 506.545C391.85 510.333 390.002 513.652 387.335 516.5C384.699 519.318 381.381 521.515 377.381 523.091C373.411 524.636 368.881 525.409 363.79 525.409ZM438.233 525.409C431.475 525.409 425.657 523.879 420.778 520.818C415.93 517.727 412.203 513.47 409.597 508.045C406.991 502.621 405.688 496.409 405.688 489.409C405.688 482.318 407.021 476.061 409.688 470.636C412.354 465.182 416.112 460.924 420.96 457.864C425.809 454.803 431.521 453.273 438.097 453.273C443.4 453.273 448.127 454.258 452.278 456.227C456.43 458.167 459.778 460.894 462.324 464.409C464.9 467.924 466.43 472.03 466.915 476.727H453.688C452.96 473.455 451.294 470.636 448.688 468.273C446.112 465.909 442.657 464.727 438.324 464.727C434.536 464.727 431.218 465.727 428.369 467.727C425.551 469.697 423.354 472.515 421.778 476.182C420.203 479.818 419.415 484.121 419.415 489.091C419.415 494.182 420.188 498.576 421.733 502.273C423.278 505.97 425.46 508.833 428.278 510.864C431.127 512.894 434.475 513.909 438.324 513.909C440.9 513.909 443.233 513.439 445.324 512.5C447.445 511.53 449.218 510.152 450.642 508.364C452.097 506.576 453.112 504.424 453.688 501.909H466.915C466.43 506.424 464.96 510.455 462.506 514C460.051 517.545 456.763 520.333 452.642 522.364C448.551 524.394 443.748 525.409 438.233 525.409ZM495.04 482.545V524H481.449V430.909H494.858V465.545H495.722C497.358 461.788 499.858 458.803 503.222 456.591C506.585 454.379 510.979 453.273 516.403 453.273C521.191 453.273 525.373 454.258 528.949 456.227C532.555 458.197 535.343 461.136 537.312 465.045C539.312 468.924 540.312 473.773 540.312 479.591V524H526.722V481.227C526.722 476.106 525.403 472.136 522.767 469.318C520.131 466.47 516.464 465.045 511.767 465.045C508.555 465.045 505.676 465.727 503.131 467.091C500.616 468.455 498.631 470.455 497.176 473.091C495.752 475.697 495.04 478.848 495.04 482.545Z" fill="white"/>
<rect x="1399" y="1407" width="799" height="788" stroke="black" stroke-width="10"/>
<path d="M1544.83 1706.56H1530.64C1530.1 1703.53 1529.08 1700.86 1527.6 1698.56C1526.11 1696.26 1524.3 1694.3 1522.14 1692.7C1519.99 1691.09 1517.58 1689.88 1514.92 1689.06C1512.28 1688.24 1509.48 1687.83 1506.51 1687.83C1501.14 1687.83 1496.34 1689.18 1492.1 1691.88C1487.89 1694.58 1484.55 1698.53 1482.1 1703.74C1479.68 1708.95 1478.46 1715.32 1478.46 1722.83C1478.46 1730.41 1479.68 1736.8 1482.1 1742.02C1484.55 1747.23 1487.9 1751.17 1492.14 1753.83C1496.39 1756.5 1501.16 1757.83 1506.46 1757.83C1509.4 1757.83 1512.19 1757.44 1514.83 1756.65C1517.49 1755.83 1519.9 1754.64 1522.05 1753.06C1524.21 1751.48 1526.02 1749.56 1527.51 1747.29C1529.02 1744.98 1530.07 1742.35 1530.64 1739.38L1544.83 1739.42C1544.07 1744 1542.6 1748.21 1540.42 1752.06C1538.27 1755.88 1535.49 1759.18 1532.1 1761.97C1528.74 1764.73 1524.89 1766.86 1520.55 1768.38C1516.22 1769.89 1511.49 1770.65 1506.37 1770.65C1498.31 1770.65 1491.13 1768.74 1484.83 1764.92C1478.52 1761.08 1473.55 1755.58 1469.92 1748.42C1466.31 1741.27 1464.51 1732.74 1464.51 1722.83C1464.51 1712.89 1466.33 1704.36 1469.96 1697.24C1473.6 1690.09 1478.57 1684.61 1484.87 1680.79C1491.18 1676.94 1498.34 1675.02 1506.37 1675.02C1511.31 1675.02 1515.92 1675.73 1520.19 1677.15C1524.49 1678.55 1528.36 1680.61 1531.78 1683.33C1535.21 1686.03 1538.04 1689.33 1540.28 1693.24C1542.52 1697.12 1544.04 1701.56 1544.83 1706.56ZM1589.95 1770.79C1583.41 1770.79 1577.69 1769.29 1572.82 1766.29C1567.94 1763.29 1564.15 1759.09 1561.45 1753.7C1558.75 1748.3 1557.41 1742 1557.41 1734.79C1557.41 1727.55 1558.75 1721.21 1561.45 1715.79C1564.15 1710.36 1567.94 1706.15 1572.82 1703.15C1577.69 1700.15 1583.41 1698.65 1589.95 1698.65C1596.5 1698.65 1602.21 1700.15 1607.09 1703.15C1611.97 1706.15 1615.75 1710.36 1618.45 1715.79C1621.15 1721.21 1622.5 1727.55 1622.5 1734.79C1622.5 1742 1621.15 1748.3 1618.45 1753.7C1615.75 1759.09 1611.97 1763.29 1607.09 1766.29C1602.21 1769.29 1596.5 1770.79 1589.95 1770.79ZM1590 1759.38C1594.24 1759.38 1597.75 1758.26 1600.54 1756.02C1603.33 1753.77 1605.39 1750.79 1606.72 1747.06C1608.09 1743.33 1608.77 1739.23 1608.77 1734.74C1608.77 1730.29 1608.09 1726.2 1606.72 1722.47C1605.39 1718.71 1603.33 1715.7 1600.54 1713.42C1597.75 1711.15 1594.24 1710.02 1590 1710.02C1585.72 1710.02 1582.18 1711.15 1579.36 1713.42C1576.57 1715.7 1574.5 1718.71 1573.13 1722.47C1571.8 1726.2 1571.13 1730.29 1571.13 1734.74C1571.13 1739.23 1571.8 1743.33 1573.13 1747.06C1574.5 1750.79 1576.57 1753.77 1579.36 1756.02C1582.18 1758.26 1585.72 1759.38 1590 1759.38ZM1651.26 1727.92V1769.38H1637.67V1699.56H1650.71V1710.92H1651.58C1653.18 1707.23 1655.7 1704.26 1659.12 1702.02C1662.58 1699.77 1666.93 1698.65 1672.17 1698.65C1676.93 1698.65 1681.09 1699.65 1684.67 1701.65C1688.24 1703.62 1691.02 1706.56 1692.99 1710.47C1694.96 1714.38 1695.94 1719.21 1695.94 1724.97V1769.38H1682.35V1726.61C1682.35 1721.55 1681.03 1717.59 1678.39 1714.74C1675.76 1711.86 1672.14 1710.42 1667.53 1710.42C1664.38 1710.42 1661.58 1711.11 1659.12 1712.47C1656.7 1713.83 1654.77 1715.83 1653.35 1718.47C1651.96 1721.08 1651.26 1724.23 1651.26 1727.92ZM1746.76 1699.56V1710.47H1708.62V1699.56H1746.76ZM1718.85 1682.83H1732.44V1748.88C1732.44 1751.52 1732.83 1753.5 1733.62 1754.83C1734.41 1756.14 1735.43 1757.03 1736.67 1757.52C1737.94 1757.97 1739.32 1758.2 1740.8 1758.2C1741.89 1758.2 1742.85 1758.12 1743.67 1757.97C1744.49 1757.82 1745.12 1757.7 1745.58 1757.61L1748.03 1768.83C1747.24 1769.14 1746.12 1769.44 1744.67 1769.74C1743.21 1770.08 1741.39 1770.26 1739.21 1770.29C1735.64 1770.35 1732.3 1769.71 1729.21 1768.38C1726.12 1767.05 1723.62 1764.98 1721.71 1762.2C1719.8 1759.41 1718.85 1755.91 1718.85 1751.7V1682.83ZM1761.79 1769.38V1699.56H1774.93V1710.65H1775.66C1776.93 1706.89 1779.17 1703.94 1782.38 1701.79C1785.63 1699.61 1789.29 1698.52 1793.38 1698.52C1794.23 1698.52 1795.23 1698.55 1796.38 1698.61C1797.57 1698.67 1798.49 1698.74 1799.16 1698.83V1711.83C1798.61 1711.68 1797.64 1711.52 1796.25 1711.33C1794.85 1711.12 1793.46 1711.02 1792.07 1711.02C1788.85 1711.02 1785.99 1711.7 1783.47 1713.06C1780.99 1714.39 1779.02 1716.26 1777.57 1718.65C1776.11 1721.02 1775.38 1723.71 1775.38 1726.74V1769.38H1761.79ZM1830.61 1770.92C1826.19 1770.92 1822.19 1770.11 1818.61 1768.47C1815.04 1766.8 1812.2 1764.39 1810.11 1761.24C1808.05 1758.09 1807.02 1754.23 1807.02 1749.65C1807.02 1745.71 1807.78 1742.47 1809.29 1739.92C1810.81 1737.38 1812.85 1735.36 1815.43 1733.88C1818 1732.39 1820.88 1731.27 1824.07 1730.52C1827.25 1729.76 1830.49 1729.18 1833.79 1728.79C1837.97 1728.3 1841.37 1727.91 1843.97 1727.61C1846.58 1727.27 1848.47 1726.74 1849.66 1726.02C1850.84 1725.29 1851.43 1724.11 1851.43 1722.47V1722.15C1851.43 1718.18 1850.31 1715.11 1848.07 1712.92C1845.85 1710.74 1842.55 1709.65 1838.16 1709.65C1833.58 1709.65 1829.97 1710.67 1827.34 1712.7C1824.73 1714.7 1822.93 1716.92 1821.93 1719.38L1809.16 1716.47C1810.67 1712.23 1812.88 1708.8 1815.79 1706.2C1818.73 1703.56 1822.11 1701.65 1825.93 1700.47C1829.75 1699.26 1833.76 1698.65 1837.97 1698.65C1840.76 1698.65 1843.72 1698.98 1846.84 1699.65C1849.99 1700.29 1852.93 1701.47 1855.66 1703.2C1858.41 1704.92 1860.67 1707.39 1862.43 1710.61C1864.19 1713.79 1865.07 1717.92 1865.07 1723.02V1769.38H1851.79V1759.83H1851.25C1850.37 1761.59 1849.05 1763.32 1847.29 1765.02C1845.54 1766.71 1843.28 1768.12 1840.52 1769.24C1837.76 1770.36 1834.46 1770.92 1830.61 1770.92ZM1833.57 1760.02C1837.32 1760.02 1840.54 1759.27 1843.2 1757.79C1845.9 1756.3 1847.94 1754.36 1849.34 1751.97C1850.76 1749.55 1851.47 1746.95 1851.47 1744.2V1735.2C1850.99 1735.68 1850.05 1736.14 1848.66 1736.56C1847.29 1736.95 1845.73 1737.3 1843.97 1737.61C1842.22 1737.88 1840.5 1738.14 1838.84 1738.38C1837.17 1738.59 1835.78 1738.77 1834.66 1738.92C1832.02 1739.26 1829.61 1739.82 1827.43 1740.61C1825.28 1741.39 1823.55 1742.53 1822.25 1744.02C1820.97 1745.47 1820.34 1747.41 1820.34 1749.83C1820.34 1753.2 1821.58 1755.74 1824.07 1757.47C1826.55 1759.17 1829.72 1760.02 1833.57 1760.02ZM1883.17 1769.38V1699.56H1896.76V1769.38H1883.17ZM1890.03 1688.79C1887.67 1688.79 1885.64 1688 1883.94 1686.42C1882.27 1684.82 1881.44 1682.91 1881.44 1680.7C1881.44 1678.45 1882.27 1676.55 1883.94 1674.97C1885.64 1673.36 1887.67 1672.56 1890.03 1672.56C1892.39 1672.56 1894.41 1673.36 1896.08 1674.97C1897.77 1676.55 1898.62 1678.45 1898.62 1680.7C1898.62 1682.91 1897.77 1684.82 1896.08 1686.42C1894.41 1688 1892.39 1688.79 1890.03 1688.79ZM1928.63 1727.92V1769.38H1915.04V1699.56H1928.09V1710.92H1928.95C1930.56 1707.23 1933.07 1704.26 1936.5 1702.02C1939.95 1699.77 1944.3 1698.65 1949.54 1698.65C1954.3 1698.65 1958.47 1699.65 1962.04 1701.65C1965.62 1703.62 1968.39 1706.56 1970.36 1710.47C1972.33 1714.38 1973.32 1719.21 1973.32 1724.97V1769.38H1959.72V1726.61C1959.72 1721.55 1958.41 1717.59 1955.77 1714.74C1953.13 1711.86 1949.51 1710.42 1944.91 1710.42C1941.75 1710.42 1938.95 1711.11 1936.5 1712.47C1934.07 1713.83 1932.15 1715.83 1930.72 1718.47C1929.33 1721.08 1928.63 1724.23 1928.63 1727.92ZM2024.13 1699.56V1710.47H1986V1699.56H2024.13ZM1996.22 1682.83H2009.82V1748.88C2009.82 1751.52 2010.21 1753.5 2011 1754.83C2011.79 1756.14 2012.8 1757.03 2014.04 1757.52C2015.32 1757.97 2016.69 1758.2 2018.18 1758.2C2019.27 1758.2 2020.22 1758.12 2021.04 1757.97C2021.86 1757.82 2022.5 1757.7 2022.95 1757.61L2025.41 1768.83C2024.62 1769.14 2023.5 1769.44 2022.04 1769.74C2020.59 1770.08 2018.77 1770.26 2016.59 1770.29C2013.01 1770.35 2009.68 1769.71 2006.59 1768.38C2003.5 1767.05 2001 1764.98 1999.09 1762.2C1997.18 1759.41 1996.22 1755.91 1996.22 1751.7V1682.83ZM2068.51 1770.79C2061.63 1770.79 2055.71 1769.32 2050.74 1766.38C2045.8 1763.41 2041.98 1759.24 2039.28 1753.88C2036.61 1748.48 2035.28 1742.17 2035.28 1734.92C2035.28 1727.77 2036.61 1721.47 2039.28 1716.02C2041.98 1710.56 2045.74 1706.3 2050.55 1703.24C2055.4 1700.18 2061.07 1698.65 2067.55 1698.65C2071.49 1698.65 2075.31 1699.3 2079.01 1700.61C2082.71 1701.91 2086.02 1703.95 2088.96 1706.74C2091.9 1709.53 2094.22 1713.15 2095.92 1717.61C2097.61 1722.03 2098.46 1727.41 2098.46 1733.74V1738.56H2042.96V1728.38H2085.14C2085.14 1724.8 2084.42 1721.64 2082.96 1718.88C2081.51 1716.09 2079.46 1713.89 2076.83 1712.29C2074.22 1710.68 2071.16 1709.88 2067.64 1709.88C2063.83 1709.88 2060.49 1710.82 2057.64 1712.7C2054.83 1714.55 2052.64 1716.97 2051.1 1719.97C2049.58 1722.94 2048.83 1726.17 2048.83 1729.65V1737.61C2048.83 1742.27 2049.64 1746.24 2051.28 1749.52C2052.95 1752.79 2055.27 1755.29 2058.24 1757.02C2061.21 1758.71 2064.68 1759.56 2068.64 1759.56C2071.22 1759.56 2073.57 1759.2 2075.69 1758.47C2077.81 1757.71 2079.64 1756.59 2081.19 1755.11C2082.74 1753.62 2083.92 1751.79 2084.74 1749.61L2097.6 1751.92C2096.57 1755.71 2094.72 1759.03 2092.05 1761.88C2089.42 1764.7 2086.1 1766.89 2082.1 1768.47C2078.13 1770.02 2073.6 1770.79 2068.51 1770.79ZM1537.92 1924.38V1854.56H1551.05V1865.65H1551.78C1553.05 1861.89 1555.3 1858.94 1558.51 1856.79C1561.75 1854.61 1565.42 1853.52 1569.51 1853.52C1570.36 1853.52 1571.36 1853.55 1572.51 1853.61C1573.69 1853.67 1574.61 1853.74 1575.28 1853.83V1866.83C1574.74 1866.68 1573.77 1866.52 1572.37 1866.33C1570.98 1866.12 1569.58 1866.02 1568.19 1866.02C1564.98 1866.02 1562.11 1866.7 1559.6 1868.06C1557.11 1869.39 1555.14 1871.26 1553.69 1873.65C1552.24 1876.02 1551.51 1878.71 1551.51 1881.74V1924.38H1537.92ZM1614.63 1925.79C1607.75 1925.79 1601.83 1924.32 1596.86 1921.38C1591.92 1918.41 1588.1 1914.24 1585.41 1908.88C1582.74 1903.48 1581.41 1897.17 1581.41 1889.92C1581.41 1882.77 1582.74 1876.47 1585.41 1871.02C1588.1 1865.56 1591.86 1861.3 1596.68 1858.24C1601.53 1855.18 1607.19 1853.65 1613.68 1853.65C1617.62 1853.65 1621.44 1854.3 1625.13 1855.61C1628.83 1856.91 1632.15 1858.95 1635.09 1861.74C1638.03 1864.53 1640.35 1868.15 1642.04 1872.61C1643.74 1877.03 1644.59 1882.41 1644.59 1888.74V1893.56H1589.09V1883.38H1631.27C1631.27 1879.8 1630.54 1876.64 1629.09 1873.88C1627.63 1871.09 1625.59 1868.89 1622.95 1867.29C1620.35 1865.68 1617.29 1864.88 1613.77 1864.88C1609.95 1864.88 1606.62 1865.82 1603.77 1867.7C1600.95 1869.55 1598.77 1871.97 1597.22 1874.97C1595.71 1877.94 1594.95 1881.17 1594.95 1884.65V1892.61C1594.95 1897.27 1595.77 1901.24 1597.41 1904.52C1599.07 1907.79 1601.39 1910.29 1604.36 1912.02C1607.33 1913.71 1610.8 1914.56 1614.77 1914.56C1617.35 1914.56 1619.69 1914.2 1621.82 1913.47C1623.94 1912.71 1625.77 1911.59 1627.32 1910.11C1628.86 1908.62 1630.04 1906.79 1630.86 1904.61L1643.72 1906.92C1642.69 1910.71 1640.85 1914.03 1638.18 1916.88C1635.54 1919.7 1632.22 1921.89 1628.22 1923.47C1624.25 1925.02 1619.72 1925.79 1614.63 1925.79ZM1711.99 1871.61L1699.67 1873.79C1699.15 1872.21 1698.33 1870.71 1697.21 1869.29C1696.12 1867.86 1694.64 1866.7 1692.76 1865.79C1690.88 1864.88 1688.53 1864.42 1685.71 1864.42C1681.86 1864.42 1678.65 1865.29 1676.08 1867.02C1673.5 1868.71 1672.21 1870.91 1672.21 1873.61C1672.21 1875.94 1673.08 1877.82 1674.8 1879.24C1676.53 1880.67 1679.32 1881.83 1683.17 1882.74L1694.26 1885.29C1700.68 1886.77 1705.47 1889.06 1708.62 1892.15C1711.77 1895.24 1713.35 1899.26 1713.35 1904.2C1713.35 1908.38 1712.14 1912.11 1709.71 1915.38C1707.32 1918.62 1703.97 1921.17 1699.67 1923.02C1695.39 1924.86 1690.44 1925.79 1684.8 1925.79C1676.99 1925.79 1670.61 1924.12 1665.67 1920.79C1660.73 1917.42 1657.7 1912.65 1656.58 1906.47L1669.71 1904.47C1670.53 1907.89 1672.21 1910.48 1674.76 1912.24C1677.3 1913.97 1680.62 1914.83 1684.71 1914.83C1689.17 1914.83 1692.73 1913.91 1695.39 1912.06C1698.06 1910.18 1699.39 1907.89 1699.39 1905.2C1699.39 1903.02 1698.58 1901.18 1696.94 1899.7C1695.33 1898.21 1692.86 1897.09 1689.53 1896.33L1677.71 1893.74C1671.2 1892.26 1666.38 1889.89 1663.26 1886.65C1660.17 1883.41 1658.62 1879.3 1658.62 1874.33C1658.62 1870.21 1659.77 1866.61 1662.08 1863.52C1664.38 1860.42 1667.56 1858.02 1671.62 1856.29C1675.68 1854.53 1680.33 1853.65 1685.58 1853.65C1693.12 1853.65 1699.06 1855.29 1703.39 1858.56C1707.73 1861.8 1710.59 1866.15 1711.99 1871.61ZM1757.7 1925.79C1751.16 1925.79 1745.44 1924.29 1740.57 1921.29C1735.69 1918.29 1731.9 1914.09 1729.2 1908.7C1726.5 1903.3 1725.16 1897 1725.16 1889.79C1725.16 1882.55 1726.5 1876.21 1729.2 1870.79C1731.9 1865.36 1735.69 1861.15 1740.57 1858.15C1745.44 1855.15 1751.16 1853.65 1757.7 1853.65C1764.25 1853.65 1769.96 1855.15 1774.84 1858.15C1779.72 1861.15 1783.5 1865.36 1786.2 1870.79C1788.9 1876.21 1790.25 1882.55 1790.25 1889.79C1790.25 1897 1788.9 1903.3 1786.2 1908.7C1783.5 1914.09 1779.72 1918.29 1774.84 1921.29C1769.96 1924.29 1764.25 1925.79 1757.7 1925.79ZM1757.75 1914.38C1761.99 1914.38 1765.5 1913.26 1768.29 1911.02C1771.08 1908.77 1773.14 1905.79 1774.47 1902.06C1775.84 1898.33 1776.52 1894.23 1776.52 1889.74C1776.52 1885.29 1775.84 1881.2 1774.47 1877.47C1773.14 1873.71 1771.08 1870.7 1768.29 1868.42C1765.5 1866.15 1761.99 1865.02 1757.75 1865.02C1753.47 1865.02 1749.93 1866.15 1747.11 1868.42C1744.32 1870.7 1742.25 1873.71 1740.88 1877.47C1739.55 1881.2 1738.88 1885.29 1738.88 1889.74C1738.88 1894.23 1739.55 1898.33 1740.88 1902.06C1742.25 1905.79 1744.32 1908.77 1747.11 1911.02C1749.93 1913.26 1753.47 1914.38 1757.75 1914.38ZM1849.64 1895.42V1854.56H1863.28V1924.38H1849.92V1912.29H1849.19C1847.58 1916.02 1845.01 1919.12 1841.46 1921.61C1837.95 1924.06 1833.57 1925.29 1828.33 1925.29C1823.84 1925.29 1819.87 1924.3 1816.42 1922.33C1812.99 1920.33 1810.3 1917.38 1808.33 1913.47C1806.39 1909.56 1805.42 1904.73 1805.42 1898.97V1854.56H1819.01V1897.33C1819.01 1902.09 1820.33 1905.88 1822.96 1908.7C1825.6 1911.52 1829.02 1912.92 1833.24 1912.92C1835.78 1912.92 1838.31 1912.29 1840.83 1911.02C1843.37 1909.74 1845.48 1907.82 1847.14 1905.24C1848.84 1902.67 1849.68 1899.39 1849.64 1895.42ZM1881.54 1924.38V1854.56H1894.68V1865.65H1895.41C1896.68 1861.89 1898.92 1858.94 1902.13 1856.79C1905.38 1854.61 1909.04 1853.52 1913.13 1853.52C1913.98 1853.52 1914.98 1853.55 1916.13 1853.61C1917.32 1853.67 1918.24 1853.74 1918.91 1853.83V1866.83C1918.36 1866.68 1917.39 1866.52 1916 1866.33C1914.6 1866.12 1913.21 1866.02 1911.82 1866.02C1908.6 1866.02 1905.74 1866.7 1903.22 1868.06C1900.74 1869.39 1898.77 1871.26 1897.32 1873.65C1895.86 1876.02 1895.13 1878.71 1895.13 1881.74V1924.38H1881.54ZM1957.58 1925.79C1950.82 1925.79 1945 1924.26 1940.12 1921.2C1935.27 1918.11 1931.55 1913.85 1928.94 1908.42C1926.33 1903 1925.03 1896.79 1925.03 1889.79C1925.03 1882.7 1926.36 1876.44 1929.03 1871.02C1931.7 1865.56 1935.46 1861.3 1940.3 1858.24C1945.15 1855.18 1950.86 1853.65 1957.44 1853.65C1962.74 1853.65 1967.47 1854.64 1971.62 1856.61C1975.77 1858.55 1979.12 1861.27 1981.67 1864.79C1984.24 1868.3 1985.77 1872.41 1986.26 1877.11H1973.03C1972.3 1873.83 1970.64 1871.02 1968.03 1868.65C1965.46 1866.29 1962 1865.11 1957.67 1865.11C1953.88 1865.11 1950.56 1866.11 1947.71 1868.11C1944.89 1870.08 1942.7 1872.89 1941.12 1876.56C1939.55 1880.2 1938.76 1884.5 1938.76 1889.47C1938.76 1894.56 1939.53 1898.95 1941.08 1902.65C1942.62 1906.35 1944.8 1909.21 1947.62 1911.24C1950.47 1913.27 1953.82 1914.29 1957.67 1914.29C1960.24 1914.29 1962.58 1913.82 1964.67 1912.88C1966.79 1911.91 1968.56 1910.53 1969.99 1908.74C1971.44 1906.95 1972.46 1904.8 1973.03 1902.29H1986.26C1985.77 1906.8 1984.3 1910.83 1981.85 1914.38C1979.39 1917.92 1976.11 1920.71 1971.99 1922.74C1967.89 1924.77 1963.09 1925.79 1957.58 1925.79ZM2030.88 1925.79C2024 1925.79 2018.08 1924.32 2013.11 1921.38C2008.17 1918.41 2004.35 1914.24 2001.66 1908.88C1998.99 1903.48 1997.66 1897.17 1997.66 1889.92C1997.66 1882.77 1998.99 1876.47 2001.66 1871.02C2004.35 1865.56 2008.11 1861.3 2012.93 1858.24C2017.78 1855.18 2023.44 1853.65 2029.93 1853.65C2033.87 1853.65 2037.69 1854.3 2041.38 1855.61C2045.08 1856.91 2048.4 1858.95 2051.34 1861.74C2054.28 1864.53 2056.6 1868.15 2058.29 1872.61C2059.99 1877.03 2060.84 1882.41 2060.84 1888.74V1893.56H2005.34V1883.38H2047.52C2047.52 1879.8 2046.79 1876.64 2045.34 1873.88C2043.88 1871.09 2041.84 1868.89 2039.2 1867.29C2036.6 1865.68 2033.54 1864.88 2030.02 1864.88C2026.2 1864.88 2022.87 1865.82 2020.02 1867.7C2017.2 1869.55 2015.02 1871.97 2013.47 1874.97C2011.96 1877.94 2011.2 1881.17 2011.2 1884.65V1892.61C2011.2 1897.27 2012.02 1901.24 2013.66 1904.52C2015.32 1907.79 2017.64 1910.29 2020.61 1912.02C2023.58 1913.71 2027.05 1914.56 2031.02 1914.56C2033.6 1914.56 2035.94 1914.2 2038.07 1913.47C2040.19 1912.71 2042.02 1911.59 2043.57 1910.11C2045.11 1908.62 2046.29 1906.79 2047.11 1904.61L2059.97 1906.92C2058.94 1910.71 2057.1 1914.03 2054.43 1916.88C2051.79 1919.7 2048.47 1921.89 2044.47 1923.47C2040.5 1925.02 2035.97 1925.79 2030.88 1925.79Z" fill="white"/>
<rect x="4" y="795" width="1395" height="1401" fill="#E6E6E6" stroke="black" stroke-width="10"/>
<path d="M348.421 1771.97L348.493 1678.88L381.674 1678.88C388.917 1678.88 394.916 1680.2 399.671 1682.84C404.427 1685.47 407.985 1689.08 410.345 1693.66C412.705 1698.2 413.883 1703.32 413.878 1709.02C413.874 1714.75 412.673 1719.9 410.276 1724.47C407.908 1729.02 404.33 1732.63 399.54 1735.29C394.78 1737.93 388.794 1739.25 381.582 1739.25L358.764 1739.25L358.773 1727.34L380.319 1727.34C384.895 1727.34 388.607 1726.55 391.457 1724.97C394.307 1723.37 396.399 1721.19 397.735 1718.43C399.07 1715.67 399.739 1712.53 399.742 1709.02C399.745 1705.5 399.08 1702.38 397.749 1699.66C396.418 1696.93 394.314 1694.79 391.436 1693.25C388.589 1691.7 384.832 1690.93 380.165 1690.93L362.529 1690.93L362.466 1771.97L348.421 1771.97ZM457.738 1773.38C451.192 1773.38 445.481 1771.88 440.605 1768.88C435.728 1765.88 431.944 1761.69 429.251 1756.29C426.558 1750.9 425.215 1744.59 425.22 1737.38C425.226 1730.14 426.579 1723.81 429.28 1718.38C431.981 1712.96 435.773 1708.75 440.654 1705.75C445.535 1702.75 451.248 1701.25 457.793 1701.25C464.339 1701.25 470.05 1702.75 474.926 1705.75C479.803 1708.75 483.587 1712.96 486.28 1718.38C488.973 1723.81 490.317 1730.14 490.311 1737.38C490.305 1744.59 488.952 1750.9 486.251 1756.29C483.55 1761.69 479.759 1765.88 474.878 1768.88C469.997 1771.88 464.283 1773.38 457.738 1773.38ZM457.792 1761.97C462.034 1761.97 465.551 1760.85 468.34 1758.61C471.13 1756.37 473.193 1753.38 474.529 1749.66C475.895 1745.93 476.58 1741.82 476.584 1737.34C476.587 1732.88 475.909 1728.79 474.548 1725.06C473.217 1721.31 471.159 1718.29 468.373 1716.02C465.587 1713.75 462.073 1712.61 457.83 1712.61C453.557 1712.61 450.011 1713.75 447.191 1716.02C444.402 1718.29 442.323 1721.31 440.957 1725.06C439.621 1728.79 438.951 1732.88 438.947 1737.34C438.944 1741.82 439.607 1745.93 440.938 1749.66C442.299 1753.38 444.372 1756.37 447.158 1758.61C449.975 1760.85 453.519 1761.97 457.792 1761.97ZM538.1 1702.16L538.091 1713.06L499.955 1713.06L499.963 1702.16L538.1 1702.16ZM510.203 1685.43L523.794 1685.43L523.743 1751.47C523.741 1754.11 524.134 1756.09 524.921 1757.43C525.707 1758.73 526.722 1759.63 527.964 1760.11C529.236 1760.56 530.615 1760.79 532.1 1760.79C533.191 1760.79 534.145 1760.72 534.964 1760.56C535.782 1760.41 536.418 1760.29 536.873 1760.2L539.319 1771.43C538.531 1771.73 537.409 1772.03 535.955 1772.34C534.5 1772.67 532.681 1772.85 530.5 1772.88C526.924 1772.94 523.591 1772.31 520.501 1770.97C517.411 1769.64 514.913 1767.58 513.006 1764.79C511.099 1762 510.147 1758.5 510.15 1754.29L510.203 1685.43ZM582.42 1773.38C575.541 1773.38 569.618 1771.91 564.65 1768.97C559.713 1766 555.898 1761.84 553.205 1756.47C550.543 1751.08 549.214 1744.76 549.22 1737.52C549.226 1730.37 550.564 1724.06 553.235 1718.61C555.936 1713.16 559.697 1708.9 564.517 1705.84C569.368 1702.78 575.036 1701.25 581.521 1701.25C585.46 1701.25 589.278 1701.9 592.974 1703.2C596.67 1704.5 599.986 1706.55 602.924 1709.34C605.861 1712.13 608.176 1715.75 609.87 1720.2C611.563 1724.63 612.408 1730 612.403 1736.34L612.399 1741.16L556.899 1741.16L556.907 1730.97L599.089 1730.97C599.091 1727.4 598.367 1724.23 596.914 1721.47C595.462 1718.69 593.418 1716.49 590.783 1714.88C588.178 1713.28 585.118 1712.47 581.603 1712.47C577.785 1712.47 574.451 1713.41 571.601 1715.29C568.781 1717.14 566.597 1719.56 565.05 1722.56C563.532 1725.53 562.772 1728.76 562.77 1732.25L562.763 1740.2C562.76 1744.87 563.575 1748.84 565.209 1752.11C566.873 1755.38 569.189 1757.88 572.158 1759.61C575.126 1761.31 578.595 1762.16 582.565 1762.16C585.14 1762.16 587.489 1761.79 589.611 1761.06C591.733 1760.31 593.567 1759.19 595.114 1757.7C596.66 1756.22 597.843 1754.38 598.663 1752.2L611.525 1754.52C610.492 1758.31 608.641 1761.63 605.972 1764.47C603.333 1767.29 600.014 1769.49 596.012 1771.06C592.041 1772.61 587.511 1773.38 582.42 1773.38ZM641.078 1730.52L641.046 1771.97L627.455 1771.97L627.509 1702.16L640.554 1702.16L640.545 1713.52L641.409 1713.52C643.018 1709.82 645.535 1706.85 648.961 1704.61C652.418 1702.37 656.767 1701.25 662.009 1701.25C666.767 1701.25 670.933 1702.25 674.507 1704.25C678.081 1706.22 680.852 1709.16 682.818 1713.06C684.785 1716.97 685.766 1721.81 685.762 1727.56L685.728 1771.97L672.137 1771.97L672.17 1729.2C672.174 1724.14 670.858 1720.19 668.224 1717.34C665.59 1714.46 661.97 1713.02 657.364 1713.02C654.212 1713.02 651.409 1713.7 648.953 1715.06C646.528 1716.43 644.602 1718.43 643.176 1721.06C641.78 1723.67 641.081 1726.82 641.078 1730.52ZM736.6 1702.16L736.591 1713.06L698.455 1713.06L698.463 1702.16L736.6 1702.16ZM708.703 1685.43L722.294 1685.43L722.243 1751.47C722.241 1754.11 722.634 1756.09 723.421 1757.43C724.207 1758.73 725.222 1759.63 726.464 1760.11C727.736 1760.56 729.115 1760.79 730.6 1760.79C731.691 1760.79 732.645 1760.72 733.464 1760.56C734.282 1760.41 734.918 1760.29 735.373 1760.2L737.819 1771.43C737.031 1771.73 735.909 1772.03 734.455 1772.34C733 1772.67 731.181 1772.85 729 1772.88C725.424 1772.94 722.091 1772.31 719.001 1770.97C715.911 1769.64 713.413 1767.58 711.506 1764.79C709.599 1762 708.647 1758.5 708.65 1754.29L708.703 1685.43ZM751.58 1771.97L751.634 1702.16L765.225 1702.16L765.171 1771.97L751.58 1771.97ZM758.506 1691.38C756.142 1691.38 754.112 1690.59 752.417 1689.02C750.751 1687.41 749.919 1685.5 749.921 1683.29C749.923 1681.05 750.757 1679.14 752.425 1677.56C754.124 1675.96 756.154 1675.16 758.518 1675.16C760.882 1675.16 762.896 1675.96 764.562 1677.56C766.257 1679.14 767.104 1681.05 767.103 1683.29C767.101 1685.5 766.251 1687.41 764.553 1689.02C762.885 1690.59 760.869 1691.38 758.506 1691.38ZM803.772 1773.52C799.348 1773.52 795.348 1772.7 791.774 1771.06C788.199 1769.4 785.368 1766.99 783.279 1763.84C781.221 1760.69 780.194 1756.82 780.197 1752.25C780.2 1748.31 780.96 1745.06 782.478 1742.52C783.995 1739.97 786.042 1737.96 788.619 1736.47C791.195 1734.99 794.075 1733.87 797.258 1733.11C800.44 1732.35 803.683 1731.78 806.986 1731.38C811.168 1730.9 814.563 1730.5 817.169 1730.2C819.775 1729.87 821.67 1729.34 822.852 1728.61C824.034 1727.88 824.626 1726.7 824.627 1725.06L824.628 1724.75C824.631 1720.78 823.512 1717.7 821.271 1715.52C819.061 1713.34 815.758 1712.25 811.364 1712.25C806.789 1712.25 803.182 1713.26 800.544 1715.29C797.936 1717.29 796.132 1719.52 795.13 1721.97L782.359 1719.06C783.878 1714.82 786.092 1711.4 789.004 1708.79C791.945 1706.16 795.325 1704.25 799.144 1703.06C802.963 1701.85 806.979 1701.25 811.191 1701.25C813.979 1701.25 816.933 1701.58 820.054 1702.25C823.205 1702.88 826.144 1704.06 828.869 1705.79C831.626 1707.52 833.881 1709.99 835.636 1713.2C837.392 1716.38 838.267 1720.52 838.263 1725.61L838.228 1771.97L824.955 1771.97L824.962 1762.43L824.417 1762.43C823.537 1764.19 822.217 1765.91 820.458 1767.61C818.699 1769.31 816.441 1770.72 813.682 1771.84C810.924 1772.96 807.62 1773.52 803.772 1773.52ZM806.735 1762.61C810.492 1762.61 813.705 1761.87 816.373 1760.38C819.071 1758.9 821.118 1756.96 822.514 1754.56C823.94 1752.14 824.654 1749.55 824.656 1746.79L824.663 1737.79C824.178 1738.28 823.238 1738.73 821.844 1739.16C820.48 1739.55 818.919 1739.9 817.161 1740.2C815.403 1740.47 813.691 1740.73 812.024 1740.97C810.357 1741.19 808.963 1741.37 807.842 1741.52C805.205 1741.85 802.796 1742.41 800.613 1743.2C798.461 1743.99 796.733 1745.13 795.429 1746.61C794.155 1748.06 793.517 1750 793.515 1752.43C793.513 1755.79 794.753 1758.34 797.237 1760.06C799.72 1761.76 802.886 1762.61 806.735 1762.61ZM869.993 1678.88L869.921 1771.97L856.33 1771.97L856.402 1678.88L869.993 1678.88ZM888.205 1771.97L888.259 1702.16L901.85 1702.16L901.796 1771.97L888.205 1771.97ZM895.131 1691.38C892.767 1691.38 890.737 1690.59 889.042 1689.02C887.376 1687.41 886.544 1685.5 886.546 1683.29C886.548 1681.05 887.382 1679.14 889.05 1677.56C890.749 1675.96 892.779 1675.16 895.143 1675.16C897.507 1675.16 899.521 1675.96 901.187 1677.56C902.882 1679.14 903.729 1681.05 903.728 1683.29C903.726 1685.5 902.876 1687.41 901.178 1689.02C899.51 1690.59 897.494 1691.38 895.131 1691.38ZM952.725 1702.16L952.716 1713.06L914.58 1713.06L914.588 1702.16L952.725 1702.16ZM924.828 1685.43L938.419 1685.43L938.368 1751.47C938.366 1754.11 938.759 1756.09 939.546 1757.43C940.332 1758.73 941.347 1759.63 942.589 1760.11C943.861 1760.56 945.24 1760.79 946.725 1760.79C947.816 1760.79 948.77 1760.72 949.589 1760.56C950.407 1760.41 951.043 1760.29 951.498 1760.2L953.944 1771.43C953.156 1771.73 952.034 1772.03 950.58 1772.34C949.125 1772.67 947.306 1772.85 945.125 1772.88C941.549 1772.94 938.216 1772.31 935.126 1770.97C932.036 1769.64 929.538 1767.58 927.631 1764.79C925.724 1762 924.772 1758.5 924.775 1754.29L924.828 1685.43ZM997.045 1773.38C990.166 1773.38 984.243 1771.91 979.275 1768.97C974.338 1766 970.523 1761.84 967.83 1756.47C965.168 1751.08 963.839 1744.76 963.845 1737.52C963.851 1730.37 965.189 1724.06 967.86 1718.61C970.561 1713.16 974.322 1708.9 979.142 1705.84C983.993 1702.78 989.661 1701.25 996.146 1701.25C1000.09 1701.25 1003.9 1701.9 1007.6 1703.2C1011.29 1704.5 1014.61 1706.55 1017.55 1709.34C1020.49 1712.13 1022.8 1715.75 1024.49 1720.2C1026.19 1724.63 1027.03 1730 1027.03 1736.34L1027.02 1741.16L971.524 1741.16L971.532 1730.97L1013.71 1730.97C1013.72 1727.4 1012.99 1724.23 1011.54 1721.47C1010.09 1718.69 1008.04 1716.49 1005.41 1714.88C1002.8 1713.28 999.743 1712.47 996.228 1712.47C992.41 1712.47 989.076 1713.41 986.226 1715.29C983.406 1717.14 981.222 1719.56 979.675 1722.56C978.157 1725.53 977.397 1728.76 977.395 1732.25L977.388 1740.2C977.385 1744.87 978.2 1748.84 979.834 1752.11C981.498 1755.38 983.814 1757.88 986.783 1759.61C989.751 1761.31 993.22 1762.16 997.19 1762.16C999.765 1762.16 1002.11 1761.79 1004.24 1761.06C1006.36 1760.31 1008.19 1759.19 1009.74 1757.7C1011.29 1756.22 1012.47 1754.38 1013.29 1752.2L1026.15 1754.52C1025.12 1758.31 1023.27 1761.63 1020.6 1764.47C1017.96 1767.29 1014.64 1769.49 1010.64 1771.06C1006.67 1772.61 1002.14 1773.38 997.045 1773.38ZM990.016 1692.84L1000.67 1671.88L1014.99 1671.88L1000.88 1692.84L990.016 1692.84ZM482.835 1926.97L482.889 1857.16L495.935 1857.16L495.926 1868.52L496.789 1868.52C498.247 1864.67 500.628 1861.67 503.933 1859.52C507.237 1857.34 511.193 1856.25 515.799 1856.25C520.466 1856.25 524.374 1857.34 527.524 1859.52C530.704 1861.7 533.05 1864.7 534.562 1868.52L535.289 1868.52C536.959 1864.79 539.613 1861.82 543.251 1859.61C546.889 1857.37 551.223 1856.25 556.253 1856.25C562.587 1856.25 567.752 1858.23 571.749 1862.2C575.776 1866.17 577.787 1872.16 577.78 1880.16L577.744 1926.97L564.153 1926.97L564.189 1881.43C564.192 1876.7 562.907 1873.28 560.333 1871.16C557.759 1869.03 554.684 1867.97 551.108 1867.97C546.684 1867.97 543.243 1869.34 540.787 1872.06C538.33 1874.76 537.1 1878.23 537.097 1882.47L537.063 1926.97L523.517 1926.97L523.553 1880.56C523.556 1876.78 522.376 1873.73 520.014 1871.43C517.653 1869.13 514.578 1867.97 510.79 1867.97C508.214 1867.97 505.835 1868.66 503.652 1870.02C501.499 1871.35 499.756 1873.22 498.42 1875.61C497.115 1878 496.462 1880.78 496.459 1883.93L496.426 1926.97L482.835 1926.97ZM616.277 1928.52C611.853 1928.52 607.854 1927.7 604.279 1926.06C600.705 1924.4 597.873 1921.99 595.785 1918.84C593.727 1915.69 592.699 1911.82 592.703 1907.25C592.706 1903.31 593.466 1900.06 594.983 1897.52C596.5 1894.97 598.547 1892.96 601.124 1891.47C603.701 1889.99 606.581 1888.87 609.763 1888.11C612.945 1887.35 616.188 1886.78 619.492 1886.38C623.674 1885.9 627.068 1885.5 629.674 1885.2C632.281 1884.87 634.175 1884.34 635.357 1883.61C636.54 1882.88 637.132 1881.7 637.133 1880.06L637.133 1879.75C637.136 1875.78 636.017 1872.7 633.777 1870.52C631.566 1868.34 628.264 1867.25 623.87 1867.25C619.294 1867.25 615.687 1868.26 613.049 1870.29C610.442 1872.29 608.637 1874.52 607.635 1876.97L594.865 1874.06C596.383 1869.82 598.598 1866.4 601.509 1863.79C604.45 1861.16 607.831 1859.25 611.65 1858.06C615.469 1856.85 619.485 1856.25 623.697 1856.25C626.485 1856.25 629.439 1856.58 632.56 1857.25C635.711 1857.88 638.649 1859.06 641.375 1860.79C644.131 1862.52 646.387 1864.99 648.142 1868.2C649.897 1871.38 650.773 1875.52 650.769 1880.61L650.733 1926.97L637.46 1926.97L637.468 1917.43L636.922 1917.43C636.042 1919.19 634.723 1920.91 632.964 1922.61C631.205 1924.31 628.946 1925.72 626.188 1926.84C623.429 1927.96 620.126 1928.52 616.277 1928.52ZM619.24 1917.61C622.998 1917.61 626.21 1916.87 628.878 1915.38C631.576 1913.9 633.623 1911.96 635.019 1909.56C636.445 1907.14 637.159 1904.55 637.162 1901.79L637.168 1892.79C636.683 1893.28 635.743 1893.73 634.349 1894.16C632.985 1894.55 631.424 1894.9 629.667 1895.2C627.909 1895.47 626.196 1895.73 624.53 1895.97C622.863 1896.19 621.469 1896.37 620.347 1896.52C617.711 1896.85 615.301 1897.41 613.119 1898.2C610.967 1898.99 609.239 1900.13 607.934 1901.61C606.661 1903.06 606.023 1905 606.021 1907.43C606.018 1910.79 607.259 1913.34 609.742 1915.06C612.226 1916.76 615.392 1917.61 619.24 1917.61ZM668.835 1926.97L668.889 1857.16L682.025 1857.16L682.017 1868.25L682.744 1868.25C684.02 1864.49 686.265 1861.53 689.478 1859.38C692.722 1857.2 696.39 1856.11 700.481 1856.11C701.329 1856.11 702.329 1856.14 703.481 1856.2C704.663 1856.26 705.587 1856.34 706.253 1856.43L706.243 1869.43C705.698 1869.28 704.728 1869.11 703.335 1868.93C701.941 1868.72 700.547 1868.61 699.153 1868.61C695.941 1868.61 693.077 1869.29 690.561 1870.66C688.075 1871.99 686.104 1873.85 684.647 1876.25C683.191 1878.61 682.461 1881.31 682.459 1884.34L682.426 1926.97L668.835 1926.97ZM744.868 1928.38C738.111 1928.38 732.294 1926.85 727.417 1923.79C722.571 1920.7 718.847 1916.44 716.245 1911.02C713.643 1905.59 712.345 1899.38 712.351 1892.38C712.356 1885.29 713.694 1879.03 716.365 1873.61C719.036 1868.16 722.797 1863.9 727.648 1860.84C732.498 1857.78 738.212 1856.25 744.788 1856.25C750.091 1856.25 754.817 1857.23 758.967 1859.2C763.117 1861.14 766.463 1863.87 769.006 1867.38C771.579 1870.9 773.106 1875 773.588 1879.7L760.36 1879.7C759.636 1876.43 757.971 1873.61 755.367 1871.25C752.793 1868.88 749.339 1867.7 745.006 1867.7C741.218 1867.7 737.899 1868.7 735.049 1870.7C732.229 1872.67 730.03 1875.49 728.452 1879.16C726.873 1882.79 726.082 1887.09 726.078 1892.06C726.074 1897.16 726.844 1901.55 728.386 1905.25C729.929 1908.94 732.108 1911.81 734.925 1913.84C737.772 1915.87 741.12 1916.88 744.968 1916.88C747.544 1916.88 749.878 1916.41 751.969 1915.47C754.091 1914.5 755.865 1913.13 757.291 1911.34C758.746 1909.55 759.763 1907.4 760.341 1904.88L773.568 1904.88C773.08 1909.4 771.607 1913.43 769.15 1916.97C766.693 1920.52 763.403 1923.31 759.28 1925.34C755.187 1927.37 750.383 1928.38 744.868 1928.38ZM801.708 1885.52L801.676 1926.97L788.085 1926.97L788.157 1833.88L801.566 1833.88L801.539 1868.52L802.403 1868.52C804.042 1864.76 806.545 1861.78 809.91 1859.56C813.275 1857.35 817.67 1856.25 823.094 1856.25C827.882 1856.25 832.063 1857.23 835.638 1859.2C839.242 1861.17 842.028 1864.11 843.994 1868.02C845.991 1871.9 846.988 1876.75 846.983 1882.56L846.949 1926.97L833.358 1926.97L833.391 1884.2C833.395 1879.08 832.08 1875.11 829.446 1872.29C826.811 1869.44 823.146 1868.02 818.449 1868.02C815.237 1868.02 812.357 1868.7 809.811 1870.06C807.295 1871.43 805.308 1873.43 803.852 1876.06C802.426 1878.67 801.711 1881.82 801.708 1885.52ZM895.175 1928.38C888.296 1928.38 882.373 1926.91 877.406 1923.97C872.469 1921 868.654 1916.84 865.961 1911.47C863.298 1906.08 861.97 1899.76 861.975 1892.52C861.981 1885.37 863.319 1879.06 865.99 1873.61C868.691 1868.16 872.452 1863.9 877.273 1860.84C882.123 1857.78 887.791 1856.25 894.276 1856.25C898.216 1856.25 902.033 1856.9 905.729 1858.2C909.425 1859.5 912.742 1861.55 915.679 1864.34C918.616 1867.13 920.932 1870.75 922.625 1875.2C924.319 1879.63 925.163 1885 925.158 1891.34L925.155 1896.16L869.654 1896.16L869.662 1885.97L911.844 1885.97C911.847 1882.4 911.122 1879.23 909.67 1876.47C908.217 1873.69 906.174 1871.49 903.538 1869.88C900.934 1868.28 897.874 1867.47 894.358 1867.47C890.54 1867.47 887.206 1868.41 884.356 1870.29C881.537 1872.14 879.353 1874.56 877.805 1877.56C876.288 1880.53 875.528 1883.76 875.525 1887.25L875.519 1895.2C875.515 1899.87 876.33 1903.84 877.964 1907.11C879.628 1910.38 881.945 1912.88 884.913 1914.61C887.881 1916.31 891.35 1917.16 895.32 1917.16C897.896 1917.16 900.245 1916.79 902.366 1916.06C904.488 1915.31 906.322 1914.19 907.869 1912.7C909.416 1911.22 910.599 1909.38 911.419 1907.2L924.281 1909.52C923.247 1913.31 921.396 1916.63 918.727 1919.47C916.089 1922.29 912.769 1924.49 908.768 1926.06C904.797 1927.61 900.266 1928.38 895.175 1928.38ZM888.146 1847.84L898.799 1826.88L913.117 1826.88L899.01 1847.84L888.146 1847.84Z" fill="black"/>
<rect x="809" y="5" width="1389" height="1401" fill="#E6E6E6" stroke="black" stroke-width="10"/>
<rect x="808" y="795" width="592" height="611" fill="#22497B"/>
<rect x="808" y="795" width="592" height="611" stroke="black" stroke-width="10"/>
<path d="M875.239 1067.88V974.794H908.421C915.663 974.794 921.663 976.112 926.421 978.748C931.178 981.385 934.739 984.991 937.103 989.567C939.466 994.112 940.648 999.233 940.648 1004.93C940.648 1010.66 939.451 1015.81 937.057 1020.38C934.694 1024.93 931.118 1028.54 926.33 1031.2C921.572 1033.84 915.587 1035.16 908.375 1035.16H885.557V1023.25H907.103C911.678 1023.25 915.391 1022.46 918.239 1020.88C921.087 1019.28 923.178 1017.1 924.512 1014.34C925.845 1011.58 926.512 1008.45 926.512 1004.93C926.512 1001.42 925.845 998.294 924.512 995.567C923.178 992.839 921.072 990.703 918.194 989.157C915.345 987.612 911.587 986.839 906.921 986.839H889.284V1067.88H875.239ZM956.023 1067.88V998.067H969.159V1009.16H969.887C971.159 1005.4 973.402 1002.45 976.614 1000.29C979.856 998.112 983.523 997.021 987.614 997.021C988.462 997.021 989.462 997.051 990.614 997.112C991.796 997.173 992.72 997.248 993.387 997.339V1010.34C992.841 1010.19 991.872 1010.02 990.478 1009.84C989.084 1009.63 987.69 1009.52 986.296 1009.52C983.084 1009.52 980.22 1010.2 977.705 1011.57C975.22 1012.9 973.25 1014.76 971.796 1017.16C970.341 1019.52 969.614 1022.22 969.614 1025.25V1067.88H956.023ZM1032.06 1069.29C1025.51 1069.29 1019.8 1067.79 1014.92 1064.79C1010.04 1061.79 1006.25 1057.6 1003.56 1052.2C1000.86 1046.81 999.512 1040.51 999.512 1033.29C999.512 1026.05 1000.86 1019.72 1003.56 1014.29C1006.25 1008.87 1010.04 1004.66 1014.92 1001.66C1019.8 998.657 1025.51 997.157 1032.06 997.157C1038.6 997.157 1044.31 998.657 1049.19 1001.66C1054.07 1004.66 1057.86 1008.87 1060.56 1014.29C1063.25 1019.72 1064.6 1026.05 1064.6 1033.29C1064.6 1040.51 1063.25 1046.81 1060.56 1052.2C1057.86 1057.6 1054.07 1061.79 1049.19 1064.79C1044.31 1067.79 1038.6 1069.29 1032.06 1069.29ZM1032.1 1057.88C1036.35 1057.88 1039.86 1056.76 1042.65 1054.52C1045.44 1052.28 1047.5 1049.29 1048.83 1045.57C1050.19 1041.84 1050.88 1037.73 1050.88 1033.25C1050.88 1028.79 1050.19 1024.7 1048.83 1020.98C1047.5 1017.22 1045.44 1014.2 1042.65 1011.93C1039.86 1009.66 1036.35 1008.52 1032.1 1008.52C1027.83 1008.52 1024.28 1009.66 1021.47 1011.93C1018.68 1014.2 1016.6 1017.22 1015.24 1020.98C1013.91 1024.7 1013.24 1028.79 1013.24 1033.25C1013.24 1037.73 1013.91 1041.84 1015.24 1045.57C1016.6 1049.29 1018.68 1052.28 1021.47 1054.52C1024.28 1056.76 1027.83 1057.88 1032.1 1057.88ZM1105.91 1069.25C1100.27 1069.25 1095.24 1067.81 1090.82 1064.93C1086.42 1062.02 1082.97 1057.88 1080.45 1052.52C1077.97 1047.13 1076.73 1040.66 1076.73 1033.11C1076.73 1025.57 1077.99 1019.11 1080.5 1013.75C1083.05 1008.38 1086.53 1004.28 1090.95 1001.43C1095.38 998.582 1100.39 997.157 1106 997.157C1110.33 997.157 1113.82 997.885 1116.45 999.339C1119.12 1000.76 1121.18 1002.43 1122.64 1004.34C1124.12 1006.25 1125.27 1007.93 1126.09 1009.38H1126.91V974.794H1140.5V1067.88H1127.23V1057.02H1126.09C1125.27 1058.51 1124.09 1060.2 1122.55 1062.11C1121.03 1064.02 1118.94 1065.69 1116.27 1067.11C1113.61 1068.54 1110.15 1069.25 1105.91 1069.25ZM1108.91 1057.66C1112.82 1057.66 1116.12 1056.63 1118.82 1054.57C1121.55 1052.48 1123.61 1049.58 1125 1045.88C1126.42 1042.19 1127.14 1037.88 1127.14 1032.98C1127.14 1028.13 1126.44 1023.88 1125.05 1020.25C1123.65 1016.61 1121.61 1013.78 1118.91 1011.75C1116.21 1009.72 1112.88 1008.7 1108.91 1008.7C1104.82 1008.7 1101.41 1009.76 1098.68 1011.88C1095.95 1014.01 1093.89 1016.9 1092.5 1020.57C1091.14 1024.23 1090.45 1028.37 1090.45 1032.98C1090.45 1037.64 1091.15 1041.84 1092.55 1045.57C1093.94 1049.29 1096 1052.25 1098.73 1054.43C1101.49 1056.58 1104.88 1057.66 1108.91 1057.66ZM1204.13 1038.93V998.067H1217.76V1067.88H1204.4V1055.79H1203.67C1202.06 1059.52 1199.49 1062.63 1195.94 1065.11C1192.43 1067.57 1188.05 1068.79 1182.81 1068.79C1178.32 1068.79 1174.35 1067.81 1170.9 1065.84C1167.47 1063.84 1164.78 1060.88 1162.81 1056.98C1160.87 1053.07 1159.9 1048.23 1159.9 1042.48V998.067H1173.49V1040.84C1173.49 1045.6 1174.81 1049.38 1177.44 1052.2C1180.08 1055.02 1183.5 1056.43 1187.72 1056.43C1190.26 1056.43 1192.79 1055.79 1195.31 1054.52C1197.85 1053.25 1199.96 1051.32 1201.63 1048.75C1203.32 1046.17 1204.16 1042.9 1204.13 1038.93ZM1265.43 1069.29C1258.67 1069.29 1252.86 1067.76 1247.98 1064.7C1243.13 1061.61 1239.4 1057.35 1236.8 1051.93C1234.19 1046.51 1232.89 1040.29 1232.89 1033.29C1232.89 1026.2 1234.22 1019.95 1236.89 1014.52C1239.55 1009.07 1243.31 1004.81 1248.16 1001.75C1253.01 998.688 1258.72 997.157 1265.3 997.157C1270.6 997.157 1275.33 998.142 1279.48 1000.11C1283.63 1002.05 1286.98 1004.78 1289.52 1008.29C1292.1 1011.81 1293.63 1015.92 1294.11 1020.61H1280.89C1280.16 1017.34 1278.49 1014.52 1275.89 1012.16C1273.31 1009.79 1269.86 1008.61 1265.52 1008.61C1261.74 1008.61 1258.42 1009.61 1255.57 1011.61C1252.75 1013.58 1250.55 1016.4 1248.98 1020.07C1247.4 1023.7 1246.61 1028.01 1246.61 1032.98C1246.61 1038.07 1247.39 1042.46 1248.93 1046.16C1250.48 1049.85 1252.66 1052.72 1255.48 1054.75C1258.33 1056.78 1261.67 1057.79 1265.52 1057.79C1268.1 1057.79 1270.43 1057.32 1272.52 1056.38C1274.64 1055.42 1276.42 1054.04 1277.84 1052.25C1279.3 1050.46 1280.31 1048.31 1280.89 1045.79H1294.11C1293.63 1050.31 1292.16 1054.34 1289.7 1057.88C1287.25 1061.43 1283.96 1064.22 1279.84 1066.25C1275.75 1068.28 1270.95 1069.29 1265.43 1069.29ZM1341.24 998.067V1008.98H1303.1V998.067H1341.24ZM1313.33 981.339H1326.92V1047.38C1326.92 1050.02 1327.31 1052.01 1328.1 1053.34C1328.89 1054.64 1329.91 1055.54 1331.15 1056.02C1332.42 1056.48 1333.8 1056.7 1335.28 1056.7C1336.38 1056.7 1337.33 1056.63 1338.15 1056.48C1338.97 1056.32 1339.6 1056.2 1340.06 1056.11L1342.51 1067.34C1341.72 1067.64 1340.6 1067.95 1339.15 1068.25C1337.69 1068.58 1335.88 1068.76 1333.69 1068.79C1330.12 1068.85 1326.78 1068.22 1323.69 1066.88C1320.6 1065.55 1318.1 1063.49 1316.19 1060.7C1314.28 1057.92 1313.33 1054.42 1313.33 1050.2V981.339ZM1011.69 1153.07L986.37 1222.88H971.824L946.461 1153.07H961.051L978.733 1206.79H979.461L997.097 1153.07H1011.69ZM1042.78 1224.43C1038.35 1224.43 1034.35 1223.61 1030.78 1221.98C1027.2 1220.31 1024.37 1217.9 1022.28 1214.75C1020.22 1211.6 1019.19 1207.73 1019.19 1203.16C1019.19 1199.22 1019.95 1195.98 1021.46 1193.43C1022.98 1190.88 1025.02 1188.87 1027.6 1187.38C1030.17 1185.9 1033.05 1184.78 1036.23 1184.02C1039.42 1183.26 1042.66 1182.69 1045.96 1182.29C1050.14 1181.81 1053.54 1181.42 1056.14 1181.11C1058.75 1180.78 1060.64 1180.25 1061.82 1179.52C1063.01 1178.79 1063.6 1177.61 1063.6 1175.98V1175.66C1063.6 1171.69 1062.48 1168.61 1060.23 1166.43C1058.02 1164.25 1054.72 1163.16 1050.32 1163.16C1045.75 1163.16 1042.14 1164.17 1039.51 1166.2C1036.9 1168.2 1035.1 1170.43 1034.1 1172.88L1021.32 1169.98C1022.84 1165.73 1025.05 1162.31 1027.96 1159.7C1030.9 1157.07 1034.28 1155.16 1038.1 1153.98C1041.92 1152.76 1045.93 1152.16 1050.14 1152.16C1052.93 1152.16 1055.88 1152.49 1059.01 1153.16C1062.16 1153.79 1065.1 1154.98 1067.82 1156.7C1070.58 1158.43 1072.84 1160.9 1074.6 1164.11C1076.35 1167.29 1077.23 1171.43 1077.23 1176.52V1222.88H1063.96V1213.34H1063.42C1062.54 1215.1 1061.22 1216.82 1059.46 1218.52C1057.7 1220.22 1055.45 1221.63 1052.69 1222.75C1049.93 1223.87 1046.63 1224.43 1042.78 1224.43ZM1045.73 1213.52C1049.49 1213.52 1052.7 1212.78 1055.37 1211.29C1058.07 1209.81 1060.11 1207.87 1061.51 1205.48C1062.93 1203.05 1063.64 1200.46 1063.64 1197.7V1188.7C1063.16 1189.19 1062.22 1189.64 1060.82 1190.07C1059.46 1190.46 1057.9 1190.81 1056.14 1191.11C1054.38 1191.38 1052.67 1191.64 1051.01 1191.88C1049.34 1192.1 1047.95 1192.28 1046.82 1192.43C1044.19 1192.76 1041.78 1193.32 1039.6 1194.11C1037.45 1194.9 1035.72 1196.04 1034.42 1197.52C1033.14 1198.98 1032.51 1200.92 1032.51 1203.34C1032.51 1206.7 1033.75 1209.25 1036.23 1210.98C1038.72 1212.67 1041.88 1213.52 1045.73 1213.52ZM1108.93 1129.79V1222.88H1095.34V1129.79H1108.93ZM1171.44 1193.93V1153.07H1185.07V1222.88H1171.71V1210.79H1170.98C1169.38 1214.52 1166.8 1217.63 1163.26 1220.11C1159.74 1222.57 1155.36 1223.79 1150.12 1223.79C1145.63 1223.79 1141.67 1222.81 1138.21 1220.84C1134.79 1218.84 1132.09 1215.88 1130.12 1211.98C1128.18 1208.07 1127.21 1203.23 1127.21 1197.48V1153.07H1140.8V1195.84C1140.8 1200.6 1142.12 1204.38 1144.76 1207.2C1147.39 1210.02 1150.82 1211.43 1155.03 1211.43C1157.57 1211.43 1160.1 1210.79 1162.62 1209.52C1165.17 1208.25 1167.27 1206.32 1168.94 1203.75C1170.63 1201.17 1171.47 1197.9 1171.44 1193.93ZM1233.43 1224.29C1226.55 1224.29 1220.62 1222.82 1215.65 1219.88C1210.71 1216.92 1206.9 1212.75 1204.2 1207.38C1201.53 1201.99 1200.2 1195.67 1200.2 1188.43C1200.2 1181.28 1201.53 1174.98 1204.2 1169.52C1206.9 1164.07 1210.65 1159.81 1215.47 1156.75C1220.32 1153.69 1225.99 1152.16 1232.47 1152.16C1236.41 1152.16 1240.23 1152.81 1243.93 1154.11C1247.62 1155.42 1250.94 1157.46 1253.88 1160.25C1256.82 1163.04 1259.14 1166.66 1260.84 1171.11C1262.53 1175.54 1263.38 1180.92 1263.38 1187.25V1192.07H1207.88V1181.88H1250.06C1250.06 1178.31 1249.34 1175.14 1247.88 1172.38C1246.43 1169.6 1244.38 1167.4 1241.74 1165.79C1239.14 1164.19 1236.08 1163.38 1232.56 1163.38C1228.74 1163.38 1225.41 1164.32 1222.56 1166.2C1219.74 1168.05 1217.56 1170.48 1216.02 1173.48C1214.5 1176.45 1213.74 1179.67 1213.74 1183.16V1191.11C1213.74 1195.78 1214.56 1199.75 1216.2 1203.02C1217.87 1206.29 1220.18 1208.79 1223.15 1210.52C1226.12 1212.22 1229.59 1213.07 1233.56 1213.07C1236.14 1213.07 1238.49 1212.7 1240.61 1211.98C1242.73 1211.22 1244.56 1210.1 1246.11 1208.61C1247.65 1207.13 1248.84 1205.29 1249.65 1203.11L1262.52 1205.43C1261.49 1209.22 1259.64 1212.54 1256.97 1215.38C1254.34 1218.2 1251.02 1220.4 1247.02 1221.98C1243.05 1223.52 1238.52 1224.29 1233.43 1224.29Z" fill="white"/>
<path d="M1146.41 382V288.909H1179.6C1186.84 288.909 1192.84 290.227 1197.6 292.864C1202.35 295.5 1205.91 299.106 1208.28 303.682C1210.64 308.227 1211.82 313.348 1211.82 319.045C1211.82 324.773 1210.63 329.924 1208.23 334.5C1205.87 339.045 1202.29 342.652 1197.51 345.318C1192.75 347.955 1186.76 349.273 1179.55 349.273H1156.73V337.364H1178.28C1182.85 337.364 1186.57 336.576 1189.41 335C1192.26 333.394 1194.35 331.212 1195.69 328.455C1197.02 325.697 1197.69 322.561 1197.69 319.045C1197.69 315.53 1197.02 312.409 1195.69 309.682C1194.35 306.955 1192.25 304.818 1189.37 303.273C1186.52 301.727 1182.76 300.955 1178.1 300.955H1160.46V382H1146.41ZM1255.73 383.409C1249.19 383.409 1243.48 381.909 1238.6 378.909C1233.72 375.909 1229.93 371.712 1227.23 366.318C1224.54 360.924 1223.19 354.621 1223.19 347.409C1223.19 340.167 1224.54 333.833 1227.23 328.409C1229.93 322.985 1233.72 318.773 1238.6 315.773C1243.48 312.773 1249.19 311.273 1255.73 311.273C1262.28 311.273 1267.99 312.773 1272.87 315.773C1277.75 318.773 1281.54 322.985 1284.23 328.409C1286.93 333.833 1288.28 340.167 1288.28 347.409C1288.28 354.621 1286.93 360.924 1284.23 366.318C1281.54 371.712 1277.75 375.909 1272.87 378.909C1267.99 381.909 1262.28 383.409 1255.73 383.409ZM1255.78 372C1260.02 372 1263.54 370.879 1266.32 368.636C1269.11 366.394 1271.17 363.409 1272.51 359.682C1273.87 355.955 1274.55 351.848 1274.55 347.364C1274.55 342.909 1273.87 338.818 1272.51 335.091C1271.17 331.333 1269.11 328.318 1266.32 326.045C1263.54 323.773 1260.02 322.636 1255.78 322.636C1251.51 322.636 1247.96 323.773 1245.14 326.045C1242.35 328.318 1240.28 331.333 1238.91 335.091C1237.58 338.818 1236.91 342.909 1236.91 347.364C1236.91 351.848 1237.58 355.955 1238.91 359.682C1240.28 363.409 1242.35 366.394 1245.14 368.636C1247.96 370.879 1251.51 372 1255.78 372ZM1336.04 312.182V323.091H1297.9V312.182H1336.04ZM1308.13 295.455H1321.72V361.5C1321.72 364.136 1322.12 366.121 1322.9 367.455C1323.69 368.758 1324.71 369.652 1325.95 370.136C1327.22 370.591 1328.6 370.818 1330.09 370.818C1331.18 370.818 1332.13 370.742 1332.95 370.591C1333.77 370.439 1334.4 370.318 1334.86 370.227L1337.31 381.455C1336.52 381.758 1335.4 382.061 1333.95 382.364C1332.49 382.697 1330.68 382.879 1328.49 382.909C1324.92 382.97 1321.59 382.333 1318.49 381C1315.4 379.667 1312.9 377.606 1310.99 374.818C1309.09 372.03 1308.13 368.53 1308.13 364.318V295.455ZM1380.41 383.409C1373.54 383.409 1367.61 381.939 1362.64 379C1357.7 376.03 1353.88 371.864 1351.19 366.5C1348.52 361.106 1347.19 354.788 1347.19 347.545C1347.19 340.394 1348.52 334.091 1351.19 328.636C1353.88 323.182 1357.64 318.924 1362.46 315.864C1367.31 312.803 1372.98 311.273 1379.46 311.273C1383.4 311.273 1387.22 311.924 1390.91 313.227C1394.61 314.53 1397.93 316.576 1400.87 319.364C1403.81 322.152 1406.13 325.773 1407.82 330.227C1409.52 334.652 1410.37 340.03 1410.37 346.364V351.182H1354.87V341H1397.05C1397.05 337.424 1396.32 334.258 1394.87 331.5C1393.41 328.712 1391.37 326.515 1388.73 324.909C1386.13 323.303 1383.07 322.5 1379.55 322.5C1375.73 322.5 1372.4 323.439 1369.55 325.318C1366.73 327.167 1364.55 329.591 1363.01 332.591C1361.49 335.561 1360.73 338.788 1360.73 342.273V350.227C1360.73 354.894 1361.55 358.864 1363.19 362.136C1364.85 365.409 1367.17 367.909 1370.14 369.636C1373.11 371.333 1376.58 372.182 1380.55 372.182C1383.13 372.182 1385.48 371.818 1387.6 371.091C1389.72 370.333 1391.55 369.212 1393.1 367.727C1394.64 366.242 1395.82 364.409 1396.64 362.227L1409.51 364.545C1408.48 368.333 1406.63 371.652 1403.96 374.5C1401.32 377.318 1398.01 379.515 1394.01 381.091C1390.04 382.636 1385.51 383.409 1380.41 383.409ZM1439.04 340.545V382H1425.45V312.182H1438.49V323.545H1439.36C1440.96 319.848 1443.48 316.879 1446.9 314.636C1450.36 312.394 1454.71 311.273 1459.95 311.273C1464.71 311.273 1468.87 312.273 1472.45 314.273C1476.02 316.242 1478.8 319.182 1480.77 323.091C1482.74 327 1483.72 331.833 1483.72 337.591V382H1470.13V339.227C1470.13 334.167 1468.81 330.212 1466.18 327.364C1463.54 324.485 1459.92 323.045 1455.31 323.045C1452.16 323.045 1449.36 323.727 1446.9 325.091C1444.48 326.455 1442.55 328.455 1441.13 331.091C1439.74 333.697 1439.04 336.848 1439.04 340.545ZM1534.54 312.182V323.091H1496.4V312.182H1534.54ZM1506.63 295.455H1520.22V361.5C1520.22 364.136 1520.62 366.121 1521.4 367.455C1522.19 368.758 1523.21 369.652 1524.45 370.136C1525.72 370.591 1527.1 370.818 1528.59 370.818C1529.68 370.818 1530.63 370.742 1531.45 370.591C1532.27 370.439 1532.9 370.318 1533.36 370.227L1535.81 381.455C1535.02 381.758 1533.9 382.061 1532.45 382.364C1530.99 382.697 1529.18 382.879 1526.99 382.909C1523.42 382.97 1520.09 382.333 1516.99 381C1513.9 379.667 1511.4 377.606 1509.49 374.818C1507.59 372.03 1506.63 368.53 1506.63 364.318V295.455ZM1549.57 382V312.182H1563.16V382H1549.57ZM1556.44 301.409C1554.07 301.409 1552.04 300.621 1550.35 299.045C1548.68 297.439 1547.85 295.53 1547.85 293.318C1547.85 291.076 1548.68 289.167 1550.35 287.591C1552.04 285.985 1554.07 285.182 1556.44 285.182C1558.8 285.182 1560.82 285.985 1562.48 287.591C1564.18 289.167 1565.03 291.076 1565.03 293.318C1565.03 295.53 1564.18 297.439 1562.48 299.045C1560.82 300.621 1558.8 301.409 1556.44 301.409ZM1601.77 383.545C1597.34 383.545 1593.34 382.727 1589.77 381.091C1586.19 379.424 1583.36 377.015 1581.27 373.864C1579.21 370.712 1578.18 366.848 1578.18 362.273C1578.18 358.333 1578.93 355.091 1580.45 352.545C1581.96 350 1584.01 347.985 1586.59 346.5C1589.16 345.015 1592.04 343.894 1595.22 343.136C1598.4 342.379 1601.65 341.803 1604.95 341.409C1609.13 340.924 1612.52 340.53 1615.13 340.227C1617.74 339.894 1619.63 339.364 1620.81 338.636C1621.99 337.909 1622.59 336.727 1622.59 335.091V334.773C1622.59 330.803 1621.46 327.727 1619.22 325.545C1617.01 323.364 1613.71 322.273 1609.31 322.273C1604.74 322.273 1601.13 323.288 1598.49 325.318C1595.89 327.318 1594.09 329.545 1593.09 332L1580.31 329.091C1581.83 324.848 1584.04 321.424 1586.95 318.818C1589.89 316.182 1593.27 314.273 1597.09 313.091C1600.9 311.879 1604.92 311.273 1609.13 311.273C1611.92 311.273 1614.87 311.606 1617.99 312.273C1621.15 312.909 1624.09 314.091 1626.81 315.818C1629.57 317.545 1631.83 320.015 1633.59 323.227C1635.34 326.409 1636.22 330.545 1636.22 335.636V382H1622.95V372.455H1622.4C1621.52 374.212 1620.21 375.939 1618.45 377.636C1616.69 379.333 1614.43 380.742 1611.68 381.864C1608.92 382.985 1605.62 383.545 1601.77 383.545ZM1604.72 372.636C1608.48 372.636 1611.69 371.894 1614.36 370.409C1617.05 368.924 1619.1 366.985 1620.49 364.591C1621.92 362.167 1622.63 359.576 1622.63 356.818V347.818C1622.15 348.303 1621.21 348.758 1619.81 349.182C1618.45 349.576 1616.89 349.924 1615.13 350.227C1613.37 350.5 1611.66 350.758 1609.99 351C1608.33 351.212 1606.93 351.394 1605.81 351.545C1603.18 351.879 1600.77 352.439 1598.59 353.227C1596.43 354.015 1594.71 355.152 1593.4 356.636C1592.13 358.091 1591.49 360.03 1591.49 362.455C1591.49 365.818 1592.74 368.364 1595.22 370.091C1597.71 371.788 1600.87 372.636 1604.72 372.636ZM1667.91 288.909V382H1654.32V288.909H1667.91ZM1686.2 382V312.182H1699.79V382H1686.2ZM1693.06 301.409C1690.7 301.409 1688.67 300.621 1686.97 299.045C1685.3 297.439 1684.47 295.53 1684.47 293.318C1684.47 291.076 1685.3 289.167 1686.97 287.591C1688.67 285.985 1690.7 285.182 1693.06 285.182C1695.43 285.182 1697.44 285.985 1699.11 287.591C1700.8 289.167 1701.65 291.076 1701.65 293.318C1701.65 295.53 1700.8 297.439 1699.11 299.045C1697.44 300.621 1695.43 301.409 1693.06 301.409ZM1750.66 312.182V323.091H1712.53V312.182H1750.66ZM1722.76 295.455H1736.35V361.5C1736.35 364.136 1736.74 366.121 1737.53 367.455C1738.32 368.758 1739.33 369.652 1740.57 370.136C1741.85 370.591 1743.23 370.818 1744.71 370.818C1745.8 370.818 1746.76 370.742 1747.57 370.591C1748.39 370.439 1749.03 370.318 1749.48 370.227L1751.94 381.455C1751.15 381.758 1750.03 382.061 1748.57 382.364C1747.12 382.697 1745.3 382.879 1743.12 382.909C1739.54 382.97 1736.21 382.333 1733.12 381C1730.03 379.667 1727.53 377.606 1725.62 374.818C1723.71 372.03 1722.76 368.53 1722.76 364.318V295.455ZM1795.04 383.409C1788.16 383.409 1782.24 381.939 1777.27 379C1772.33 376.03 1768.51 371.864 1765.81 366.5C1763.15 361.106 1761.81 354.788 1761.81 347.545C1761.81 340.394 1763.15 334.091 1765.81 328.636C1768.51 323.182 1772.27 318.924 1777.09 315.864C1781.93 312.803 1787.6 311.273 1794.09 311.273C1798.02 311.273 1801.84 311.924 1805.54 313.227C1809.24 314.53 1812.55 316.576 1815.49 319.364C1818.43 322.152 1820.75 325.773 1822.45 330.227C1824.15 334.652 1824.99 340.03 1824.99 346.364V351.182H1769.49V341H1811.68C1811.68 337.424 1810.95 334.258 1809.49 331.5C1808.04 328.712 1805.99 326.515 1803.36 324.909C1800.75 323.303 1797.69 322.5 1794.18 322.5C1790.36 322.5 1787.02 323.439 1784.18 325.318C1781.36 327.167 1779.18 329.591 1777.63 332.591C1776.12 335.561 1775.36 338.788 1775.36 342.273V350.227C1775.36 354.894 1776.18 358.864 1777.81 362.136C1779.48 365.409 1781.8 367.909 1784.77 369.636C1787.74 371.333 1791.21 372.182 1795.18 372.182C1797.75 372.182 1800.1 371.818 1802.22 371.091C1804.34 370.333 1806.18 369.212 1807.72 367.727C1809.27 366.242 1810.45 364.409 1811.27 362.227L1824.13 364.545C1823.1 368.333 1821.25 371.652 1818.59 374.5C1815.95 377.318 1812.63 379.515 1808.63 381.091C1804.66 382.636 1800.13 383.409 1795.04 383.409ZM1787.95 302.864L1798.59 281.909H1812.9L1798.81 302.864H1787.95ZM1406.41 467.182V478.091H1368.28V467.182H1406.41ZM1378.51 450.455H1392.1V516.5C1392.1 519.136 1392.49 521.121 1393.28 522.455C1394.07 523.758 1395.08 524.652 1396.32 525.136C1397.6 525.591 1398.98 525.818 1400.46 525.818C1401.55 525.818 1402.51 525.742 1403.32 525.591C1404.14 525.439 1404.78 525.318 1405.23 525.227L1407.69 536.455C1406.9 536.758 1405.78 537.061 1404.32 537.364C1402.87 537.697 1401.05 537.879 1398.87 537.909C1395.29 537.97 1391.96 537.333 1388.87 536C1385.78 534.667 1383.28 532.606 1381.37 529.818C1379.46 527.03 1378.51 523.53 1378.51 519.318V450.455ZM1450.79 538.409C1443.91 538.409 1437.99 536.939 1433.02 534C1428.08 531.03 1424.26 526.864 1421.56 521.5C1418.9 516.106 1417.56 509.788 1417.56 502.545C1417.56 495.394 1418.9 489.091 1421.56 483.636C1424.26 478.182 1428.02 473.924 1432.84 470.864C1437.68 467.803 1443.35 466.273 1449.84 466.273C1453.77 466.273 1457.59 466.924 1461.29 468.227C1464.99 469.53 1468.3 471.576 1471.24 474.364C1474.18 477.152 1476.5 480.773 1478.2 485.227C1479.9 489.652 1480.74 495.03 1480.74 501.364V506.182H1425.24V496H1467.43C1467.43 492.424 1466.7 489.258 1465.24 486.5C1463.79 483.712 1461.74 481.515 1459.11 479.909C1456.5 478.303 1453.44 477.5 1449.93 477.5C1446.11 477.5 1442.77 478.439 1439.93 480.318C1437.11 482.167 1434.93 484.591 1433.38 487.591C1431.87 490.561 1431.11 493.788 1431.11 497.273V505.227C1431.11 509.894 1431.93 513.864 1433.56 517.136C1435.23 520.409 1437.55 522.909 1440.52 524.636C1443.49 526.333 1446.96 527.182 1450.93 527.182C1453.5 527.182 1455.85 526.818 1457.97 526.091C1460.09 525.333 1461.93 524.212 1463.47 522.727C1465.02 521.242 1466.2 519.409 1467.02 517.227L1479.88 519.545C1478.85 523.333 1477 526.652 1474.34 529.5C1471.7 532.318 1468.38 534.515 1464.38 536.091C1460.41 537.636 1455.88 538.409 1450.79 538.409ZM1525.23 538.409C1518.48 538.409 1512.66 536.879 1507.78 533.818C1502.93 530.727 1499.2 526.47 1496.6 521.045C1493.99 515.621 1492.69 509.409 1492.69 502.409C1492.69 495.318 1494.02 489.061 1496.69 483.636C1499.35 478.182 1503.11 473.924 1507.96 470.864C1512.81 467.803 1518.52 466.273 1525.1 466.273C1530.4 466.273 1535.13 467.258 1539.28 469.227C1543.43 471.167 1546.78 473.894 1549.32 477.409C1551.9 480.924 1553.43 485.03 1553.91 489.727H1540.69C1539.96 486.455 1538.29 483.636 1535.69 481.273C1533.11 478.909 1529.66 477.727 1525.32 477.727C1521.54 477.727 1518.22 478.727 1515.37 480.727C1512.55 482.697 1510.35 485.515 1508.78 489.182C1507.2 492.818 1506.41 497.121 1506.41 502.091C1506.41 507.182 1507.19 511.576 1508.73 515.273C1510.28 518.97 1512.46 521.833 1515.28 523.864C1518.13 525.894 1521.48 526.909 1525.32 526.909C1527.9 526.909 1530.23 526.439 1532.32 525.5C1534.45 524.53 1536.22 523.152 1537.64 521.364C1539.1 519.576 1540.11 517.424 1540.69 514.909H1553.91C1553.43 519.424 1551.96 523.455 1549.51 527C1547.05 530.545 1543.76 533.333 1539.64 535.364C1535.55 537.394 1530.75 538.409 1525.23 538.409ZM1582.04 495.545V537H1568.45V443.909H1581.86V478.545H1582.72C1584.36 474.788 1586.86 471.803 1590.22 469.591C1593.59 467.379 1597.98 466.273 1603.4 466.273C1608.19 466.273 1612.37 467.258 1615.95 469.227C1619.55 471.197 1622.34 474.136 1624.31 478.045C1626.31 481.924 1627.31 486.773 1627.31 492.591V537H1613.72V494.227C1613.72 489.106 1612.4 485.136 1609.77 482.318C1607.13 479.47 1603.46 478.045 1598.77 478.045C1595.55 478.045 1592.68 478.727 1590.13 480.091C1587.62 481.455 1585.63 483.455 1584.18 486.091C1582.75 488.697 1582.04 491.848 1582.04 495.545Z" fill="black"/>
</g>
<defs>
<clipPath id="clip0_43_231793">
<rect width="2203" height="2200" fill="white"/>
</clipPath>
</defs>
</svg>
