<svg width="990" height="988" viewBox="0 0 990 988" fill="none" xmlns="http://www.w3.org/2000/svg">
<path d="M594.598 8.7754e-05C606.326 8.7754e-05 620.847 0.452565 638.16 1.35636C655.472 1.80829 671.948 3.16309 687.585 5.4226C754.602 14.0088 810.449 32.5379 855.127 61.0079C900.364 89.4779 934.153 125.404 956.492 168.787C978.831 212.17 990 260.072 990 312.493C990 365.366 978.831 413.493 956.492 456.876C934.153 500.259 900.364 536.185 855.127 564.655C810.449 593.125 754.602 611.654 687.585 620.241C671.948 622.048 655.193 623.403 637.322 624.307C620.009 625.211 605.768 625.663 594.598 625.663H201.307V491.447L587.897 491.447C599.066 491.447 611.353 490.995 624.756 490.091C638.718 489.187 651.842 487.606 664.129 485.346C699.871 478.568 728.634 466.14 750.414 448.063C772.194 429.536 787.831 408.296 797.325 384.346C806.819 360.395 811.567 336.444 811.567 312.493C811.567 288.542 806.819 264.817 797.325 241.317C787.831 217.367 772.194 196.353 750.414 178.277C728.634 159.749 699.871 147.096 664.129 140.317C651.842 137.606 638.718 135.797 624.756 134.893C611.353 133.989 599.066 133.538 587.897 133.538L175.082 133.538V491.447H175.824V625.663H175.082V988H0V0L594.598 8.7754e-05Z" fill="#1E3758"/>
</svg>
