<svg width="3258" height="3500" viewBox="0 0 3258 3500" fill="none" xmlns="http://www.w3.org/2000/svg">
<path d="M752.007 8.62549L752.007 159.614L721.539 159.614L721.539 8.62549L752.007 8.62549Z" fill="#1E3758"/>
<path d="M608.462 8.62549L637.523 60.0855L638.649 60.0855L667.851 8.62549L702.26 8.62549L658.281 84.1198L703.245 159.614L668.203 159.614L638.649 108.08L637.523 108.08L607.97 159.614L573.068 159.614L618.173 84.1198L573.913 8.62549L608.462 8.62549Z" fill="#1E3758"/>
<path d="M440.183 94.1467L440.183 159.614L410.207 159.614L410.207 46.3729L438.776 46.3729L438.776 66.3524L440.042 66.3524C442.435 59.7663 446.445 54.5564 452.075 50.7227C457.704 46.8399 464.529 44.8984 472.551 44.8984C480.057 44.8984 486.601 46.6187 492.183 50.0592C497.765 53.4997 502.105 58.4147 505.201 64.8042C508.297 71.1445 509.845 78.7136 509.845 87.5114L509.845 159.614L479.869 159.614L479.869 93.1145C479.916 86.1844 478.227 80.7779 474.803 76.895C471.378 72.963 466.664 70.997 460.659 70.997C456.625 70.997 453.06 71.9063 449.964 73.7249C446.914 75.5434 444.522 78.1975 442.786 81.6872C441.098 85.1277 440.23 89.2808 440.183 94.1467Z" fill="#1E3758"/>
<path d="M326.082 161.753C319.186 161.753 313.041 160.5 307.646 157.993C302.251 155.437 297.982 151.677 294.839 146.713C291.743 141.7 290.195 135.458 290.195 127.987C290.195 121.696 291.298 116.412 293.502 112.136C295.707 107.86 298.71 104.419 302.509 101.815C306.309 99.2096 310.625 97.2436 315.457 95.9166C320.335 94.5895 325.449 93.6557 330.796 93.115C337.082 92.4269 342.149 91.788 345.995 91.1982C349.842 90.5592 352.633 89.6254 354.369 88.3966C356.105 87.1679 356.972 85.3493 356.972 82.941L356.972 82.4986C356.972 77.8294 355.565 74.2169 352.75 71.6611C349.983 69.1053 346.042 67.8274 340.929 67.8274C335.534 67.8274 331.242 69.0807 328.052 71.5873C324.862 74.0448 322.751 77.1413 321.719 80.8767L293.995 78.5175C295.402 71.6365 298.17 65.6893 302.298 60.6761C306.426 55.6136 311.751 51.7308 318.271 49.0275C324.839 46.2751 332.438 44.8989 341.07 44.8989C347.074 44.8989 352.821 45.6362 358.309 47.1107C363.845 48.5852 368.747 50.8706 373.016 53.9671C377.332 57.0635 380.733 61.0447 383.219 65.9105C385.705 70.7272 386.948 76.5023 386.948 83.2359L386.948 159.615L358.52 159.615L358.52 143.911L357.676 143.911C355.94 147.45 353.618 150.571 350.71 153.275C347.801 155.929 344.307 158.017 340.225 159.541C336.144 161.016 331.43 161.753 326.082 161.753ZM334.666 140.078C339.076 140.078 342.97 139.168 346.347 137.35C349.725 135.482 352.375 132.976 354.299 129.83C356.222 126.684 357.184 123.121 357.184 119.14L357.184 107.123C356.245 107.762 354.955 108.351 353.313 108.892C351.718 109.384 349.912 109.851 347.895 110.293C345.878 110.686 343.861 111.055 341.844 111.399C339.827 111.694 337.997 111.964 336.355 112.21C332.837 112.75 329.764 113.611 327.137 114.79C324.51 115.97 322.47 117.567 321.016 119.582C319.561 121.548 318.834 124.006 318.834 126.955C318.834 131.231 320.312 134.499 323.267 136.76C326.269 138.972 330.069 140.078 334.666 140.078Z" fill="#1E3758"/>
<path d="M241.27 159.614L241.27 46.373L271.246 46.373L271.246 159.614L241.27 159.614ZM256.329 31.7754C251.872 31.7754 248.049 30.2272 244.859 27.1308C241.716 23.9852 240.145 20.2252 240.145 15.8509C240.145 11.5257 241.716 7.81484 244.859 4.7184C248.049 1.5728 251.872 2.09448e-08 256.329 2.89039e-08C260.785 3.68629e-08 264.585 1.5728 267.728 4.7184C270.918 7.81484 272.513 11.5257 272.513 15.8509C272.513 20.2252 270.918 23.9852 267.728 27.1308C264.585 30.2272 260.785 31.7754 256.329 31.7754Z" fill="#1E3758"/>
<path d="M187.28 46.3735L217.256 46.3735L217.256 165.218C217.256 173.967 215.614 181.044 212.331 186.451C209.047 191.857 204.332 195.814 198.187 198.32C192.089 200.827 184.794 202.08 176.303 202.08C175.271 202.08 174.286 202.056 173.348 202.007C172.363 202.007 171.331 201.982 170.252 201.933L170.252 177.383C171.049 177.432 171.753 177.456 172.363 177.456C172.926 177.505 173.536 177.53 174.192 177.53C179.024 177.53 182.402 176.449 184.325 174.286C186.295 172.173 187.28 168.978 187.28 164.702L187.28 46.3735ZM202.198 31.7759C197.788 31.7759 193.989 30.2277 190.799 27.1312C187.609 23.9857 186.014 20.2257 186.014 15.8513C186.014 11.5261 187.609 7.81533 190.799 4.71889C193.989 1.57329 197.788 0.00048833 202.198 0.000488338C206.701 0.000488346 210.525 1.57329 213.668 4.71889C216.858 7.81533 218.453 11.5261 218.453 15.8513C218.453 20.2257 216.858 23.9857 213.668 27.1312C210.525 30.2277 206.701 31.7759 202.198 31.7759Z" fill="#1E3758"/>
<path d="M133.294 159.615L133.294 46.3734L163.27 46.3734L163.27 159.615L133.294 159.615ZM148.352 31.7759C143.896 31.7759 140.072 30.2277 136.882 27.1312C133.739 23.9857 132.168 20.2257 132.168 15.8513C132.168 11.5261 133.739 7.81533 136.882 4.71889C140.072 1.57329 143.896 0.000488302 148.352 0.00048831C152.809 0.000488318 156.608 1.57329 159.751 4.71889C162.941 7.81533 164.536 11.5261 164.536 15.8513C164.536 20.2257 162.941 23.9857 159.751 27.1312C156.608 30.2277 152.809 31.7759 148.352 31.7759Z" fill="#1E3758"/>
<path d="M0.140732 159.615L0.140732 140.667L72.0546 34.9458L-5.24189e-08 34.9458L0 8.62598L110.334 8.62598L110.334 27.5733L38.3493 133.295L110.474 133.295L110.474 159.615L0.140732 159.615Z" fill="#1E3758"/>
<path d="M1370.4 3500L2125 2509H1888.6L1134 3500H1370.4Z" fill="#1E3758"/>
<path d="M0 3500V2490H176.143V3364.19H991V3500H0Z" fill="#1E3758"/>
<path d="M407.937 2370.01V1527.98H4.71875V1394.53H987.089V1527.98H583.871V2370.01H407.937Z" fill="#1E3758"/>
<path d="M1629.51 1277.14C1524.65 1277.14 1435.33 1256.43 1361.54 1215.03C1287.75 1173.19 1231.19 1115.04 1191.87 1040.6C1153.04 966.165 1133.62 879.833 1133.62 781.609C1133.62 683.384 1153.04 597.052 1191.87 522.613C1231.19 448.173 1287.75 390.252 1361.54 348.847C1435.33 307.003 1524.65 286.081 1629.51 286.081C1733.88 286.081 1822.96 307.003 1896.75 348.847C1971.03 390.252 2027.58 448.173 2066.42 522.613C2105.26 597.052 2124.67 683.384 2124.67 781.609C2124.67 879.833 2105.26 966.165 2066.42 1040.6C2027.58 1115.04 1971.03 1173.19 1896.75 1215.03C1822.96 1256.43 1733.88 1277.14 1629.51 1277.14ZM1629.51 1145.66C1703.78 1146.54 1765.44 1131.78 1814.47 1101.39C1863.98 1070.56 1901.12 1027.83 1925.88 973.213C1950.64 918.154 1963.02 854.286 1963.02 781.609C1963.02 708.931 1950.64 645.504 1925.88 591.326C1901.12 536.708 1863.98 494.202 1814.47 463.81C1765.44 433.418 1703.78 418.001 1629.51 417.561C1555.23 416.68 1493.34 431.435 1443.82 461.828C1394.79 492.22 1357.9 534.946 1333.14 590.004C1308.38 645.063 1295.76 708.931 1295.27 781.609C1294.79 854.286 1306.92 917.934 1331.68 972.552C1356.44 1026.73 1393.58 1069.02 1443.09 1099.41C1493.1 1129.8 1555.23 1145.22 1629.51 1145.66Z" fill="#1E3758"/>
<path d="M2761.62 2388.54C2656.76 2388.54 2567.44 2367.83 2493.65 2326.43C2419.86 2284.58 2363.3 2226.44 2323.98 2152C2285.14 2077.56 2265.73 1991.23 2265.73 1893.01C2265.73 1794.78 2285.14 1708.45 2323.98 1634.01C2363.3 1559.57 2419.86 1501.65 2493.65 1460.25C2567.44 1418.4 2656.76 1397.48 2761.62 1397.48C2865.99 1397.48 2955.07 1418.4 3028.86 1460.25C3103.14 1501.65 3159.69 1559.57 3198.53 1634.01C3237.36 1708.45 3256.78 1794.78 3256.78 1893.01C3256.78 1991.23 3237.36 2077.56 3198.53 2152C3159.69 2226.44 3103.14 2284.58 3028.86 2326.43C2955.07 2367.83 2865.99 2388.54 2761.62 2388.54ZM2761.62 2257.06C2835.89 2257.94 2897.55 2243.18 2946.58 2212.79C2996.09 2181.96 3033.23 2139.23 3057.99 2084.61C3082.75 2029.55 3095.13 1965.69 3095.13 1893.01C3095.13 1820.33 3082.75 1756.9 3057.99 1702.72C3033.23 1648.11 2996.09 1605.6 2946.58 1575.21C2897.55 1544.82 2835.89 1529.4 2761.62 1528.96C2687.34 1528.08 2625.45 1542.83 2575.93 1573.23C2526.9 1603.62 2490.01 1646.34 2465.25 1701.4C2440.49 1756.46 2427.87 1820.33 2427.38 1893.01C2426.9 1965.69 2439.03 2029.33 2463.79 2083.95C2488.55 2138.13 2525.69 2180.41 2575.2 2210.81C2625.21 2241.2 2687.34 2256.62 2761.62 2257.06Z" fill="#1E3758"/>
<path d="M2761.62 3499.93C2656.76 3499.93 2567.44 3479.23 2493.65 3437.83C2419.86 3395.98 2363.3 3337.84 2323.98 3263.4C2285.14 3188.96 2265.73 3102.63 2265.73 3004.41C2265.73 2906.18 2285.14 2819.85 2323.98 2745.41C2363.3 2670.97 2419.86 2613.05 2493.65 2571.64C2567.44 2529.8 2656.76 2508.88 2761.62 2508.88C2865.99 2508.88 2955.07 2529.8 3028.86 2571.64C3103.14 2613.05 3159.69 2670.97 3198.53 2745.41C3237.36 2819.85 3256.78 2906.18 3256.78 3004.41C3256.78 3102.63 3237.36 3188.96 3198.53 3263.4C3159.69 3337.84 3103.14 3395.98 3028.86 3437.83C2955.07 3479.23 2865.99 3499.93 2761.62 3499.93ZM2761.62 3368.45C2835.89 3369.34 2897.55 3354.58 2946.58 3324.19C2996.09 3293.35 3033.23 3250.63 3057.99 3196.01C3082.75 3140.95 3095.13 3077.08 3095.13 3004.41C3095.13 2931.73 3082.75 2868.3 3057.99 2814.12C3033.23 2759.5 2996.09 2717 2946.58 2686.61C2897.55 2656.21 2835.89 2640.8 2761.62 2640.36C2687.34 2639.48 2625.45 2654.23 2575.93 2684.63C2526.9 2715.02 2490.01 2757.74 2465.25 2812.8C2440.49 2867.86 2427.87 2931.73 2427.38 3004.41C2426.9 3077.08 2439.03 3140.73 2463.79 3195.35C2488.55 3249.53 2525.69 3291.81 2575.2 3322.2C2625.21 3352.6 2687.34 3368.01 2761.62 3368.45Z" fill="#1E3758"/>
<path d="M2857.82 286.081C2869.61 286.081 2884.2 286.533 2901.61 287.437C2919.01 287.889 2935.57 289.244 2951.29 291.504C3018.66 300.091 3074.8 318.622 3119.71 347.095C3165.18 375.568 3199.15 411.498 3221.6 454.886C3244.06 498.273 3255.29 546.181 3255.29 598.607C3255.29 676.343 3230.58 743.458 3181.18 799.952C3148.16 837.406 3104.12 865.472 3049.03 884.153L3257.37 1277.14H3061.6L2865.77 911.811H2468.63V777.581H2851.08C2862.31 777.581 2874.66 777.128 2888.13 776.225C2902.17 775.321 2915.36 773.739 2927.71 771.479C2963.64 764.7 2992.55 752.27 3014.45 734.192C3036.34 715.662 3052.06 694.421 3061.6 670.468C3071.15 646.514 3075.92 622.561 3075.92 598.607C3075.92 574.654 3071.15 550.926 3061.6 527.424C3052.06 503.471 3036.34 482.455 3014.45 464.377C2992.55 445.847 2963.64 433.192 2927.71 426.413C2915.36 423.701 2902.17 421.892 2888.13 420.988C2874.66 420.084 2862.31 419.633 2851.08 419.633H2442.91V777.581H2443.1V911.811H2442.91L2443.09 1277.14H2267.09L2266.91 286.081H2857.82Z" fill="#1E3758"/>
<path d="M595.822 286.081C607.574 286.081 622.125 286.533 639.473 287.437C656.822 287.889 673.331 289.244 689 291.504C756.155 300.091 812.117 318.622 856.887 347.095C902.217 375.568 936.076 411.498 958.461 454.886C980.846 498.273 992.038 546.181 992.038 598.607C992.038 651.486 980.846 699.618 958.461 743.006C936.076 786.393 902.217 822.324 856.887 850.797C812.117 879.27 756.155 897.801 689 906.388C673.331 908.196 656.542 909.551 638.634 910.455C621.286 911.359 607.015 911.811 595.822 911.811H201.721V777.581L589.107 777.581C600.299 777.581 612.611 777.129 626.042 776.225C640.032 775.321 653.184 773.739 665.496 771.479C701.312 764.7 730.133 752.271 751.959 734.192C773.784 715.662 789.453 694.421 798.966 670.468C808.48 646.514 813.237 622.561 813.237 598.607C813.237 574.654 808.48 550.926 798.966 527.424C789.453 503.471 773.784 482.455 751.959 464.377C730.133 445.847 701.312 433.192 665.496 426.413C653.184 423.701 640.032 421.892 626.042 420.988C612.611 420.084 600.299 419.633 589.107 419.633L175.443 419.633V777.581H176.186V911.811H175.443V1274.19H0V286.081L595.822 286.081Z" fill="#1E3758"/>
<path d="M2125.33 1539.17H1308.24V1814.41H1308.63V1956.77H1308.24L1308.63 2390.9H1132.82L1132.44 1397.48L2125.33 1397.48V1539.17ZM2024.39 1814.41V1956.77H1334.16V1814.41H2024.39Z" fill="#1E3758"/>
</svg>
