<svg width="2203" height="2200" viewBox="0 0 2203 2200" fill="none" xmlns="http://www.w3.org/2000/svg">
<g clip-path="url(#clip0_43_231793)">
<rect x="7.27734" y="8.37793" width="816.28" height="789.043" stroke="black" stroke-width="10"/>
<path d="M162.545 309.182H148.364C147.818 306.152 146.803 303.485 145.318 301.182C143.833 298.879 142.015 296.924 139.864 295.318C137.712 293.712 135.303 292.5 132.636 291.682C130 290.864 127.197 290.455 124.227 290.455C118.864 290.455 114.061 291.803 109.818 294.5C105.606 297.197 102.273 301.152 99.8182 306.364C97.3939 311.576 96.1818 317.939 96.1818 325.455C96.1818 333.03 97.3939 339.424 99.8182 344.636C102.273 349.848 105.621 353.788 109.864 356.455C114.106 359.121 118.879 360.455 124.182 360.455C127.121 360.455 129.909 360.061 132.545 359.273C135.212 358.455 137.621 357.258 139.773 355.682C141.924 354.106 143.742 352.182 145.227 349.909C146.742 347.606 147.788 344.97 148.364 342L162.545 342.045C161.788 346.621 160.318 350.833 158.136 354.682C155.985 358.5 153.212 361.803 149.818 364.591C146.455 367.348 142.606 369.485 138.273 371C133.939 372.515 129.212 373.273 124.091 373.273C116.03 373.273 108.848 371.364 102.545 367.545C96.2424 363.697 91.2727 358.197 87.6364 351.045C84.0303 343.894 82.2273 335.364 82.2273 325.455C82.2273 315.515 84.0455 306.985 87.6818 299.864C91.3182 292.712 96.2879 287.227 102.591 283.409C108.894 279.561 116.061 277.636 124.091 277.636C129.03 277.636 133.636 278.348 137.909 279.773C142.212 281.167 146.076 283.227 149.5 285.955C152.924 288.652 155.758 291.955 158 295.864C160.242 299.742 161.758 304.182 162.545 309.182ZM207.67 373.409C201.125 373.409 195.413 371.909 190.534 368.909C185.655 365.909 181.867 361.712 179.17 356.318C176.473 350.924 175.125 344.621 175.125 337.409C175.125 330.167 176.473 323.833 179.17 318.409C181.867 312.985 185.655 308.773 190.534 305.773C195.413 302.773 201.125 301.273 207.67 301.273C214.216 301.273 219.928 302.773 224.807 305.773C229.686 308.773 233.473 312.985 236.17 318.409C238.867 323.833 240.216 330.167 240.216 337.409C240.216 344.621 238.867 350.924 236.17 356.318C233.473 361.712 229.686 365.909 224.807 368.909C219.928 371.909 214.216 373.409 207.67 373.409ZM207.716 362C211.958 362 215.473 360.879 218.261 358.636C221.049 356.394 223.11 353.409 224.443 349.682C225.807 345.955 226.489 341.848 226.489 337.364C226.489 332.909 225.807 328.818 224.443 325.091C223.11 321.333 221.049 318.318 218.261 316.045C215.473 313.773 211.958 312.636 207.716 312.636C203.443 312.636 199.898 313.773 197.08 316.045C194.292 318.318 192.216 321.333 190.852 325.091C189.519 328.818 188.852 332.909 188.852 337.364C188.852 341.848 189.519 345.955 190.852 349.682C192.216 353.409 194.292 356.394 197.08 358.636C199.898 360.879 203.443 362 207.716 362ZM268.977 330.545V372H255.386V302.182H268.432V313.545H269.295C270.902 309.848 273.417 306.879 276.841 304.636C280.295 302.394 284.644 301.273 289.886 301.273C294.644 301.273 298.811 302.273 302.386 304.273C305.962 306.242 308.735 309.182 310.705 313.091C312.674 317 313.659 321.833 313.659 327.591V372H300.068V329.227C300.068 324.167 298.75 320.212 296.114 317.364C293.477 314.485 289.856 313.045 285.25 313.045C282.098 313.045 279.295 313.727 276.841 315.091C274.417 316.455 272.492 318.455 271.068 321.091C269.674 323.697 268.977 326.848 268.977 330.545ZM364.477 302.182V313.091H326.341V302.182H364.477ZM336.568 285.455H350.159V351.5C350.159 354.136 350.553 356.121 351.341 357.455C352.129 358.758 353.144 359.652 354.386 360.136C355.659 360.591 357.038 360.818 358.523 360.818C359.614 360.818 360.568 360.742 361.386 360.591C362.205 360.439 362.841 360.318 363.295 360.227L365.75 371.455C364.962 371.758 363.841 372.061 362.386 372.364C360.932 372.697 359.114 372.879 356.932 372.909C353.356 372.97 350.023 372.333 346.932 371C343.841 369.667 341.341 367.606 339.432 364.818C337.523 362.03 336.568 358.53 336.568 354.318V285.455ZM379.511 372V302.182H392.648V313.273H393.375C394.648 309.515 396.89 306.561 400.102 304.409C403.345 302.227 407.011 301.136 411.102 301.136C411.951 301.136 412.951 301.167 414.102 301.227C415.284 301.288 416.208 301.364 416.875 301.455V314.455C416.33 314.303 415.36 314.136 413.966 313.955C412.572 313.742 411.178 313.636 409.784 313.636C406.572 313.636 403.708 314.318 401.193 315.682C398.708 317.015 396.739 318.879 395.284 321.273C393.83 323.636 393.102 326.333 393.102 329.364V372H379.511ZM448.33 373.545C443.905 373.545 439.905 372.727 436.33 371.091C432.754 369.424 429.92 367.015 427.83 363.864C425.769 360.712 424.739 356.848 424.739 352.273C424.739 348.333 425.496 345.091 427.011 342.545C428.527 340 430.572 337.985 433.148 336.5C435.723 335.015 438.602 333.894 441.784 333.136C444.966 332.379 448.208 331.803 451.511 331.409C455.693 330.924 459.087 330.53 461.693 330.227C464.299 329.894 466.193 329.364 467.375 328.636C468.557 327.909 469.148 326.727 469.148 325.091V324.773C469.148 320.803 468.027 317.727 465.784 315.545C463.572 313.364 460.269 312.273 455.875 312.273C451.299 312.273 447.693 313.288 445.057 315.318C442.451 317.318 440.648 319.545 439.648 322L426.875 319.091C428.39 314.848 430.602 311.424 433.511 308.818C436.451 306.182 439.83 304.273 443.648 303.091C447.466 301.879 451.481 301.273 455.693 301.273C458.481 301.273 461.436 301.606 464.557 302.273C467.708 302.909 470.648 304.091 473.375 305.818C476.133 307.545 478.39 310.015 480.148 313.227C481.905 316.409 482.784 320.545 482.784 325.636V372H469.511V362.455H468.966C468.087 364.212 466.769 365.939 465.011 367.636C463.254 369.333 460.996 370.742 458.239 371.864C455.481 372.985 452.178 373.545 448.33 373.545ZM451.284 362.636C455.042 362.636 458.254 361.894 460.92 360.409C463.617 358.924 465.663 356.985 467.057 354.591C468.481 352.167 469.193 349.576 469.193 346.818V337.818C468.708 338.303 467.769 338.758 466.375 339.182C465.011 339.576 463.451 339.924 461.693 340.227C459.936 340.5 458.223 340.758 456.557 341C454.89 341.212 453.496 341.394 452.375 341.545C449.739 341.879 447.33 342.439 445.148 343.227C442.996 344.015 441.269 345.152 439.966 346.636C438.693 348.091 438.057 350.03 438.057 352.455C438.057 355.818 439.299 358.364 441.784 360.091C444.269 361.788 447.436 362.636 451.284 362.636ZM500.886 372V302.182H514.477V372H500.886ZM507.75 291.409C505.386 291.409 503.356 290.621 501.659 289.045C499.992 287.439 499.159 285.53 499.159 283.318C499.159 281.076 499.992 279.167 501.659 277.591C503.356 275.985 505.386 275.182 507.75 275.182C510.114 275.182 512.129 275.985 513.795 277.591C515.492 279.167 516.341 281.076 516.341 283.318C516.341 285.53 515.492 287.439 513.795 289.045C512.129 290.621 510.114 291.409 507.75 291.409ZM546.352 330.545V372H532.761V302.182H545.807V313.545H546.67C548.277 309.848 550.792 306.879 554.216 304.636C557.67 302.394 562.019 301.273 567.261 301.273C572.019 301.273 576.186 302.273 579.761 304.273C583.337 306.242 586.11 309.182 588.08 313.091C590.049 317 591.034 321.833 591.034 327.591V372H577.443V329.227C577.443 324.167 576.125 320.212 573.489 317.364C570.852 314.485 567.231 313.045 562.625 313.045C559.473 313.045 556.67 313.727 554.216 315.091C551.792 316.455 549.867 318.455 548.443 321.091C547.049 323.697 546.352 326.848 546.352 330.545ZM641.852 302.182V313.091H603.716V302.182H641.852ZM613.943 285.455H627.534V351.5C627.534 354.136 627.928 356.121 628.716 357.455C629.504 358.758 630.519 359.652 631.761 360.136C633.034 360.591 634.413 360.818 635.898 360.818C636.989 360.818 637.943 360.742 638.761 360.591C639.58 360.439 640.216 360.318 640.67 360.227L643.125 371.455C642.337 371.758 641.216 372.061 639.761 372.364C638.307 372.697 636.489 372.879 634.307 372.909C630.731 372.97 627.398 372.333 624.307 371C621.216 369.667 618.716 367.606 616.807 364.818C614.898 362.03 613.943 358.53 613.943 354.318V285.455ZM686.227 373.409C679.348 373.409 673.424 371.939 668.455 369C663.515 366.03 659.697 361.864 657 356.5C654.333 351.106 653 344.788 653 337.545C653 330.394 654.333 324.091 657 318.636C659.697 313.182 663.455 308.924 668.273 305.864C673.121 302.803 678.788 301.273 685.273 301.273C689.212 301.273 693.03 301.924 696.727 303.227C700.424 304.53 703.742 306.576 706.682 309.364C709.621 312.152 711.939 315.773 713.636 320.227C715.333 324.652 716.182 330.03 716.182 336.364V341.182H660.682V331H702.864C702.864 327.424 702.136 324.258 700.682 321.5C699.227 318.712 697.182 316.515 694.545 314.909C691.939 313.303 688.879 312.5 685.364 312.5C681.545 312.5 678.212 313.439 675.364 315.318C672.545 317.167 670.364 319.591 668.818 322.591C667.303 325.561 666.545 328.788 666.545 332.273V340.227C666.545 344.894 667.364 348.864 669 352.136C670.667 355.409 672.985 357.909 675.955 359.636C678.924 361.333 682.394 362.182 686.364 362.182C688.939 362.182 691.288 361.818 693.409 361.091C695.53 360.333 697.364 359.212 698.909 357.727C700.455 356.242 701.636 354.409 702.455 352.227L715.318 354.545C714.288 358.333 712.439 361.652 709.773 364.5C707.136 367.318 703.818 369.515 699.818 371.091C695.848 372.636 691.318 373.409 686.227 373.409ZM321.415 457.182V468.091H283.278V457.182H321.415ZM293.506 440.455H307.097V506.5C307.097 509.136 307.491 511.121 308.278 512.455C309.066 513.758 310.081 514.652 311.324 515.136C312.597 515.591 313.975 515.818 315.46 515.818C316.551 515.818 317.506 515.742 318.324 515.591C319.142 515.439 319.778 515.318 320.233 515.227L322.688 526.455C321.9 526.758 320.778 527.061 319.324 527.364C317.869 527.697 316.051 527.879 313.869 527.909C310.294 527.97 306.96 527.333 303.869 526C300.778 524.667 298.278 522.606 296.369 519.818C294.46 517.03 293.506 513.53 293.506 509.318V440.455ZM365.79 528.409C358.911 528.409 352.987 526.939 348.017 524C343.078 521.03 339.259 516.864 336.562 511.5C333.896 506.106 332.562 499.788 332.562 492.545C332.562 485.394 333.896 479.091 336.562 473.636C339.259 468.182 343.017 463.924 347.835 460.864C352.684 457.803 358.35 456.273 364.835 456.273C368.775 456.273 372.593 456.924 376.29 458.227C379.987 459.53 383.305 461.576 386.244 464.364C389.184 467.152 391.502 470.773 393.199 475.227C394.896 479.652 395.744 485.03 395.744 491.364V496.182H340.244V486H382.426C382.426 482.424 381.699 479.258 380.244 476.5C378.79 473.712 376.744 471.515 374.108 469.909C371.502 468.303 368.441 467.5 364.926 467.5C361.108 467.5 357.775 468.439 354.926 470.318C352.108 472.167 349.926 474.591 348.381 477.591C346.866 480.561 346.108 483.788 346.108 487.273V495.227C346.108 499.894 346.926 503.864 348.562 507.136C350.229 510.409 352.547 512.909 355.517 514.636C358.487 516.333 361.956 517.182 365.926 517.182C368.502 517.182 370.85 516.818 372.972 516.091C375.093 515.333 376.926 514.212 378.472 512.727C380.017 511.242 381.199 509.409 382.017 507.227L394.881 509.545C393.85 513.333 392.002 516.652 389.335 519.5C386.699 522.318 383.381 524.515 379.381 526.091C375.411 527.636 370.881 528.409 365.79 528.409ZM440.233 528.409C433.475 528.409 427.657 526.879 422.778 523.818C417.93 520.727 414.203 516.47 411.597 511.045C408.991 505.621 407.688 499.409 407.688 492.409C407.688 485.318 409.021 479.061 411.688 473.636C414.354 468.182 418.112 463.924 422.96 460.864C427.809 457.803 433.521 456.273 440.097 456.273C445.4 456.273 450.127 457.258 454.278 459.227C458.43 461.167 461.778 463.894 464.324 467.409C466.9 470.924 468.43 475.03 468.915 479.727H455.688C454.96 476.455 453.294 473.636 450.688 471.273C448.112 468.909 444.657 467.727 440.324 467.727C436.536 467.727 433.218 468.727 430.369 470.727C427.551 472.697 425.354 475.515 423.778 479.182C422.203 482.818 421.415 487.121 421.415 492.091C421.415 497.182 422.188 501.576 423.733 505.273C425.278 508.97 427.46 511.833 430.278 513.864C433.127 515.894 436.475 516.909 440.324 516.909C442.9 516.909 445.233 516.439 447.324 515.5C449.445 514.53 451.218 513.152 452.642 511.364C454.097 509.576 455.112 507.424 455.688 504.909H468.915C468.43 509.424 466.96 513.455 464.506 517C462.051 520.545 458.763 523.333 454.642 525.364C450.551 527.394 445.748 528.409 440.233 528.409ZM497.04 485.545V527H483.449V433.909H496.858V468.545H497.722C499.358 464.788 501.858 461.803 505.222 459.591C508.585 457.379 512.979 456.273 518.403 456.273C523.191 456.273 527.373 457.258 530.949 459.227C534.555 461.197 537.343 464.136 539.312 468.045C541.312 471.924 542.312 476.773 542.312 482.591V527H528.722V484.227C528.722 479.106 527.403 475.136 524.767 472.318C522.131 469.47 518.464 468.045 513.767 468.045C510.555 468.045 507.676 468.727 505.131 470.091C502.616 471.455 500.631 473.455 499.176 476.091C497.752 478.697 497.04 481.848 497.04 485.545Z" fill="black"/>
<rect x="1400.72" y="1405.62" width="797.117" height="786" stroke="black" stroke-width="10"/>
<path d="M1546.55 1705.18H1532.36C1531.82 1702.15 1530.8 1699.48 1529.32 1697.18C1527.83 1694.88 1526.02 1692.92 1523.86 1691.32C1521.71 1689.71 1519.3 1688.5 1516.64 1687.68C1514 1686.86 1511.2 1686.45 1508.23 1686.45C1502.86 1686.45 1498.06 1687.8 1493.82 1690.5C1489.61 1693.2 1486.27 1697.15 1483.82 1702.36C1481.39 1707.58 1480.18 1713.94 1480.18 1721.45C1480.18 1729.03 1481.39 1735.42 1483.82 1740.64C1486.27 1745.85 1489.62 1749.79 1493.86 1752.45C1498.11 1755.12 1502.88 1756.45 1508.18 1756.45C1511.12 1756.45 1513.91 1756.06 1516.55 1755.27C1519.21 1754.45 1521.62 1753.26 1523.77 1751.68C1525.92 1750.11 1527.74 1748.18 1529.23 1745.91C1530.74 1743.61 1531.79 1740.97 1532.36 1738L1546.55 1738.05C1545.79 1742.62 1544.32 1746.83 1542.14 1750.68C1539.98 1754.5 1537.21 1757.8 1533.82 1760.59C1530.45 1763.35 1526.61 1765.48 1522.27 1767C1517.94 1768.52 1513.21 1769.27 1508.09 1769.27C1500.03 1769.27 1492.85 1767.36 1486.55 1763.55C1480.24 1759.7 1475.27 1754.2 1471.64 1747.05C1468.03 1739.89 1466.23 1731.36 1466.23 1721.45C1466.23 1711.52 1468.05 1702.98 1471.68 1695.86C1475.32 1688.71 1480.29 1683.23 1486.59 1679.41C1492.89 1675.56 1500.06 1673.64 1508.09 1673.64C1513.03 1673.64 1517.64 1674.35 1521.91 1675.77C1526.21 1677.17 1530.08 1679.23 1533.5 1681.95C1536.92 1684.65 1539.76 1687.95 1542 1691.86C1544.24 1695.74 1545.76 1700.18 1546.55 1705.18ZM1591.67 1769.41C1585.13 1769.41 1579.41 1767.91 1574.53 1764.91C1569.66 1761.91 1565.87 1757.71 1563.17 1752.32C1560.47 1746.92 1559.12 1740.62 1559.12 1733.41C1559.12 1726.17 1560.47 1719.83 1563.17 1714.41C1565.87 1708.98 1569.66 1704.77 1574.53 1701.77C1579.41 1698.77 1585.13 1697.27 1591.67 1697.27C1598.22 1697.27 1603.93 1698.77 1608.81 1701.77C1613.69 1704.77 1617.47 1708.98 1620.17 1714.41C1622.87 1719.83 1624.22 1726.17 1624.22 1733.41C1624.22 1740.62 1622.87 1746.92 1620.17 1752.32C1617.47 1757.71 1613.69 1761.91 1608.81 1764.91C1603.93 1767.91 1598.22 1769.41 1591.67 1769.41ZM1591.72 1758C1595.96 1758 1599.47 1756.88 1602.26 1754.64C1605.05 1752.39 1607.11 1749.41 1608.44 1745.68C1609.81 1741.95 1610.49 1737.85 1610.49 1733.36C1610.49 1728.91 1609.81 1724.82 1608.44 1721.09C1607.11 1717.33 1605.05 1714.32 1602.26 1712.05C1599.47 1709.77 1595.96 1708.64 1591.72 1708.64C1587.44 1708.64 1583.9 1709.77 1581.08 1712.05C1578.29 1714.32 1576.22 1717.33 1574.85 1721.09C1573.52 1724.82 1572.85 1728.91 1572.85 1733.36C1572.85 1737.85 1573.52 1741.95 1574.85 1745.68C1576.22 1749.41 1578.29 1752.39 1581.08 1754.64C1583.9 1756.88 1587.44 1758 1591.72 1758ZM1652.98 1726.55V1768H1639.39V1698.18H1652.43V1709.55H1653.3C1654.9 1705.85 1657.42 1702.88 1660.84 1700.64C1664.3 1698.39 1668.64 1697.27 1673.89 1697.27C1678.64 1697.27 1682.81 1698.27 1686.39 1700.27C1689.96 1702.24 1692.73 1705.18 1694.7 1709.09C1696.67 1713 1697.66 1717.83 1697.66 1723.59V1768H1684.07V1725.23C1684.07 1720.17 1682.75 1716.21 1680.11 1713.36C1677.48 1710.48 1673.86 1709.05 1669.25 1709.05C1666.1 1709.05 1663.3 1709.73 1660.84 1711.09C1658.42 1712.45 1656.49 1714.45 1655.07 1717.09C1653.67 1719.7 1652.98 1722.85 1652.98 1726.55ZM1748.48 1698.18V1709.09H1710.34V1698.18H1748.48ZM1720.57 1681.45H1734.16V1747.5C1734.16 1750.14 1734.55 1752.12 1735.34 1753.45C1736.13 1754.76 1737.14 1755.65 1738.39 1756.14C1739.66 1756.59 1741.04 1756.82 1742.52 1756.82C1743.61 1756.82 1744.57 1756.74 1745.39 1756.59C1746.2 1756.44 1746.84 1756.32 1747.3 1756.23L1749.75 1767.45C1748.96 1767.76 1747.84 1768.06 1746.39 1768.36C1744.93 1768.7 1743.11 1768.88 1740.93 1768.91C1737.36 1768.97 1734.02 1768.33 1730.93 1767C1727.84 1765.67 1725.34 1763.61 1723.43 1760.82C1721.52 1758.03 1720.57 1754.53 1720.57 1750.32V1681.45ZM1763.51 1768V1698.18H1776.65V1709.27H1777.38C1778.65 1705.52 1780.89 1702.56 1784.1 1700.41C1787.34 1698.23 1791.01 1697.14 1795.1 1697.14C1795.95 1697.14 1796.95 1697.17 1798.1 1697.23C1799.28 1697.29 1800.21 1697.36 1800.88 1697.45V1710.45C1800.33 1710.3 1799.36 1710.14 1797.97 1709.95C1796.57 1709.74 1795.18 1709.64 1793.78 1709.64C1790.57 1709.64 1787.71 1710.32 1785.19 1711.68C1782.71 1713.02 1780.74 1714.88 1779.28 1717.27C1777.83 1719.64 1777.1 1722.33 1777.1 1725.36V1768H1763.51ZM1832.33 1769.55C1827.91 1769.55 1823.91 1768.73 1820.33 1767.09C1816.75 1765.42 1813.92 1763.02 1811.83 1759.86C1809.77 1756.71 1808.74 1752.85 1808.74 1748.27C1808.74 1744.33 1809.5 1741.09 1811.01 1738.55C1812.53 1736 1814.57 1733.98 1817.15 1732.5C1819.72 1731.02 1822.6 1729.89 1825.78 1729.14C1828.97 1728.38 1832.21 1727.8 1835.51 1727.41C1839.69 1726.92 1843.09 1726.53 1845.69 1726.23C1848.3 1725.89 1850.19 1725.36 1851.38 1724.64C1852.56 1723.91 1853.15 1722.73 1853.15 1721.09V1720.77C1853.15 1716.8 1852.03 1713.73 1849.78 1711.55C1847.57 1709.36 1844.27 1708.27 1839.88 1708.27C1835.3 1708.27 1831.69 1709.29 1829.06 1711.32C1826.45 1713.32 1824.65 1715.55 1823.65 1718L1810.88 1715.09C1812.39 1710.85 1814.6 1707.42 1817.51 1704.82C1820.45 1702.18 1823.83 1700.27 1827.65 1699.09C1831.47 1697.88 1835.48 1697.27 1839.69 1697.27C1842.48 1697.27 1845.44 1697.61 1848.56 1698.27C1851.71 1698.91 1854.65 1700.09 1857.38 1701.82C1860.13 1703.55 1862.39 1706.02 1864.15 1709.23C1865.91 1712.41 1866.78 1716.55 1866.78 1721.64V1768H1853.51V1758.45H1852.97C1852.09 1760.21 1850.77 1761.94 1849.01 1763.64C1847.25 1765.33 1845 1766.74 1842.24 1767.86C1839.48 1768.98 1836.18 1769.55 1832.33 1769.55ZM1835.28 1758.64C1839.04 1758.64 1842.25 1757.89 1844.92 1756.41C1847.62 1754.92 1849.66 1752.98 1851.06 1750.59C1852.48 1748.17 1853.19 1745.58 1853.19 1742.82V1733.82C1852.71 1734.3 1851.77 1734.76 1850.38 1735.18C1849.01 1735.58 1847.45 1735.92 1845.69 1736.23C1843.94 1736.5 1842.22 1736.76 1840.56 1737C1838.89 1737.21 1837.5 1737.39 1836.38 1737.55C1833.74 1737.88 1831.33 1738.44 1829.15 1739.23C1827 1740.02 1825.27 1741.15 1823.97 1742.64C1822.69 1744.09 1822.06 1746.03 1822.06 1748.45C1822.06 1751.82 1823.3 1754.36 1825.78 1756.09C1828.27 1757.79 1831.44 1758.64 1835.28 1758.64ZM1884.89 1768V1698.18H1898.48V1768H1884.89ZM1891.75 1687.41C1889.39 1687.41 1887.36 1686.62 1885.66 1685.05C1883.99 1683.44 1883.16 1681.53 1883.16 1679.32C1883.16 1677.08 1883.99 1675.17 1885.66 1673.59C1887.36 1671.98 1889.39 1671.18 1891.75 1671.18C1894.11 1671.18 1896.13 1671.98 1897.8 1673.59C1899.49 1675.17 1900.34 1677.08 1900.34 1679.32C1900.34 1681.53 1899.49 1683.44 1897.8 1685.05C1896.13 1686.62 1894.11 1687.41 1891.75 1687.41ZM1930.35 1726.55V1768H1916.76V1698.18H1929.81V1709.55H1930.67C1932.28 1705.85 1934.79 1702.88 1938.22 1700.64C1941.67 1698.39 1946.02 1697.27 1951.26 1697.27C1956.02 1697.27 1960.19 1698.27 1963.76 1700.27C1967.34 1702.24 1970.11 1705.18 1972.08 1709.09C1974.05 1713 1975.03 1717.83 1975.03 1723.59V1768H1961.44V1725.23C1961.44 1720.17 1960.13 1716.21 1957.49 1713.36C1954.85 1710.48 1951.23 1709.05 1946.62 1709.05C1943.47 1709.05 1940.67 1709.73 1938.22 1711.09C1935.79 1712.45 1933.87 1714.45 1932.44 1717.09C1931.05 1719.7 1930.35 1722.85 1930.35 1726.55ZM2025.85 1698.18V1709.09H1987.72V1698.18H2025.85ZM1997.94 1681.45H2011.53V1747.5C2011.53 1750.14 2011.93 1752.12 2012.72 1753.45C2013.5 1754.76 2014.52 1755.65 2015.76 1756.14C2017.03 1756.59 2018.41 1756.82 2019.9 1756.82C2020.99 1756.82 2021.94 1756.74 2022.76 1756.59C2023.58 1756.44 2024.22 1756.32 2024.67 1756.23L2027.12 1767.45C2026.34 1767.76 2025.22 1768.06 2023.76 1768.36C2022.31 1768.7 2020.49 1768.88 2018.31 1768.91C2014.73 1768.97 2011.4 1768.33 2008.31 1767C2005.22 1765.67 2002.72 1763.61 2000.81 1760.82C1998.9 1758.03 1997.94 1754.53 1997.94 1750.32V1681.45ZM2070.23 1769.41C2063.35 1769.41 2057.42 1767.94 2052.45 1765C2047.52 1762.03 2043.7 1757.86 2041 1752.5C2038.33 1747.11 2037 1740.79 2037 1733.55C2037 1726.39 2038.33 1720.09 2041 1714.64C2043.7 1709.18 2047.45 1704.92 2052.27 1701.86C2057.12 1698.8 2062.79 1697.27 2069.27 1697.27C2073.21 1697.27 2077.03 1697.92 2080.73 1699.23C2084.42 1700.53 2087.74 1702.58 2090.68 1705.36C2093.62 1708.15 2095.94 1711.77 2097.64 1716.23C2099.33 1720.65 2100.18 1726.03 2100.18 1732.36V1737.18H2044.68V1727H2086.86C2086.86 1723.42 2086.14 1720.26 2084.68 1717.5C2083.23 1714.71 2081.18 1712.52 2078.55 1710.91C2075.94 1709.3 2072.88 1708.5 2069.36 1708.5C2065.55 1708.5 2062.21 1709.44 2059.36 1711.32C2056.55 1713.17 2054.36 1715.59 2052.82 1718.59C2051.3 1721.56 2050.55 1724.79 2050.55 1728.27V1736.23C2050.55 1740.89 2051.36 1744.86 2053 1748.14C2054.67 1751.41 2056.98 1753.91 2059.95 1755.64C2062.92 1757.33 2066.39 1758.18 2070.36 1758.18C2072.94 1758.18 2075.29 1757.82 2077.41 1757.09C2079.53 1756.33 2081.36 1755.21 2082.91 1753.73C2084.45 1752.24 2085.64 1750.41 2086.45 1748.23L2099.32 1750.55C2098.29 1754.33 2096.44 1757.65 2093.77 1760.5C2091.14 1763.32 2087.82 1765.52 2083.82 1767.09C2079.85 1768.64 2075.32 1769.41 2070.23 1769.41ZM1539.64 1923V1853.18H1552.77V1864.27H1553.5C1554.77 1860.52 1557.02 1857.56 1560.23 1855.41C1563.47 1853.23 1567.14 1852.14 1571.23 1852.14C1572.08 1852.14 1573.08 1852.17 1574.23 1852.23C1575.41 1852.29 1576.33 1852.36 1577 1852.45V1865.45C1576.45 1865.3 1575.48 1865.14 1574.09 1864.95C1572.7 1864.74 1571.3 1864.64 1569.91 1864.64C1566.7 1864.64 1563.83 1865.32 1561.32 1866.68C1558.83 1868.02 1556.86 1869.88 1555.41 1872.27C1553.95 1874.64 1553.23 1877.33 1553.23 1880.36V1923H1539.64ZM1616.35 1924.41C1609.47 1924.41 1603.55 1922.94 1598.58 1920C1593.64 1917.03 1589.82 1912.86 1587.12 1907.5C1584.46 1902.11 1583.12 1895.79 1583.12 1888.55C1583.12 1881.39 1584.46 1875.09 1587.12 1869.64C1589.82 1864.18 1593.58 1859.92 1598.4 1856.86C1603.25 1853.8 1608.91 1852.27 1615.4 1852.27C1619.34 1852.27 1623.16 1852.92 1626.85 1854.23C1630.55 1855.53 1633.87 1857.58 1636.81 1860.36C1639.75 1863.15 1642.06 1866.77 1643.76 1871.23C1645.46 1875.65 1646.31 1881.03 1646.31 1887.36V1892.18H1590.81V1882H1632.99C1632.99 1878.42 1632.26 1875.26 1630.81 1872.5C1629.35 1869.71 1627.31 1867.52 1624.67 1865.91C1622.06 1864.3 1619 1863.5 1615.49 1863.5C1611.67 1863.5 1608.34 1864.44 1605.49 1866.32C1602.67 1868.17 1600.49 1870.59 1598.94 1873.59C1597.43 1876.56 1596.67 1879.79 1596.67 1883.27V1891.23C1596.67 1895.89 1597.49 1899.86 1599.12 1903.14C1600.79 1906.41 1603.11 1908.91 1606.08 1910.64C1609.05 1912.33 1612.52 1913.18 1616.49 1913.18C1619.06 1913.18 1621.41 1912.82 1623.53 1912.09C1625.66 1911.33 1627.49 1910.21 1629.03 1908.73C1630.58 1907.24 1631.76 1905.41 1632.58 1903.23L1645.44 1905.55C1644.41 1909.33 1642.56 1912.65 1639.9 1915.5C1637.26 1918.32 1633.94 1920.52 1629.94 1922.09C1625.97 1923.64 1621.44 1924.41 1616.35 1924.41ZM1713.7 1870.23L1701.39 1872.41C1700.87 1870.83 1700.05 1869.33 1698.93 1867.91C1697.84 1866.48 1696.36 1865.32 1694.48 1864.41C1692.6 1863.5 1690.25 1863.05 1687.43 1863.05C1683.58 1863.05 1680.37 1863.91 1677.8 1865.64C1675.22 1867.33 1673.93 1869.53 1673.93 1872.23C1673.93 1874.56 1674.8 1876.44 1676.52 1877.86C1678.25 1879.29 1681.04 1880.45 1684.89 1881.36L1695.98 1883.91C1702.4 1885.39 1707.19 1887.68 1710.34 1890.77C1713.49 1893.86 1715.07 1897.88 1715.07 1902.82C1715.07 1907 1713.86 1910.73 1711.43 1914C1709.04 1917.24 1705.69 1919.79 1701.39 1921.64C1697.11 1923.48 1692.16 1924.41 1686.52 1924.41C1678.7 1924.41 1672.33 1922.74 1667.39 1919.41C1662.45 1916.05 1659.42 1911.27 1658.3 1905.09L1671.43 1903.09C1672.25 1906.52 1673.93 1909.11 1676.48 1910.86C1679.02 1912.59 1682.34 1913.45 1686.43 1913.45C1690.89 1913.45 1694.45 1912.53 1697.11 1910.68C1699.78 1908.8 1701.11 1906.52 1701.11 1903.82C1701.11 1901.64 1700.3 1899.8 1698.66 1898.32C1697.05 1896.83 1694.58 1895.71 1691.25 1894.95L1679.43 1892.36C1672.92 1890.88 1668.1 1888.52 1664.98 1885.27C1661.89 1882.03 1660.34 1877.92 1660.34 1872.95C1660.34 1868.83 1661.49 1865.23 1663.8 1862.14C1666.1 1859.05 1669.28 1856.64 1673.34 1854.91C1677.4 1853.15 1682.05 1852.27 1687.3 1852.27C1694.84 1852.27 1700.78 1853.91 1705.11 1857.18C1709.45 1860.42 1712.31 1864.77 1713.7 1870.23ZM1759.42 1924.41C1752.88 1924.41 1747.16 1922.91 1742.28 1919.91C1737.41 1916.91 1733.62 1912.71 1730.92 1907.32C1728.22 1901.92 1726.88 1895.62 1726.88 1888.41C1726.88 1881.17 1728.22 1874.83 1730.92 1869.41C1733.62 1863.98 1737.41 1859.77 1742.28 1856.77C1747.16 1853.77 1752.88 1852.27 1759.42 1852.27C1765.97 1852.27 1771.68 1853.77 1776.56 1856.77C1781.44 1859.77 1785.22 1863.98 1787.92 1869.41C1790.62 1874.83 1791.97 1881.17 1791.97 1888.41C1791.97 1895.62 1790.62 1901.92 1787.92 1907.32C1785.22 1912.71 1781.44 1916.91 1776.56 1919.91C1771.68 1922.91 1765.97 1924.41 1759.42 1924.41ZM1759.47 1913C1763.71 1913 1767.22 1911.88 1770.01 1909.64C1772.8 1907.39 1774.86 1904.41 1776.19 1900.68C1777.56 1896.95 1778.24 1892.85 1778.24 1888.36C1778.24 1883.91 1777.56 1879.82 1776.19 1876.09C1774.86 1872.33 1772.8 1869.32 1770.01 1867.05C1767.22 1864.77 1763.71 1863.64 1759.47 1863.64C1755.19 1863.64 1751.65 1864.77 1748.83 1867.05C1746.04 1869.32 1743.97 1872.33 1742.6 1876.09C1741.27 1879.82 1740.6 1883.91 1740.6 1888.36C1740.6 1892.85 1741.27 1896.95 1742.6 1900.68C1743.97 1904.41 1746.04 1907.39 1748.83 1909.64C1751.65 1911.88 1755.19 1913 1759.47 1913ZM1851.36 1894.05V1853.18H1865V1923H1851.64V1910.91H1850.91C1849.3 1914.64 1846.73 1917.74 1843.18 1920.23C1839.67 1922.68 1835.29 1923.91 1830.05 1923.91C1825.56 1923.91 1821.59 1922.92 1818.14 1920.95C1814.71 1918.95 1812.02 1916 1810.05 1912.09C1808.11 1908.18 1807.14 1903.35 1807.14 1897.59V1853.18H1820.73V1895.95C1820.73 1900.71 1822.05 1904.5 1824.68 1907.32C1827.32 1910.14 1830.74 1911.55 1834.95 1911.55C1837.5 1911.55 1840.03 1910.91 1842.55 1909.64C1845.09 1908.36 1847.2 1906.44 1848.86 1903.86C1850.56 1901.29 1851.39 1898.02 1851.36 1894.05ZM1883.26 1923V1853.18H1896.4V1864.27H1897.12C1898.4 1860.52 1900.64 1857.56 1903.85 1855.41C1907.09 1853.23 1910.76 1852.14 1914.85 1852.14C1915.7 1852.14 1916.7 1852.17 1917.85 1852.23C1919.03 1852.29 1919.96 1852.36 1920.62 1852.45V1865.45C1920.08 1865.3 1919.11 1865.14 1917.72 1864.95C1916.32 1864.74 1914.93 1864.64 1913.53 1864.64C1910.32 1864.64 1907.46 1865.32 1904.94 1866.68C1902.46 1868.02 1900.49 1869.88 1899.03 1872.27C1897.58 1874.64 1896.85 1877.33 1896.85 1880.36V1923H1883.26ZM1959.3 1924.41C1952.54 1924.41 1946.72 1922.88 1941.84 1919.82C1936.99 1916.73 1933.27 1912.47 1930.66 1907.05C1928.05 1901.62 1926.75 1895.41 1926.75 1888.41C1926.75 1881.32 1928.08 1875.06 1930.75 1869.64C1933.42 1864.18 1937.17 1859.92 1942.02 1856.86C1946.87 1853.8 1952.58 1852.27 1959.16 1852.27C1964.46 1852.27 1969.19 1853.26 1973.34 1855.23C1977.49 1857.17 1980.84 1859.89 1983.39 1863.41C1985.96 1866.92 1987.49 1871.03 1987.98 1875.73H1974.75C1974.02 1872.45 1972.36 1869.64 1969.75 1867.27C1967.17 1864.91 1963.72 1863.73 1959.39 1863.73C1955.6 1863.73 1952.28 1864.73 1949.43 1866.73C1946.61 1868.7 1944.42 1871.52 1942.84 1875.18C1941.27 1878.82 1940.48 1883.12 1940.48 1888.09C1940.48 1893.18 1941.25 1897.58 1942.8 1901.27C1944.34 1904.97 1946.52 1907.83 1949.34 1909.86C1952.19 1911.89 1955.54 1912.91 1959.39 1912.91C1961.96 1912.91 1964.3 1912.44 1966.39 1911.5C1968.51 1910.53 1970.28 1909.15 1971.7 1907.36C1973.16 1905.58 1974.17 1903.42 1974.75 1900.91H1987.98C1987.49 1905.42 1986.02 1909.45 1983.57 1913C1981.11 1916.55 1977.83 1919.33 1973.7 1921.36C1969.61 1923.39 1964.81 1924.41 1959.3 1924.41ZM2032.6 1924.41C2025.72 1924.41 2019.8 1922.94 2014.83 1920C2009.89 1917.03 2006.07 1912.86 2003.38 1907.5C2000.71 1902.11 1999.38 1895.79 1999.38 1888.55C1999.38 1881.39 2000.71 1875.09 2003.38 1869.64C2006.07 1864.18 2009.83 1859.92 2014.65 1856.86C2019.5 1853.8 2025.16 1852.27 2031.65 1852.27C2035.59 1852.27 2039.41 1852.92 2043.1 1854.23C2046.8 1855.53 2050.12 1857.58 2053.06 1860.36C2056 1863.15 2058.31 1866.77 2060.01 1871.23C2061.71 1875.65 2062.56 1881.03 2062.56 1887.36V1892.18H2007.06V1882H2049.24C2049.24 1878.42 2048.51 1875.26 2047.06 1872.5C2045.6 1869.71 2043.56 1867.52 2040.92 1865.91C2038.31 1864.3 2035.25 1863.5 2031.74 1863.5C2027.92 1863.5 2024.59 1864.44 2021.74 1866.32C2018.92 1868.17 2016.74 1870.59 2015.19 1873.59C2013.68 1876.56 2012.92 1879.79 2012.92 1883.27V1891.23C2012.92 1895.89 2013.74 1899.86 2015.38 1903.14C2017.04 1906.41 2019.36 1908.91 2022.33 1910.64C2025.3 1912.33 2028.77 1913.18 2032.74 1913.18C2035.31 1913.18 2037.66 1912.82 2039.78 1912.09C2041.91 1911.33 2043.74 1910.21 2045.28 1908.73C2046.83 1907.24 2048.01 1905.41 2048.83 1903.23L2061.69 1905.55C2060.66 1909.33 2058.81 1912.65 2056.15 1915.5C2053.51 1918.32 2050.19 1920.52 2046.19 1922.09C2042.22 1923.64 2037.69 1924.41 2032.6 1924.41Z" fill="black"/>
<rect x="7.22266" y="797.567" width="1394.67" height="1394" fill="#E6E6E6" stroke="black" stroke-width="10"/>
<path d="M351.421 1767.97L351.493 1674.88L384.674 1674.88C391.917 1674.88 397.916 1676.2 402.671 1678.84C407.427 1681.47 410.985 1685.08 413.345 1689.66C415.705 1694.2 416.883 1699.32 416.878 1705.02C416.874 1710.75 415.673 1715.9 413.276 1720.47C410.908 1725.02 407.33 1728.63 402.54 1731.29C397.78 1733.93 391.794 1735.25 384.582 1735.25L361.764 1735.25L361.773 1723.34L383.319 1723.34C387.895 1723.34 391.607 1722.55 394.457 1720.97C397.307 1719.37 399.399 1717.19 400.735 1714.43C402.07 1711.67 402.739 1708.53 402.742 1705.02C402.745 1701.5 402.08 1698.38 400.749 1695.66C399.418 1692.93 397.314 1690.79 394.436 1689.25C391.589 1687.7 387.832 1686.93 383.165 1686.93L365.529 1686.93L365.466 1767.97L351.421 1767.97ZM460.738 1769.38C454.192 1769.38 448.481 1767.88 443.605 1764.88C438.728 1761.88 434.944 1757.69 432.251 1752.29C429.558 1746.9 428.215 1740.59 428.22 1733.38C428.226 1726.14 429.579 1719.81 432.28 1714.38C434.981 1708.96 438.773 1704.75 443.654 1701.75C448.535 1698.75 454.248 1697.25 460.793 1697.25C467.339 1697.25 473.05 1698.75 477.926 1701.75C482.803 1704.75 486.587 1708.96 489.28 1714.38C491.973 1719.81 493.317 1726.14 493.311 1733.38C493.305 1740.59 491.952 1746.9 489.251 1752.29C486.55 1757.69 482.759 1761.88 477.878 1764.88C472.997 1767.88 467.283 1769.38 460.738 1769.38ZM460.792 1757.97C465.034 1757.97 468.551 1756.85 471.34 1754.61C474.13 1752.37 476.193 1749.38 477.529 1745.66C478.895 1741.93 479.58 1737.82 479.584 1733.34C479.587 1728.88 478.909 1724.79 477.548 1721.06C476.217 1717.31 474.159 1714.29 471.373 1712.02C468.587 1709.75 465.073 1708.61 460.83 1708.61C456.557 1708.61 453.011 1709.75 450.191 1712.02C447.402 1714.29 445.323 1717.31 443.957 1721.06C442.621 1724.79 441.951 1728.88 441.947 1733.34C441.944 1737.82 442.607 1741.93 443.938 1745.66C445.299 1749.38 447.372 1752.37 450.158 1754.61C452.975 1756.85 456.519 1757.97 460.792 1757.97ZM541.1 1698.16L541.091 1709.06L502.955 1709.06L502.963 1698.16L541.1 1698.16ZM513.203 1681.43L526.794 1681.43L526.743 1747.47C526.741 1750.11 527.134 1752.09 527.921 1753.43C528.707 1754.73 529.722 1755.63 530.964 1756.11C532.236 1756.56 533.615 1756.79 535.1 1756.79C536.191 1756.79 537.145 1756.72 537.964 1756.56C538.782 1756.41 539.418 1756.29 539.873 1756.2L542.319 1767.43C541.531 1767.73 540.409 1768.03 538.955 1768.34C537.5 1768.67 535.681 1768.85 533.5 1768.88C529.924 1768.94 526.591 1768.31 523.501 1766.97C520.411 1765.64 517.913 1763.58 516.006 1760.79C514.099 1758 513.147 1754.5 513.15 1750.29L513.203 1681.43ZM585.42 1769.38C578.541 1769.38 572.618 1767.91 567.65 1764.97C562.713 1762 558.898 1757.84 556.205 1752.47C553.543 1747.08 552.214 1740.76 552.22 1733.52C552.226 1726.37 553.564 1720.06 556.235 1714.61C558.936 1709.16 562.697 1704.9 567.517 1701.84C572.368 1698.78 578.036 1697.25 584.521 1697.25C588.46 1697.25 592.278 1697.9 595.974 1699.2C599.67 1700.5 602.986 1702.55 605.924 1705.34C608.861 1708.13 611.176 1711.75 612.87 1716.2C614.563 1720.63 615.408 1726 615.403 1732.34L615.399 1737.16L559.899 1737.16L559.907 1726.97L602.089 1726.97C602.091 1723.4 601.367 1720.23 599.914 1717.47C598.462 1714.69 596.418 1712.49 593.783 1710.88C591.178 1709.28 588.118 1708.47 584.603 1708.47C580.785 1708.47 577.451 1709.41 574.601 1711.29C571.781 1713.14 569.597 1715.56 568.05 1718.56C566.532 1721.53 565.772 1724.76 565.77 1728.25L565.763 1736.2C565.76 1740.87 566.575 1744.84 568.209 1748.11C569.873 1751.38 572.189 1753.88 575.158 1755.61C578.126 1757.31 581.595 1758.16 585.565 1758.16C588.14 1758.16 590.489 1757.79 592.611 1757.06C594.733 1756.31 596.567 1755.19 598.114 1753.7C599.66 1752.22 600.843 1750.38 601.663 1748.2L614.525 1750.52C613.492 1754.31 611.641 1757.63 608.972 1760.47C606.333 1763.29 603.014 1765.49 599.012 1767.06C595.041 1768.61 590.511 1769.38 585.42 1769.38ZM644.078 1726.52L644.046 1767.97L630.455 1767.97L630.509 1698.16L643.554 1698.16L643.545 1709.52L644.409 1709.52C646.018 1705.82 648.535 1702.85 651.961 1700.61C655.418 1698.37 659.767 1697.25 665.009 1697.25C669.767 1697.25 673.933 1698.25 677.507 1700.25C681.081 1702.22 683.852 1705.16 685.818 1709.06C687.785 1712.97 688.766 1717.81 688.762 1723.56L688.728 1767.97L675.137 1767.97L675.17 1725.2C675.174 1720.14 673.858 1716.19 671.224 1713.34C668.59 1710.46 664.97 1709.02 660.364 1709.02C657.212 1709.02 654.409 1709.7 651.953 1711.06C649.528 1712.43 647.602 1714.43 646.176 1717.06C644.78 1719.67 644.081 1722.82 644.078 1726.52ZM739.6 1698.16L739.591 1709.06L701.455 1709.06L701.463 1698.16L739.6 1698.16ZM711.703 1681.43L725.294 1681.43L725.243 1747.47C725.241 1750.11 725.634 1752.09 726.421 1753.43C727.207 1754.73 728.222 1755.63 729.464 1756.11C730.736 1756.56 732.115 1756.79 733.6 1756.79C734.691 1756.79 735.645 1756.72 736.464 1756.56C737.282 1756.41 737.918 1756.29 738.373 1756.2L740.819 1767.43C740.031 1767.73 738.909 1768.03 737.455 1768.34C736 1768.67 734.181 1768.85 732 1768.88C728.424 1768.94 725.091 1768.31 722.001 1766.97C718.911 1765.64 716.413 1763.58 714.506 1760.79C712.599 1758 711.647 1754.5 711.65 1750.29L711.703 1681.43ZM754.58 1767.97L754.634 1698.16L768.225 1698.16L768.171 1767.97L754.58 1767.97ZM761.506 1687.38C759.142 1687.38 757.112 1686.59 755.417 1685.02C753.751 1683.41 752.919 1681.5 752.921 1679.29C752.923 1677.05 753.757 1675.14 755.425 1673.56C757.124 1671.96 759.154 1671.16 761.518 1671.16C763.882 1671.16 765.896 1671.96 767.562 1673.56C769.257 1675.14 770.104 1677.05 770.103 1679.29C770.101 1681.5 769.251 1683.41 767.553 1685.02C765.885 1686.59 763.869 1687.38 761.506 1687.38ZM806.772 1769.52C802.348 1769.52 798.348 1768.7 794.774 1767.06C791.199 1765.4 788.368 1762.99 786.279 1759.84C784.221 1756.69 783.194 1752.82 783.197 1748.25C783.2 1744.31 783.96 1741.06 785.478 1738.52C786.995 1735.97 789.042 1733.96 791.619 1732.47C794.195 1730.99 797.075 1729.87 800.258 1729.11C803.44 1728.35 806.683 1727.78 809.986 1727.38C814.168 1726.9 817.563 1726.5 820.169 1726.2C822.775 1725.87 824.67 1725.34 825.852 1724.61C827.034 1723.88 827.626 1722.7 827.627 1721.06L827.628 1720.75C827.631 1716.78 826.512 1713.7 824.271 1711.52C822.061 1709.34 818.758 1708.25 814.364 1708.25C809.789 1708.25 806.182 1709.26 803.544 1711.29C800.936 1713.29 799.132 1715.52 798.13 1717.97L785.359 1715.06C786.878 1710.82 789.092 1707.4 792.004 1704.79C794.945 1702.16 798.325 1700.25 802.144 1699.06C805.963 1697.85 809.979 1697.25 814.191 1697.25C816.979 1697.25 819.933 1697.58 823.054 1698.25C826.205 1698.88 829.144 1700.06 831.869 1701.79C834.626 1703.52 836.881 1705.99 838.636 1709.2C840.392 1712.38 841.267 1716.52 841.263 1721.61L841.228 1767.97L827.955 1767.97L827.962 1758.43L827.417 1758.43C826.537 1760.19 825.217 1761.91 823.458 1763.61C821.699 1765.31 819.441 1766.72 816.682 1767.84C813.924 1768.96 810.62 1769.52 806.772 1769.52ZM809.735 1758.61C813.492 1758.61 816.705 1757.87 819.373 1756.38C822.071 1754.9 824.118 1752.96 825.514 1750.56C826.94 1748.14 827.654 1745.55 827.656 1742.79L827.663 1733.79C827.178 1734.28 826.238 1734.73 824.844 1735.16C823.48 1735.55 821.919 1735.9 820.161 1736.2C818.403 1736.47 816.691 1736.73 815.024 1736.97C813.357 1737.19 811.963 1737.37 810.842 1737.52C808.205 1737.85 805.796 1738.41 803.613 1739.2C801.461 1739.99 799.733 1741.13 798.429 1742.61C797.155 1744.06 796.517 1746 796.515 1748.43C796.513 1751.79 797.753 1754.34 800.237 1756.06C802.72 1757.76 805.886 1758.61 809.735 1758.61ZM872.993 1674.88L872.921 1767.97L859.33 1767.97L859.402 1674.88L872.993 1674.88ZM891.205 1767.97L891.259 1698.16L904.85 1698.16L904.796 1767.97L891.205 1767.97ZM898.131 1687.38C895.767 1687.38 893.737 1686.59 892.042 1685.02C890.376 1683.41 889.544 1681.5 889.546 1679.29C889.548 1677.05 890.382 1675.14 892.05 1673.56C893.749 1671.96 895.779 1671.16 898.143 1671.16C900.507 1671.16 902.521 1671.96 904.187 1673.56C905.882 1675.14 906.729 1677.05 906.728 1679.29C906.726 1681.5 905.876 1683.41 904.178 1685.02C902.51 1686.59 900.494 1687.38 898.131 1687.38ZM955.725 1698.16L955.716 1709.06L917.58 1709.06L917.588 1698.16L955.725 1698.16ZM927.828 1681.43L941.419 1681.43L941.368 1747.47C941.366 1750.11 941.759 1752.09 942.546 1753.43C943.332 1754.73 944.347 1755.63 945.589 1756.11C946.861 1756.56 948.24 1756.79 949.725 1756.79C950.816 1756.79 951.77 1756.72 952.589 1756.56C953.407 1756.41 954.043 1756.29 954.498 1756.2L956.944 1767.43C956.156 1767.73 955.034 1768.03 953.58 1768.34C952.125 1768.67 950.306 1768.85 948.125 1768.88C944.549 1768.94 941.216 1768.31 938.126 1766.97C935.036 1765.64 932.538 1763.58 930.631 1760.79C928.724 1758 927.772 1754.5 927.775 1750.29L927.828 1681.43ZM1000.04 1769.38C993.166 1769.38 987.243 1767.91 982.275 1764.97C977.338 1762 973.523 1757.84 970.83 1752.47C968.168 1747.08 966.839 1740.76 966.845 1733.52C966.851 1726.37 968.189 1720.06 970.86 1714.61C973.561 1709.16 977.322 1704.9 982.142 1701.84C986.993 1698.78 992.661 1697.25 999.146 1697.25C1003.09 1697.25 1006.9 1697.9 1010.6 1699.2C1014.29 1700.5 1017.61 1702.55 1020.55 1705.34C1023.49 1708.13 1025.8 1711.75 1027.49 1716.2C1029.19 1720.63 1030.03 1726 1030.03 1732.34L1030.02 1737.16L974.524 1737.16L974.532 1726.97L1016.71 1726.97C1016.72 1723.4 1015.99 1720.23 1014.54 1717.47C1013.09 1714.69 1011.04 1712.49 1008.41 1710.88C1005.8 1709.28 1002.74 1708.47 999.228 1708.47C995.41 1708.47 992.076 1709.41 989.226 1711.29C986.406 1713.14 984.222 1715.56 982.675 1718.56C981.157 1721.53 980.397 1724.76 980.395 1728.25L980.388 1736.2C980.385 1740.87 981.2 1744.84 982.834 1748.11C984.498 1751.38 986.814 1753.88 989.783 1755.61C992.751 1757.31 996.22 1758.16 1000.19 1758.16C1002.77 1758.16 1005.11 1757.79 1007.24 1757.06C1009.36 1756.31 1011.19 1755.19 1012.74 1753.7C1014.29 1752.22 1015.47 1750.38 1016.29 1748.2L1029.15 1750.52C1028.12 1754.31 1026.27 1757.63 1023.6 1760.47C1020.96 1763.29 1017.64 1765.49 1013.64 1767.06C1009.67 1768.61 1005.14 1769.38 1000.04 1769.38ZM993.016 1688.84L1003.67 1667.88L1017.99 1667.88L1003.88 1688.84L993.016 1688.84ZM485.835 1922.97L485.889 1853.16L498.935 1853.16L498.926 1864.52L499.789 1864.52C501.247 1860.67 503.628 1857.67 506.933 1855.52C510.237 1853.34 514.193 1852.25 518.799 1852.25C523.466 1852.25 527.374 1853.34 530.524 1855.52C533.704 1857.7 536.05 1860.7 537.562 1864.52L538.289 1864.52C539.959 1860.79 542.613 1857.82 546.251 1855.61C549.889 1853.37 554.223 1852.25 559.253 1852.25C565.587 1852.25 570.752 1854.23 574.749 1858.2C578.776 1862.17 580.787 1868.16 580.78 1876.16L580.744 1922.97L567.153 1922.97L567.189 1877.43C567.192 1872.7 565.907 1869.28 563.333 1867.16C560.759 1865.03 557.684 1863.97 554.108 1863.97C549.684 1863.97 546.243 1865.34 543.787 1868.06C541.33 1870.76 540.1 1874.23 540.097 1878.47L540.063 1922.97L526.517 1922.97L526.553 1876.56C526.556 1872.78 525.376 1869.73 523.014 1867.43C520.653 1865.13 517.578 1863.97 513.79 1863.97C511.214 1863.97 508.835 1864.66 506.652 1866.02C504.499 1867.35 502.756 1869.22 501.42 1871.61C500.115 1874 499.462 1876.78 499.459 1879.93L499.426 1922.97L485.835 1922.97ZM619.277 1924.52C614.853 1924.52 610.854 1923.7 607.279 1922.06C603.705 1920.4 600.873 1917.99 598.785 1914.84C596.727 1911.69 595.699 1907.82 595.703 1903.25C595.706 1899.31 596.466 1896.06 597.983 1893.52C599.5 1890.97 601.547 1888.96 604.124 1887.47C606.701 1885.99 609.581 1884.87 612.763 1884.11C615.945 1883.35 619.188 1882.78 622.492 1882.38C626.674 1881.9 630.068 1881.5 632.674 1881.2C635.281 1880.87 637.175 1880.34 638.357 1879.61C639.54 1878.88 640.132 1877.7 640.133 1876.06L640.133 1875.75C640.136 1871.78 639.017 1868.7 636.777 1866.52C634.566 1864.34 631.264 1863.25 626.87 1863.25C622.294 1863.25 618.687 1864.26 616.049 1866.29C613.442 1868.29 611.637 1870.52 610.635 1872.97L597.865 1870.06C599.383 1865.82 601.598 1862.4 604.509 1859.79C607.45 1857.16 610.831 1855.25 614.65 1854.06C618.469 1852.85 622.485 1852.25 626.697 1852.25C629.485 1852.25 632.439 1852.58 635.56 1853.25C638.711 1853.88 641.649 1855.06 644.375 1856.79C647.131 1858.52 649.387 1860.99 651.142 1864.2C652.897 1867.38 653.773 1871.52 653.769 1876.61L653.733 1922.97L640.46 1922.97L640.468 1913.43L639.922 1913.43C639.042 1915.19 637.723 1916.91 635.964 1918.61C634.205 1920.31 631.946 1921.72 629.188 1922.84C626.429 1923.96 623.126 1924.52 619.277 1924.52ZM622.24 1913.61C625.998 1913.61 629.21 1912.87 631.878 1911.38C634.576 1909.9 636.623 1907.96 638.019 1905.56C639.445 1903.14 640.159 1900.55 640.162 1897.79L640.168 1888.79C639.683 1889.28 638.743 1889.73 637.349 1890.16C635.985 1890.55 634.424 1890.9 632.667 1891.2C630.909 1891.47 629.196 1891.73 627.53 1891.97C625.863 1892.19 624.469 1892.37 623.347 1892.52C620.711 1892.85 618.301 1893.41 616.119 1894.2C613.967 1894.99 612.239 1896.13 610.934 1897.61C609.661 1899.06 609.023 1901 609.021 1903.43C609.018 1906.79 610.259 1909.34 612.742 1911.06C615.226 1912.76 618.392 1913.61 622.24 1913.61ZM671.835 1922.97L671.889 1853.16L685.025 1853.16L685.017 1864.25L685.744 1864.25C687.02 1860.49 689.265 1857.53 692.478 1855.38C695.722 1853.2 699.39 1852.11 703.481 1852.11C704.329 1852.11 705.329 1852.14 706.481 1852.2C707.663 1852.26 708.587 1852.34 709.253 1852.43L709.243 1865.43C708.698 1865.28 707.728 1865.11 706.335 1864.93C704.941 1864.72 703.547 1864.61 702.153 1864.61C698.941 1864.61 696.077 1865.29 693.561 1866.66C691.075 1867.99 689.104 1869.85 687.647 1872.25C686.191 1874.61 685.461 1877.31 685.459 1880.34L685.426 1922.97L671.835 1922.97ZM747.868 1924.38C741.111 1924.38 735.294 1922.85 730.417 1919.79C725.571 1916.7 721.847 1912.44 719.245 1907.02C716.643 1901.59 715.345 1895.38 715.351 1888.38C715.356 1881.29 716.694 1875.03 719.365 1869.61C722.036 1864.16 725.797 1859.9 730.648 1856.84C735.498 1853.78 741.212 1852.25 747.788 1852.25C753.091 1852.25 757.817 1853.23 761.967 1855.2C766.117 1857.14 769.463 1859.87 772.006 1863.38C774.579 1866.9 776.106 1871 776.588 1875.7L763.36 1875.7C762.636 1872.43 760.971 1869.61 758.367 1867.25C755.793 1864.88 752.339 1863.7 748.006 1863.7C744.218 1863.7 740.899 1864.7 738.049 1866.7C735.229 1868.67 733.03 1871.49 731.452 1875.16C729.873 1878.79 729.082 1883.09 729.078 1888.06C729.074 1893.16 729.844 1897.55 731.386 1901.25C732.929 1904.94 735.108 1907.81 737.925 1909.84C740.772 1911.87 744.12 1912.88 747.968 1912.88C750.544 1912.88 752.878 1912.41 754.969 1911.47C757.091 1910.5 758.865 1909.13 760.291 1907.34C761.746 1905.55 762.763 1903.4 763.341 1900.88L776.568 1900.88C776.08 1905.4 774.607 1909.43 772.15 1912.97C769.693 1916.52 766.403 1919.31 762.28 1921.34C758.187 1923.37 753.383 1924.38 747.868 1924.38ZM804.708 1881.52L804.676 1922.97L791.085 1922.97L791.157 1829.88L804.566 1829.88L804.539 1864.52L805.403 1864.52C807.042 1860.76 809.545 1857.78 812.91 1855.56C816.275 1853.35 820.67 1852.25 826.094 1852.25C830.882 1852.25 835.063 1853.23 838.638 1855.2C842.242 1857.17 845.028 1860.11 846.994 1864.02C848.991 1867.9 849.988 1872.75 849.983 1878.56L849.949 1922.97L836.358 1922.97L836.391 1880.2C836.395 1875.08 835.08 1871.11 832.446 1868.29C829.811 1865.44 826.146 1864.02 821.449 1864.02C818.237 1864.02 815.357 1864.7 812.811 1866.06C810.295 1867.43 808.308 1869.43 806.852 1872.06C805.426 1874.67 804.711 1877.82 804.708 1881.52ZM898.175 1924.38C891.296 1924.38 885.373 1922.91 880.406 1919.97C875.469 1917 871.654 1912.84 868.961 1907.47C866.298 1902.08 864.97 1895.76 864.975 1888.52C864.981 1881.37 866.319 1875.06 868.99 1869.61C871.691 1864.16 875.452 1859.9 880.273 1856.84C885.123 1853.78 890.791 1852.25 897.276 1852.25C901.216 1852.25 905.033 1852.9 908.729 1854.2C912.425 1855.5 915.742 1857.55 918.679 1860.34C921.616 1863.13 923.932 1866.75 925.625 1871.2C927.319 1875.63 928.163 1881 928.158 1887.34L928.155 1892.16L872.654 1892.16L872.662 1881.97L914.844 1881.97C914.847 1878.4 914.122 1875.23 912.67 1872.47C911.217 1869.69 909.174 1867.49 906.538 1865.88C903.934 1864.28 900.874 1863.47 897.358 1863.47C893.54 1863.47 890.206 1864.41 887.356 1866.29C884.537 1868.14 882.353 1870.56 880.805 1873.56C879.288 1876.53 878.528 1879.76 878.525 1883.25L878.519 1891.2C878.515 1895.87 879.33 1899.84 880.964 1903.11C882.628 1906.38 884.945 1908.88 887.913 1910.61C890.881 1912.31 894.35 1913.16 898.32 1913.16C900.896 1913.16 903.245 1912.79 905.366 1912.06C907.488 1911.31 909.322 1910.19 910.869 1908.7C912.416 1907.22 913.599 1905.38 914.419 1903.2L927.281 1905.52C926.247 1909.31 924.396 1912.63 921.727 1915.47C919.089 1918.29 915.769 1920.49 911.768 1922.06C907.797 1923.61 903.266 1924.38 898.175 1924.38ZM891.146 1843.84L901.799 1822.88L916.117 1822.88L902.01 1843.84L891.146 1843.84Z" fill="black"/>
<rect x="805.516" y="9" width="1389.48" height="1396.4" fill="#E6E6E6" stroke="black" stroke-width="10"/>
<rect x="804.426" y="798.115" width="595.145" height="607.769" fill="#1E3758"/>
<rect x="804.426" y="798.115" width="595.145" height="607.769" stroke="black" stroke-width="10"/>
<path d="M871.665 1071V977.909H904.847C912.089 977.909 918.089 979.227 922.847 981.864C927.604 984.5 931.165 988.106 933.528 992.682C935.892 997.227 937.074 1002.35 937.074 1008.05C937.074 1013.77 935.877 1018.92 933.483 1023.5C931.119 1028.05 927.544 1031.65 922.756 1034.32C917.998 1036.95 912.013 1038.27 904.801 1038.27H881.983V1026.36H903.528C908.104 1026.36 911.816 1025.58 914.665 1024C917.513 1022.39 919.604 1020.21 920.938 1017.45C922.271 1014.7 922.938 1011.56 922.938 1008.05C922.938 1004.53 922.271 1001.41 920.938 998.682C919.604 995.955 917.498 993.818 914.619 992.273C911.771 990.727 908.013 989.955 903.347 989.955H885.71V1071H871.665ZM952.449 1071V1001.18H965.585V1012.27H966.312C967.585 1008.52 969.828 1005.56 973.04 1003.41C976.282 1001.23 979.949 1000.14 984.04 1000.14C984.888 1000.14 985.888 1000.17 987.04 1000.23C988.222 1000.29 989.146 1000.36 989.812 1000.45V1013.45C989.267 1013.3 988.297 1013.14 986.903 1012.95C985.509 1012.74 984.116 1012.64 982.722 1012.64C979.509 1012.64 976.646 1013.32 974.131 1014.68C971.646 1016.02 969.676 1017.88 968.222 1020.27C966.767 1022.64 966.04 1025.33 966.04 1028.36V1071H952.449ZM1028.48 1072.41C1021.94 1072.41 1016.23 1070.91 1011.35 1067.91C1006.47 1064.91 1002.68 1060.71 999.983 1055.32C997.286 1049.92 995.938 1043.62 995.938 1036.41C995.938 1029.17 997.286 1022.83 999.983 1017.41C1002.68 1011.98 1006.47 1007.77 1011.35 1004.77C1016.23 1001.77 1021.94 1000.27 1028.48 1000.27C1035.03 1000.27 1040.74 1001.77 1045.62 1004.77C1050.5 1007.77 1054.29 1011.98 1056.98 1017.41C1059.68 1022.83 1061.03 1029.17 1061.03 1036.41C1061.03 1043.62 1059.68 1049.92 1056.98 1055.32C1054.29 1060.71 1050.5 1064.91 1045.62 1067.91C1040.74 1070.91 1035.03 1072.41 1028.48 1072.41ZM1028.53 1061C1032.77 1061 1036.29 1059.88 1039.07 1057.64C1041.86 1055.39 1043.92 1052.41 1045.26 1048.68C1046.62 1044.95 1047.3 1040.85 1047.3 1036.36C1047.3 1031.91 1046.62 1027.82 1045.26 1024.09C1043.92 1020.33 1041.86 1017.32 1039.07 1015.05C1036.29 1012.77 1032.77 1011.64 1028.53 1011.64C1024.26 1011.64 1020.71 1012.77 1017.89 1015.05C1015.1 1017.32 1013.03 1020.33 1011.66 1024.09C1010.33 1027.82 1009.66 1031.91 1009.66 1036.36C1009.66 1040.85 1010.33 1044.95 1011.66 1048.68C1013.03 1052.41 1015.1 1055.39 1017.89 1057.64C1020.71 1059.88 1024.26 1061 1028.53 1061ZM1102.34 1072.36C1096.7 1072.36 1091.67 1070.92 1087.24 1068.05C1082.85 1065.14 1079.4 1061 1076.88 1055.64C1074.4 1050.24 1073.15 1043.77 1073.15 1036.23C1073.15 1028.68 1074.41 1022.23 1076.93 1016.86C1079.47 1011.5 1082.96 1007.39 1087.38 1004.55C1091.8 1001.7 1096.82 1000.27 1102.43 1000.27C1106.76 1000.27 1110.24 1001 1112.88 1002.45C1115.55 1003.88 1117.61 1005.55 1119.06 1007.45C1120.55 1009.36 1121.7 1011.05 1122.52 1012.5H1123.34V977.909H1136.93V1071H1123.65V1060.14H1122.52C1121.7 1061.62 1120.52 1063.32 1118.97 1065.23C1117.46 1067.14 1115.37 1068.8 1112.7 1070.23C1110.03 1071.65 1106.58 1072.36 1102.34 1072.36ZM1105.34 1060.77C1109.24 1060.77 1112.55 1059.74 1115.24 1057.68C1117.97 1055.59 1120.03 1052.7 1121.43 1049C1122.85 1045.3 1123.56 1041 1123.56 1036.09C1123.56 1031.24 1122.87 1027 1121.47 1023.36C1120.08 1019.73 1118.03 1016.89 1115.34 1014.86C1112.64 1012.83 1109.3 1011.82 1105.34 1011.82C1101.24 1011.82 1097.84 1012.88 1095.11 1015C1092.38 1017.12 1090.32 1020.02 1088.93 1023.68C1087.56 1027.35 1086.88 1031.48 1086.88 1036.09C1086.88 1040.76 1087.58 1044.95 1088.97 1048.68C1090.37 1052.41 1092.43 1055.36 1095.15 1057.55C1097.91 1059.7 1101.3 1060.77 1105.34 1060.77ZM1200.55 1042.05V1001.18H1214.19V1071H1200.82V1058.91H1200.1C1198.49 1062.64 1195.91 1065.74 1192.37 1068.23C1188.85 1070.68 1184.48 1071.91 1179.23 1071.91C1174.75 1071.91 1170.78 1070.92 1167.32 1068.95C1163.9 1066.95 1161.2 1064 1159.23 1060.09C1157.29 1056.18 1156.32 1051.35 1156.32 1045.59V1001.18H1169.91V1043.95C1169.91 1048.71 1171.23 1052.5 1173.87 1055.32C1176.51 1058.14 1179.93 1059.55 1184.14 1059.55C1186.69 1059.55 1189.22 1058.91 1191.73 1057.64C1194.28 1056.36 1196.38 1054.44 1198.05 1051.86C1199.75 1049.29 1200.58 1046.02 1200.55 1042.05ZM1261.86 1072.41C1255.1 1072.41 1249.28 1070.88 1244.4 1067.82C1239.55 1064.73 1235.83 1060.47 1233.22 1055.05C1230.62 1049.62 1229.31 1043.41 1229.31 1036.41C1229.31 1029.32 1230.65 1023.06 1233.31 1017.64C1235.98 1012.18 1239.74 1007.92 1244.59 1004.86C1249.43 1001.8 1255.15 1000.27 1261.72 1000.27C1267.02 1000.27 1271.75 1001.26 1275.9 1003.23C1280.05 1005.17 1283.4 1007.89 1285.95 1011.41C1288.52 1014.92 1290.05 1019.03 1290.54 1023.73H1277.31C1276.59 1020.45 1274.92 1017.64 1272.31 1015.27C1269.74 1012.91 1266.28 1011.73 1261.95 1011.73C1258.16 1011.73 1254.84 1012.73 1251.99 1014.73C1249.18 1016.7 1246.98 1019.52 1245.4 1023.18C1243.83 1026.82 1243.04 1031.12 1243.04 1036.09C1243.04 1041.18 1243.81 1045.58 1245.36 1049.27C1246.9 1052.97 1249.09 1055.83 1251.9 1057.86C1254.75 1059.89 1258.1 1060.91 1261.95 1060.91C1264.52 1060.91 1266.86 1060.44 1268.95 1059.5C1271.07 1058.53 1272.84 1057.15 1274.27 1055.36C1275.72 1053.58 1276.74 1051.42 1277.31 1048.91H1290.54C1290.05 1053.42 1288.59 1057.45 1286.13 1061C1283.68 1064.55 1280.39 1067.33 1276.27 1069.36C1272.18 1071.39 1267.37 1072.41 1261.86 1072.41ZM1337.66 1001.18V1012.09H1299.53V1001.18H1337.66ZM1309.76 984.455H1323.35V1050.5C1323.35 1053.14 1323.74 1055.12 1324.53 1056.45C1325.32 1057.76 1326.33 1058.65 1327.57 1059.14C1328.85 1059.59 1330.23 1059.82 1331.71 1059.82C1332.8 1059.82 1333.76 1059.74 1334.57 1059.59C1335.39 1059.44 1336.03 1059.32 1336.48 1059.23L1338.94 1070.45C1338.15 1070.76 1337.03 1071.06 1335.57 1071.36C1334.12 1071.7 1332.3 1071.88 1330.12 1071.91C1326.54 1071.97 1323.21 1071.33 1320.12 1070C1317.03 1068.67 1314.53 1066.61 1312.62 1063.82C1310.71 1061.03 1309.76 1057.53 1309.76 1053.32V984.455ZM1008.11 1156.18L982.795 1226H968.25L942.886 1156.18H957.477L975.159 1209.91H975.886L993.523 1156.18H1008.11ZM1039.2 1227.55C1034.78 1227.55 1030.78 1226.73 1027.2 1225.09C1023.63 1223.42 1020.8 1221.02 1018.7 1217.86C1016.64 1214.71 1015.61 1210.85 1015.61 1206.27C1015.61 1202.33 1016.37 1199.09 1017.89 1196.55C1019.4 1194 1021.45 1191.98 1024.02 1190.5C1026.6 1189.02 1029.48 1187.89 1032.66 1187.14C1035.84 1186.38 1039.08 1185.8 1042.39 1185.41C1046.57 1184.92 1049.96 1184.53 1052.57 1184.23C1055.17 1183.89 1057.07 1183.36 1058.25 1182.64C1059.43 1181.91 1060.02 1180.73 1060.02 1179.09V1178.77C1060.02 1174.8 1058.9 1171.73 1056.66 1169.55C1054.45 1167.36 1051.14 1166.27 1046.75 1166.27C1042.17 1166.27 1038.57 1167.29 1035.93 1169.32C1033.33 1171.32 1031.52 1173.55 1030.52 1176L1017.75 1173.09C1019.27 1168.85 1021.48 1165.42 1024.39 1162.82C1027.33 1160.18 1030.7 1158.27 1034.52 1157.09C1038.34 1155.88 1042.36 1155.27 1046.57 1155.27C1049.36 1155.27 1052.31 1155.61 1055.43 1156.27C1058.58 1156.91 1061.52 1158.09 1064.25 1159.82C1067.01 1161.55 1069.27 1164.02 1071.02 1167.23C1072.78 1170.41 1073.66 1174.55 1073.66 1179.64V1226H1060.39V1216.45H1059.84C1058.96 1218.21 1057.64 1219.94 1055.89 1221.64C1054.13 1223.33 1051.87 1224.74 1049.11 1225.86C1046.36 1226.98 1043.05 1227.55 1039.2 1227.55ZM1042.16 1216.64C1045.92 1216.64 1049.13 1215.89 1051.8 1214.41C1054.49 1212.92 1056.54 1210.98 1057.93 1208.59C1059.36 1206.17 1060.07 1203.58 1060.07 1200.82V1191.82C1059.58 1192.3 1058.64 1192.76 1057.25 1193.18C1055.89 1193.58 1054.33 1193.92 1052.57 1194.23C1050.81 1194.5 1049.1 1194.76 1047.43 1195C1045.77 1195.21 1044.37 1195.39 1043.25 1195.55C1040.61 1195.88 1038.2 1196.44 1036.02 1197.23C1033.87 1198.02 1032.14 1199.15 1030.84 1200.64C1029.57 1202.09 1028.93 1204.03 1028.93 1206.45C1028.93 1209.82 1030.17 1212.36 1032.66 1214.09C1035.14 1215.79 1038.31 1216.64 1042.16 1216.64ZM1105.35 1132.91V1226H1091.76V1132.91H1105.35ZM1167.86 1197.05V1156.18H1181.5V1226H1168.14V1213.91H1167.41C1165.8 1217.64 1163.23 1220.74 1159.68 1223.23C1156.17 1225.68 1151.79 1226.91 1146.55 1226.91C1142.06 1226.91 1138.09 1225.92 1134.64 1223.95C1131.21 1221.95 1128.52 1219 1126.55 1215.09C1124.61 1211.18 1123.64 1206.35 1123.64 1200.59V1156.18H1137.23V1198.95C1137.23 1203.71 1138.55 1207.5 1141.18 1210.32C1143.82 1213.14 1147.24 1214.55 1151.45 1214.55C1154 1214.55 1156.53 1213.91 1159.05 1212.64C1161.59 1211.36 1163.7 1209.44 1165.36 1206.86C1167.06 1204.29 1167.89 1201.02 1167.86 1197.05ZM1229.85 1227.41C1222.97 1227.41 1217.05 1225.94 1212.08 1223C1207.14 1220.03 1203.32 1215.86 1200.62 1210.5C1197.96 1205.11 1196.62 1198.79 1196.62 1191.55C1196.62 1184.39 1197.96 1178.09 1200.62 1172.64C1203.32 1167.18 1207.08 1162.92 1211.9 1159.86C1216.75 1156.8 1222.41 1155.27 1228.9 1155.27C1232.84 1155.27 1236.66 1155.92 1240.35 1157.23C1244.05 1158.53 1247.37 1160.58 1250.31 1163.36C1253.25 1166.15 1255.56 1169.77 1257.26 1174.23C1258.96 1178.65 1259.81 1184.03 1259.81 1190.36V1195.18H1204.31V1185H1246.49C1246.49 1181.42 1245.76 1178.26 1244.31 1175.5C1242.85 1172.71 1240.81 1170.52 1238.17 1168.91C1235.56 1167.3 1232.5 1166.5 1228.99 1166.5C1225.17 1166.5 1221.84 1167.44 1218.99 1169.32C1216.17 1171.17 1213.99 1173.59 1212.44 1176.59C1210.93 1179.56 1210.17 1182.79 1210.17 1186.27V1194.23C1210.17 1198.89 1210.99 1202.86 1212.62 1206.14C1214.29 1209.41 1216.61 1211.91 1219.58 1213.64C1222.55 1215.33 1226.02 1216.18 1229.99 1216.18C1232.56 1216.18 1234.91 1215.82 1237.03 1215.09C1239.16 1214.33 1240.99 1213.21 1242.53 1211.73C1244.08 1210.24 1245.26 1208.41 1246.08 1206.23L1258.94 1208.55C1257.91 1212.33 1256.06 1215.65 1253.4 1218.5C1250.76 1221.32 1247.44 1223.52 1243.44 1225.09C1239.47 1226.64 1234.94 1227.41 1229.85 1227.41Z" fill="white"/>
<path d="M1146.41 382V288.909H1179.6C1186.84 288.909 1192.84 290.227 1197.6 292.864C1202.35 295.5 1205.91 299.106 1208.28 303.682C1210.64 308.227 1211.82 313.348 1211.82 319.045C1211.82 324.773 1210.63 329.924 1208.23 334.5C1205.87 339.045 1202.29 342.652 1197.51 345.318C1192.75 347.955 1186.76 349.273 1179.55 349.273H1156.73V337.364H1178.28C1182.85 337.364 1186.57 336.576 1189.41 335C1192.26 333.394 1194.35 331.212 1195.69 328.455C1197.02 325.697 1197.69 322.561 1197.69 319.045C1197.69 315.53 1197.02 312.409 1195.69 309.682C1194.35 306.955 1192.25 304.818 1189.37 303.273C1186.52 301.727 1182.76 300.955 1178.1 300.955H1160.46V382H1146.41ZM1255.73 383.409C1249.19 383.409 1243.48 381.909 1238.6 378.909C1233.72 375.909 1229.93 371.712 1227.23 366.318C1224.54 360.924 1223.19 354.621 1223.19 347.409C1223.19 340.167 1224.54 333.833 1227.23 328.409C1229.93 322.985 1233.72 318.773 1238.6 315.773C1243.48 312.773 1249.19 311.273 1255.73 311.273C1262.28 311.273 1267.99 312.773 1272.87 315.773C1277.75 318.773 1281.54 322.985 1284.23 328.409C1286.93 333.833 1288.28 340.167 1288.28 347.409C1288.28 354.621 1286.93 360.924 1284.23 366.318C1281.54 371.712 1277.75 375.909 1272.87 378.909C1267.99 381.909 1262.28 383.409 1255.73 383.409ZM1255.78 372C1260.02 372 1263.54 370.879 1266.32 368.636C1269.11 366.394 1271.17 363.409 1272.51 359.682C1273.87 355.955 1274.55 351.848 1274.55 347.364C1274.55 342.909 1273.87 338.818 1272.51 335.091C1271.17 331.333 1269.11 328.318 1266.32 326.045C1263.54 323.773 1260.02 322.636 1255.78 322.636C1251.51 322.636 1247.96 323.773 1245.14 326.045C1242.35 328.318 1240.28 331.333 1238.91 335.091C1237.58 338.818 1236.91 342.909 1236.91 347.364C1236.91 351.848 1237.58 355.955 1238.91 359.682C1240.28 363.409 1242.35 366.394 1245.14 368.636C1247.96 370.879 1251.51 372 1255.78 372ZM1336.04 312.182V323.091H1297.9V312.182H1336.04ZM1308.13 295.455H1321.72V361.5C1321.72 364.136 1322.12 366.121 1322.9 367.455C1323.69 368.758 1324.71 369.652 1325.95 370.136C1327.22 370.591 1328.6 370.818 1330.09 370.818C1331.18 370.818 1332.13 370.742 1332.95 370.591C1333.77 370.439 1334.4 370.318 1334.86 370.227L1337.31 381.455C1336.52 381.758 1335.4 382.061 1333.95 382.364C1332.49 382.697 1330.68 382.879 1328.49 382.909C1324.92 382.97 1321.59 382.333 1318.49 381C1315.4 379.667 1312.9 377.606 1310.99 374.818C1309.09 372.03 1308.13 368.53 1308.13 364.318V295.455ZM1380.41 383.409C1373.54 383.409 1367.61 381.939 1362.64 379C1357.7 376.03 1353.88 371.864 1351.19 366.5C1348.52 361.106 1347.19 354.788 1347.19 347.545C1347.19 340.394 1348.52 334.091 1351.19 328.636C1353.88 323.182 1357.64 318.924 1362.46 315.864C1367.31 312.803 1372.98 311.273 1379.46 311.273C1383.4 311.273 1387.22 311.924 1390.91 313.227C1394.61 314.53 1397.93 316.576 1400.87 319.364C1403.81 322.152 1406.13 325.773 1407.82 330.227C1409.52 334.652 1410.37 340.03 1410.37 346.364V351.182H1354.87V341H1397.05C1397.05 337.424 1396.32 334.258 1394.87 331.5C1393.41 328.712 1391.37 326.515 1388.73 324.909C1386.13 323.303 1383.07 322.5 1379.55 322.5C1375.73 322.5 1372.4 323.439 1369.55 325.318C1366.73 327.167 1364.55 329.591 1363.01 332.591C1361.49 335.561 1360.73 338.788 1360.73 342.273V350.227C1360.73 354.894 1361.55 358.864 1363.19 362.136C1364.85 365.409 1367.17 367.909 1370.14 369.636C1373.11 371.333 1376.58 372.182 1380.55 372.182C1383.13 372.182 1385.48 371.818 1387.6 371.091C1389.72 370.333 1391.55 369.212 1393.1 367.727C1394.64 366.242 1395.82 364.409 1396.64 362.227L1409.51 364.545C1408.48 368.333 1406.63 371.652 1403.96 374.5C1401.32 377.318 1398.01 379.515 1394.01 381.091C1390.04 382.636 1385.51 383.409 1380.41 383.409ZM1439.04 340.545V382H1425.45V312.182H1438.49V323.545H1439.36C1440.96 319.848 1443.48 316.879 1446.9 314.636C1450.36 312.394 1454.71 311.273 1459.95 311.273C1464.71 311.273 1468.87 312.273 1472.45 314.273C1476.02 316.242 1478.8 319.182 1480.77 323.091C1482.74 327 1483.72 331.833 1483.72 337.591V382H1470.13V339.227C1470.13 334.167 1468.81 330.212 1466.18 327.364C1463.54 324.485 1459.92 323.045 1455.31 323.045C1452.16 323.045 1449.36 323.727 1446.9 325.091C1444.48 326.455 1442.55 328.455 1441.13 331.091C1439.74 333.697 1439.04 336.848 1439.04 340.545ZM1534.54 312.182V323.091H1496.4V312.182H1534.54ZM1506.63 295.455H1520.22V361.5C1520.22 364.136 1520.62 366.121 1521.4 367.455C1522.19 368.758 1523.21 369.652 1524.45 370.136C1525.72 370.591 1527.1 370.818 1528.59 370.818C1529.68 370.818 1530.63 370.742 1531.45 370.591C1532.27 370.439 1532.9 370.318 1533.36 370.227L1535.81 381.455C1535.02 381.758 1533.9 382.061 1532.45 382.364C1530.99 382.697 1529.18 382.879 1526.99 382.909C1523.42 382.97 1520.09 382.333 1516.99 381C1513.9 379.667 1511.4 377.606 1509.49 374.818C1507.59 372.03 1506.63 368.53 1506.63 364.318V295.455ZM1549.57 382V312.182H1563.16V382H1549.57ZM1556.44 301.409C1554.07 301.409 1552.04 300.621 1550.35 299.045C1548.68 297.439 1547.85 295.53 1547.85 293.318C1547.85 291.076 1548.68 289.167 1550.35 287.591C1552.04 285.985 1554.07 285.182 1556.44 285.182C1558.8 285.182 1560.82 285.985 1562.48 287.591C1564.18 289.167 1565.03 291.076 1565.03 293.318C1565.03 295.53 1564.18 297.439 1562.48 299.045C1560.82 300.621 1558.8 301.409 1556.44 301.409ZM1601.77 383.545C1597.34 383.545 1593.34 382.727 1589.77 381.091C1586.19 379.424 1583.36 377.015 1581.27 373.864C1579.21 370.712 1578.18 366.848 1578.18 362.273C1578.18 358.333 1578.93 355.091 1580.45 352.545C1581.96 350 1584.01 347.985 1586.59 346.5C1589.16 345.015 1592.04 343.894 1595.22 343.136C1598.4 342.379 1601.65 341.803 1604.95 341.409C1609.13 340.924 1612.52 340.53 1615.13 340.227C1617.74 339.894 1619.63 339.364 1620.81 338.636C1621.99 337.909 1622.59 336.727 1622.59 335.091V334.773C1622.59 330.803 1621.46 327.727 1619.22 325.545C1617.01 323.364 1613.71 322.273 1609.31 322.273C1604.74 322.273 1601.13 323.288 1598.49 325.318C1595.89 327.318 1594.09 329.545 1593.09 332L1580.31 329.091C1581.83 324.848 1584.04 321.424 1586.95 318.818C1589.89 316.182 1593.27 314.273 1597.09 313.091C1600.9 311.879 1604.92 311.273 1609.13 311.273C1611.92 311.273 1614.87 311.606 1617.99 312.273C1621.15 312.909 1624.09 314.091 1626.81 315.818C1629.57 317.545 1631.83 320.015 1633.59 323.227C1635.34 326.409 1636.22 330.545 1636.22 335.636V382H1622.95V372.455H1622.4C1621.52 374.212 1620.21 375.939 1618.45 377.636C1616.69 379.333 1614.43 380.742 1611.68 381.864C1608.92 382.985 1605.62 383.545 1601.77 383.545ZM1604.72 372.636C1608.48 372.636 1611.69 371.894 1614.36 370.409C1617.05 368.924 1619.1 366.985 1620.49 364.591C1621.92 362.167 1622.63 359.576 1622.63 356.818V347.818C1622.15 348.303 1621.21 348.758 1619.81 349.182C1618.45 349.576 1616.89 349.924 1615.13 350.227C1613.37 350.5 1611.66 350.758 1609.99 351C1608.33 351.212 1606.93 351.394 1605.81 351.545C1603.18 351.879 1600.77 352.439 1598.59 353.227C1596.43 354.015 1594.71 355.152 1593.4 356.636C1592.13 358.091 1591.49 360.03 1591.49 362.455C1591.49 365.818 1592.74 368.364 1595.22 370.091C1597.71 371.788 1600.87 372.636 1604.72 372.636ZM1667.91 288.909V382H1654.32V288.909H1667.91ZM1686.2 382V312.182H1699.79V382H1686.2ZM1693.06 301.409C1690.7 301.409 1688.67 300.621 1686.97 299.045C1685.3 297.439 1684.47 295.53 1684.47 293.318C1684.47 291.076 1685.3 289.167 1686.97 287.591C1688.67 285.985 1690.7 285.182 1693.06 285.182C1695.43 285.182 1697.44 285.985 1699.11 287.591C1700.8 289.167 1701.65 291.076 1701.65 293.318C1701.65 295.53 1700.8 297.439 1699.11 299.045C1697.44 300.621 1695.43 301.409 1693.06 301.409ZM1750.66 312.182V323.091H1712.53V312.182H1750.66ZM1722.76 295.455H1736.35V361.5C1736.35 364.136 1736.74 366.121 1737.53 367.455C1738.32 368.758 1739.33 369.652 1740.57 370.136C1741.85 370.591 1743.23 370.818 1744.71 370.818C1745.8 370.818 1746.76 370.742 1747.57 370.591C1748.39 370.439 1749.03 370.318 1749.48 370.227L1751.94 381.455C1751.15 381.758 1750.03 382.061 1748.57 382.364C1747.12 382.697 1745.3 382.879 1743.12 382.909C1739.54 382.97 1736.21 382.333 1733.12 381C1730.03 379.667 1727.53 377.606 1725.62 374.818C1723.71 372.03 1722.76 368.53 1722.76 364.318V295.455ZM1795.04 383.409C1788.16 383.409 1782.24 381.939 1777.27 379C1772.33 376.03 1768.51 371.864 1765.81 366.5C1763.15 361.106 1761.81 354.788 1761.81 347.545C1761.81 340.394 1763.15 334.091 1765.81 328.636C1768.51 323.182 1772.27 318.924 1777.09 315.864C1781.93 312.803 1787.6 311.273 1794.09 311.273C1798.02 311.273 1801.84 311.924 1805.54 313.227C1809.24 314.53 1812.55 316.576 1815.49 319.364C1818.43 322.152 1820.75 325.773 1822.45 330.227C1824.15 334.652 1824.99 340.03 1824.99 346.364V351.182H1769.49V341H1811.68C1811.68 337.424 1810.95 334.258 1809.49 331.5C1808.04 328.712 1805.99 326.515 1803.36 324.909C1800.75 323.303 1797.69 322.5 1794.18 322.5C1790.36 322.5 1787.02 323.439 1784.18 325.318C1781.36 327.167 1779.18 329.591 1777.63 332.591C1776.12 335.561 1775.36 338.788 1775.36 342.273V350.227C1775.36 354.894 1776.18 358.864 1777.81 362.136C1779.48 365.409 1781.8 367.909 1784.77 369.636C1787.74 371.333 1791.21 372.182 1795.18 372.182C1797.75 372.182 1800.1 371.818 1802.22 371.091C1804.34 370.333 1806.18 369.212 1807.72 367.727C1809.27 366.242 1810.45 364.409 1811.27 362.227L1824.13 364.545C1823.1 368.333 1821.25 371.652 1818.59 374.5C1815.95 377.318 1812.63 379.515 1808.63 381.091C1804.66 382.636 1800.13 383.409 1795.04 383.409ZM1787.95 302.864L1798.59 281.909H1812.9L1798.81 302.864H1787.95ZM1406.41 467.182V478.091H1368.28V467.182H1406.41ZM1378.51 450.455H1392.1V516.5C1392.1 519.136 1392.49 521.121 1393.28 522.455C1394.07 523.758 1395.08 524.652 1396.32 525.136C1397.6 525.591 1398.98 525.818 1400.46 525.818C1401.55 525.818 1402.51 525.742 1403.32 525.591C1404.14 525.439 1404.78 525.318 1405.23 525.227L1407.69 536.455C1406.9 536.758 1405.78 537.061 1404.32 537.364C1402.87 537.697 1401.05 537.879 1398.87 537.909C1395.29 537.97 1391.96 537.333 1388.87 536C1385.78 534.667 1383.28 532.606 1381.37 529.818C1379.46 527.03 1378.51 523.53 1378.51 519.318V450.455ZM1450.79 538.409C1443.91 538.409 1437.99 536.939 1433.02 534C1428.08 531.03 1424.26 526.864 1421.56 521.5C1418.9 516.106 1417.56 509.788 1417.56 502.545C1417.56 495.394 1418.9 489.091 1421.56 483.636C1424.26 478.182 1428.02 473.924 1432.84 470.864C1437.68 467.803 1443.35 466.273 1449.84 466.273C1453.77 466.273 1457.59 466.924 1461.29 468.227C1464.99 469.53 1468.3 471.576 1471.24 474.364C1474.18 477.152 1476.5 480.773 1478.2 485.227C1479.9 489.652 1480.74 495.03 1480.74 501.364V506.182H1425.24V496H1467.43C1467.43 492.424 1466.7 489.258 1465.24 486.5C1463.79 483.712 1461.74 481.515 1459.11 479.909C1456.5 478.303 1453.44 477.5 1449.93 477.5C1446.11 477.5 1442.77 478.439 1439.93 480.318C1437.11 482.167 1434.93 484.591 1433.38 487.591C1431.87 490.561 1431.11 493.788 1431.11 497.273V505.227C1431.11 509.894 1431.93 513.864 1433.56 517.136C1435.23 520.409 1437.55 522.909 1440.52 524.636C1443.49 526.333 1446.96 527.182 1450.93 527.182C1453.5 527.182 1455.85 526.818 1457.97 526.091C1460.09 525.333 1461.93 524.212 1463.47 522.727C1465.02 521.242 1466.2 519.409 1467.02 517.227L1479.88 519.545C1478.85 523.333 1477 526.652 1474.34 529.5C1471.7 532.318 1468.38 534.515 1464.38 536.091C1460.41 537.636 1455.88 538.409 1450.79 538.409ZM1525.23 538.409C1518.48 538.409 1512.66 536.879 1507.78 533.818C1502.93 530.727 1499.2 526.47 1496.6 521.045C1493.99 515.621 1492.69 509.409 1492.69 502.409C1492.69 495.318 1494.02 489.061 1496.69 483.636C1499.35 478.182 1503.11 473.924 1507.96 470.864C1512.81 467.803 1518.52 466.273 1525.1 466.273C1530.4 466.273 1535.13 467.258 1539.28 469.227C1543.43 471.167 1546.78 473.894 1549.32 477.409C1551.9 480.924 1553.43 485.03 1553.91 489.727H1540.69C1539.96 486.455 1538.29 483.636 1535.69 481.273C1533.11 478.909 1529.66 477.727 1525.32 477.727C1521.54 477.727 1518.22 478.727 1515.37 480.727C1512.55 482.697 1510.35 485.515 1508.78 489.182C1507.2 492.818 1506.41 497.121 1506.41 502.091C1506.41 507.182 1507.19 511.576 1508.73 515.273C1510.28 518.97 1512.46 521.833 1515.28 523.864C1518.13 525.894 1521.48 526.909 1525.32 526.909C1527.9 526.909 1530.23 526.439 1532.32 525.5C1534.45 524.53 1536.22 523.152 1537.64 521.364C1539.1 519.576 1540.11 517.424 1540.69 514.909H1553.91C1553.43 519.424 1551.96 523.455 1549.51 527C1547.05 530.545 1543.76 533.333 1539.64 535.364C1535.55 537.394 1530.75 538.409 1525.23 538.409ZM1582.04 495.545V537H1568.45V443.909H1581.86V478.545H1582.72C1584.36 474.788 1586.86 471.803 1590.22 469.591C1593.59 467.379 1597.98 466.273 1603.4 466.273C1608.19 466.273 1612.37 467.258 1615.95 469.227C1619.55 471.197 1622.34 474.136 1624.31 478.045C1626.31 481.924 1627.31 486.773 1627.31 492.591V537H1613.72V494.227C1613.72 489.106 1612.4 485.136 1609.77 482.318C1607.13 479.47 1603.46 478.045 1598.77 478.045C1595.55 478.045 1592.68 478.727 1590.13 480.091C1587.62 481.455 1585.63 483.455 1584.18 486.091C1582.75 488.697 1582.04 491.848 1582.04 495.545Z" fill="black"/>
</g>
<defs>
<clipPath id="clip0_43_231793">
<rect width="2200" height="2200" fill="white"/>
</clipPath>
</defs>
</svg>
