<svg width="991" height="988" viewBox="0 0 991 988" fill="none" xmlns="http://www.w3.org/2000/svg">
<path d="M495.981 988C391.234 988 302.006 967.362 228.295 926.085C154.585 884.37 98.0896 826.407 58.8097 752.197C20.0147 677.987 0.617188 591.922 0.617188 494C0.617188 396.078 20.0147 310.012 58.8097 235.803C98.0896 161.593 154.585 103.85 228.295 62.5732C302.006 20.8577 391.234 0 495.981 0C600.242 0 689.228 20.8577 762.939 62.5732C837.134 103.85 893.63 161.593 932.425 235.803C971.22 310.012 990.617 396.078 990.617 494C990.617 591.922 971.22 677.987 932.425 752.197C893.63 826.407 837.134 884.37 762.939 926.085C689.228 967.362 600.242 988 495.981 988ZM495.981 856.925C570.176 857.804 631.763 843.093 680.742 812.795C730.205 782.057 767.303 739.463 792.035 685.013C816.767 630.124 829.133 566.453 829.133 494C829.133 421.547 816.767 358.315 792.035 304.304C767.303 249.854 730.205 207.48 680.742 177.181C631.763 146.883 570.176 131.514 495.981 131.075C421.785 130.196 359.956 144.907 310.492 175.205C261.514 205.504 224.658 248.098 199.926 302.987C175.195 357.875 162.586 421.547 162.101 494C161.617 566.453 173.74 629.905 198.472 684.354C223.204 738.365 260.301 780.52 309.765 810.819C359.713 841.117 421.785 856.486 495.981 856.925Z" fill="#1E3758"/>
</svg>
