<svg width="192" height="192" viewBox="0 0 192 192" fill="none" xmlns="http://www.w3.org/2000/svg">
<path d="M189.35 32.8274C190.94 33.3973 192 34.904 192 36.5927V147.649C192 149.245 191.052 150.687 189.587 151.321L98.7391 190.599C97.7374 191.033 96.6022 191.038 95.5967 190.613L2.44501 151.309C0.963227 150.684 0 149.232 0 147.624V33.7C0 31.9592 1.12584 30.4183 2.78427 29.8892L95.8803 0.189227C96.7174 -0.0778075 97.619 -0.0618267 98.4461 0.234701L189.35 32.8274ZM57.2436 39.7898C56.1486 40.1051 55.2399 40.8724 54.7458 41.8992L43.1751 65.9433C41.7313 68.9436 37.4678 68.9695 35.9877 65.9868L29.1961 52.3007C28.3332 50.5619 26.3464 49.6935 24.4841 50.2414L16.3968 52.6207C14.0712 53.3049 12.8839 55.884 13.8764 58.0957L28.9839 91.7624C29.4354 92.7685 29.4515 93.9165 29.0283 94.9349L13.6274 131.998C12.7444 134.123 13.832 136.553 16.0049 137.31L24.3269 140.21C26.2501 140.88 28.3697 139.998 29.2501 138.162L36.6469 122.733C38.1266 119.646 42.5473 119.723 43.9187 122.859L54.7818 147.701C55.2517 148.775 56.1696 149.59 57.2926 149.928L76.1977 155.625C79.5448 156.634 82.4843 153.165 80.9407 150.029L54.3938 96.0848C53.8517 94.9833 53.8455 93.6937 54.377 92.587L79.4768 40.3216C80.972 37.2081 78.0836 33.7906 74.7645 34.7461L57.2436 39.7898ZM135 145.798C135 148.508 137.638 150.434 140.219 149.608L156.219 144.489C157.876 143.958 159 142.418 159 140.679V47.7115C159 45.8292 157.688 44.2017 155.848 43.8025L139.848 40.3298C137.356 39.7888 135 41.6879 135 44.2388V145.798Z" fill="black"/>
</svg>
