<svg width="192" height="192" viewBox="0 0 192 192" fill="none" xmlns="http://www.w3.org/2000/svg">
<path d="M174 170C174 172.209 172.209 174 170 174H22C19.7909 174 18 172.209 18 170V22C18 19.7909 19.7909 18 22 18H170C172.209 18 174 19.7909 174 22V170ZM44.4248 124.275C42.2157 124.275 40.4248 126.066 40.4248 128.275V147.575C40.4248 149.784 42.2157 151.575 44.4248 151.575H147.575C149.784 151.575 151.575 149.784 151.575 147.575V128.275C151.575 126.066 149.784 124.275 147.575 124.275H44.4248ZM40.4248 105.65C40.4248 107.86 42.2157 109.65 44.4248 109.65H147.575C149.784 109.65 151.575 107.86 151.575 105.65V86.3496C151.575 84.1405 149.784 82.3496 147.575 82.3496H44.4248C42.2157 82.3496 40.4248 84.1405 40.4248 86.3496V105.65ZM40.4248 63.7246C40.4248 65.9337 42.2157 67.7246 44.4248 67.7246H147.575C149.784 67.7246 151.575 65.9337 151.575 63.7246V44.4248C151.575 42.2157 149.784 40.4248 147.575 40.4248H44.4248C42.2157 40.4248 40.4248 42.2157 40.4248 44.4248V63.7246Z" fill="black"/>
</svg>
